%TF.GenerationSoftware,KiCad,Pcbnew,8.0.3*%
%TF.CreationDate,2024-06-12T20:13:06+02:00*%
%TF.ProjectId,Li Ion Doctor,4c692049-6f6e-4204-946f-63746f722e6b,1*%
%TF.SameCoordinates,Original*%
%TF.FileFunction,Drillmap*%
%TF.FilePolarity,Positive*%
%FSLAX45Y45*%
G04 Gerber Fmt 4.5, Leading zero omitted, Abs format (unit mm)*
G04 Created by KiCad (PCBNEW 8.0.3) date 2024-06-12 20:13:06*
%MOMM*%
%LPD*%
G01*
G04 APERTURE LIST*
%ADD10C,0.100000*%
%ADD11C,0.200000*%
G04 APERTURE END LIST*
D10*
X17245160Y-13071220D02*
G75*
G02*
X16925160Y-13071220I-160000J0D01*
G01*
X16925160Y-13071220D02*
G75*
G02*
X17245160Y-13071220I160000J0D01*
G01*
X10045160Y-8671220D02*
G75*
G02*
X9725160Y-8671220I-160000J0D01*
G01*
X9725160Y-8671220D02*
G75*
G02*
X10045160Y-8671220I160000J0D01*
G01*
X10045160Y-13071220D02*
G75*
G02*
X9725160Y-13071220I-160000J0D01*
G01*
X9725160Y-13071220D02*
G75*
G02*
X10045160Y-13071220I160000J0D01*
G01*
X9585160Y-8371220D02*
X19385160Y-8371220D01*
X19385160Y-13371220D01*
X9585160Y-13371220D01*
X9585160Y-8371220D01*
X19245160Y-8671220D02*
G75*
G02*
X18925160Y-8671220I-160000J0D01*
G01*
X18925160Y-8671220D02*
G75*
G02*
X19245160Y-8671220I160000J0D01*
G01*
D11*
X9840937Y-13687704D02*
X9840937Y-13487704D01*
X9840937Y-13487704D02*
X9888556Y-13487704D01*
X9888556Y-13487704D02*
X9917127Y-13497228D01*
X9917127Y-13497228D02*
X9936175Y-13516275D01*
X9936175Y-13516275D02*
X9945699Y-13535323D01*
X9945699Y-13535323D02*
X9955223Y-13573418D01*
X9955223Y-13573418D02*
X9955223Y-13601989D01*
X9955223Y-13601989D02*
X9945699Y-13640085D01*
X9945699Y-13640085D02*
X9936175Y-13659132D01*
X9936175Y-13659132D02*
X9917127Y-13678180D01*
X9917127Y-13678180D02*
X9888556Y-13687704D01*
X9888556Y-13687704D02*
X9840937Y-13687704D01*
X10040937Y-13687704D02*
X10040937Y-13554370D01*
X10040937Y-13592466D02*
X10050461Y-13573418D01*
X10050461Y-13573418D02*
X10059984Y-13563894D01*
X10059984Y-13563894D02*
X10079032Y-13554370D01*
X10079032Y-13554370D02*
X10098080Y-13554370D01*
X10164746Y-13687704D02*
X10164746Y-13554370D01*
X10164746Y-13487704D02*
X10155223Y-13497228D01*
X10155223Y-13497228D02*
X10164746Y-13506751D01*
X10164746Y-13506751D02*
X10174270Y-13497228D01*
X10174270Y-13497228D02*
X10164746Y-13487704D01*
X10164746Y-13487704D02*
X10164746Y-13506751D01*
X10288556Y-13687704D02*
X10269508Y-13678180D01*
X10269508Y-13678180D02*
X10259984Y-13659132D01*
X10259984Y-13659132D02*
X10259984Y-13487704D01*
X10393318Y-13687704D02*
X10374270Y-13678180D01*
X10374270Y-13678180D02*
X10364746Y-13659132D01*
X10364746Y-13659132D02*
X10364746Y-13487704D01*
X10621889Y-13687704D02*
X10621889Y-13487704D01*
X10621889Y-13487704D02*
X10688556Y-13630561D01*
X10688556Y-13630561D02*
X10755223Y-13487704D01*
X10755223Y-13487704D02*
X10755223Y-13687704D01*
X10936175Y-13687704D02*
X10936175Y-13582942D01*
X10936175Y-13582942D02*
X10926651Y-13563894D01*
X10926651Y-13563894D02*
X10907604Y-13554370D01*
X10907604Y-13554370D02*
X10869508Y-13554370D01*
X10869508Y-13554370D02*
X10850461Y-13563894D01*
X10936175Y-13678180D02*
X10917127Y-13687704D01*
X10917127Y-13687704D02*
X10869508Y-13687704D01*
X10869508Y-13687704D02*
X10850461Y-13678180D01*
X10850461Y-13678180D02*
X10840937Y-13659132D01*
X10840937Y-13659132D02*
X10840937Y-13640085D01*
X10840937Y-13640085D02*
X10850461Y-13621037D01*
X10850461Y-13621037D02*
X10869508Y-13611513D01*
X10869508Y-13611513D02*
X10917127Y-13611513D01*
X10917127Y-13611513D02*
X10936175Y-13601989D01*
X11031413Y-13554370D02*
X11031413Y-13754370D01*
X11031413Y-13563894D02*
X11050461Y-13554370D01*
X11050461Y-13554370D02*
X11088556Y-13554370D01*
X11088556Y-13554370D02*
X11107604Y-13563894D01*
X11107604Y-13563894D02*
X11117127Y-13573418D01*
X11117127Y-13573418D02*
X11126651Y-13592466D01*
X11126651Y-13592466D02*
X11126651Y-13649608D01*
X11126651Y-13649608D02*
X11117127Y-13668656D01*
X11117127Y-13668656D02*
X11107604Y-13678180D01*
X11107604Y-13678180D02*
X11088556Y-13687704D01*
X11088556Y-13687704D02*
X11050461Y-13687704D01*
X11050461Y-13687704D02*
X11031413Y-13678180D01*
X11212365Y-13668656D02*
X11221889Y-13678180D01*
X11221889Y-13678180D02*
X11212365Y-13687704D01*
X11212365Y-13687704D02*
X11202842Y-13678180D01*
X11202842Y-13678180D02*
X11212365Y-13668656D01*
X11212365Y-13668656D02*
X11212365Y-13687704D01*
X11212365Y-13563894D02*
X11221889Y-13573418D01*
X11221889Y-13573418D02*
X11212365Y-13582942D01*
X11212365Y-13582942D02*
X11202842Y-13573418D01*
X11202842Y-13573418D02*
X11212365Y-13563894D01*
X11212365Y-13563894D02*
X11212365Y-13582942D01*
M02*
