G04 #@! TF.GenerationSoftware,KiCad,Pcbnew,8.0.3*
G04 #@! TF.CreationDate,2024-06-12T20:13:02+02:00*
G04 #@! TF.ProjectId,Li Ion Doctor,4c692049-6f6e-4204-946f-63746f722e6b,1*
G04 #@! TF.SameCoordinates,Original*
G04 #@! TF.FileFunction,Paste,Bot*
G04 #@! TF.FilePolarity,Positive*
%FSLAX46Y46*%
G04 Gerber Fmt 4.6, Leading zero omitted, Abs format (unit mm)*
G04 Created by KiCad (PCBNEW 8.0.3) date 2024-06-12 20:13:02*
%MOMM*%
%LPD*%
G01*
G04 APERTURE LIST*
G04 Aperture macros list*
%AMRoundRect*
0 Rectangle with rounded corners*
0 $1 Rounding radius*
0 $2 $3 $4 $5 $6 $7 $8 $9 X,Y pos of 4 corners*
0 Add a 4 corners polygon primitive as box body*
4,1,4,$2,$3,$4,$5,$6,$7,$8,$9,$2,$3,0*
0 Add four circle primitives for the rounded corners*
1,1,$1+$1,$2,$3*
1,1,$1+$1,$4,$5*
1,1,$1+$1,$6,$7*
1,1,$1+$1,$8,$9*
0 Add four rect primitives between the rounded corners*
20,1,$1+$1,$2,$3,$4,$5,0*
20,1,$1+$1,$4,$5,$6,$7,0*
20,1,$1+$1,$6,$7,$8,$9,0*
20,1,$1+$1,$8,$9,$2,$3,0*%
G04 Aperture macros list end*
%ADD10RoundRect,0.250000X-0.450000X0.350000X-0.450000X-0.350000X0.450000X-0.350000X0.450000X0.350000X0*%
%ADD11RoundRect,0.249999X-1.425001X0.450001X-1.425001X-0.450001X1.425001X-0.450001X1.425001X0.450001X0*%
%ADD12RoundRect,0.250000X-0.475000X0.337500X-0.475000X-0.337500X0.475000X-0.337500X0.475000X0.337500X0*%
%ADD13RoundRect,0.250000X0.475000X-0.337500X0.475000X0.337500X-0.475000X0.337500X-0.475000X-0.337500X0*%
%ADD14RoundRect,0.250000X0.337500X0.475000X-0.337500X0.475000X-0.337500X-0.475000X0.337500X-0.475000X0*%
%ADD15RoundRect,0.250000X0.450000X-0.350000X0.450000X0.350000X-0.450000X0.350000X-0.450000X-0.350000X0*%
%ADD16RoundRect,0.250000X-0.350000X-0.450000X0.350000X-0.450000X0.350000X0.450000X-0.350000X0.450000X0*%
%ADD17RoundRect,0.250000X0.350000X0.450000X-0.350000X0.450000X-0.350000X-0.450000X0.350000X-0.450000X0*%
%ADD18RoundRect,0.150000X-0.150000X0.675000X-0.150000X-0.675000X0.150000X-0.675000X0.150000X0.675000X0*%
%ADD19RoundRect,0.242500X-0.382500X0.242500X-0.382500X-0.242500X0.382500X-0.242500X0.382500X0.242500X0*%
%ADD20R,0.558800X1.663700*%
%ADD21RoundRect,0.175000X0.425000X-0.175000X0.425000X0.175000X-0.425000X0.175000X-0.425000X-0.175000X0*%
%ADD22RoundRect,0.190000X-0.410000X0.190000X-0.410000X-0.190000X0.410000X-0.190000X0.410000X0.190000X0*%
%ADD23RoundRect,0.200000X-0.400000X0.200000X-0.400000X-0.200000X0.400000X-0.200000X0.400000X0.200000X0*%
%ADD24RoundRect,0.175000X-0.425000X0.175000X-0.425000X-0.175000X0.425000X-0.175000X0.425000X0.175000X0*%
%ADD25RoundRect,0.190000X0.410000X-0.190000X0.410000X0.190000X-0.410000X0.190000X-0.410000X-0.190000X0*%
%ADD26RoundRect,0.200000X0.400000X-0.200000X0.400000X0.200000X-0.400000X0.200000X-0.400000X-0.200000X0*%
%ADD27O,1.700000X1.100000*%
G04 APERTURE END LIST*
D10*
X184327800Y-127965200D03*
X184327800Y-129965200D03*
D11*
X178333400Y-91440000D03*
X178333400Y-97540000D03*
X182245000Y-91440000D03*
X182245000Y-97540000D03*
D12*
X124815600Y-121666000D03*
X124815600Y-123741000D03*
D13*
X176199800Y-124325200D03*
X176199800Y-122250200D03*
D14*
X122373300Y-115392200D03*
X120298300Y-115392200D03*
D15*
X114249200Y-110600000D03*
X114249200Y-108600000D03*
D16*
X98164900Y-95211900D03*
X100164900Y-95211900D03*
D17*
X182270400Y-129971800D03*
X180270400Y-129971800D03*
X185270000Y-105760000D03*
X183270000Y-105760000D03*
X100164900Y-93103700D03*
X98164900Y-93103700D03*
D18*
X178104800Y-120768200D03*
X179374800Y-120768200D03*
X180644800Y-120768200D03*
X181914800Y-120768200D03*
X181914800Y-126018200D03*
X180644800Y-126018200D03*
X179374800Y-126018200D03*
X178104800Y-126018200D03*
D13*
X186359800Y-123842600D03*
X186359800Y-121767600D03*
D19*
X120428050Y-120336000D03*
X118878050Y-120336000D03*
X120428050Y-121536000D03*
X118878050Y-121536000D03*
D20*
X117748050Y-118110250D03*
X119018050Y-118110250D03*
X120288050Y-118110250D03*
X121558050Y-118110250D03*
X121558050Y-123761750D03*
X120288050Y-123761750D03*
X119018050Y-123761750D03*
X117748050Y-123761750D03*
D16*
X106517800Y-123381600D03*
X108517800Y-123381600D03*
D17*
X100368100Y-113245900D03*
X98368100Y-113245900D03*
X177587400Y-129971800D03*
X175587400Y-129971800D03*
D15*
X184200800Y-123774200D03*
X184200800Y-121774200D03*
X117900000Y-110600000D03*
X117900000Y-108600000D03*
D16*
X106536600Y-121197200D03*
X108536600Y-121197200D03*
X179160000Y-105750000D03*
X181160000Y-105750000D03*
D10*
X110600000Y-108600000D03*
X110600000Y-110600000D03*
D11*
X186156600Y-91440000D03*
X186156600Y-97540000D03*
D21*
X100787200Y-122782400D03*
D22*
X100787200Y-120762400D03*
D23*
X100787200Y-119532400D03*
D24*
X100787200Y-121782400D03*
D25*
X100787200Y-123802400D03*
D26*
X100787200Y-125032400D03*
D27*
X96907200Y-126602400D03*
X100707200Y-126602400D03*
X96907200Y-117962400D03*
X100707200Y-117962400D03*
D16*
X184334400Y-126034800D03*
X186334400Y-126034800D03*
M02*
