G04 #@! TF.GenerationSoftware,KiCad,Pcbnew,8.0.3*
G04 #@! TF.CreationDate,2024-06-12T20:13:02+02:00*
G04 #@! TF.ProjectId,Li Ion Doctor,4c692049-6f6e-4204-946f-63746f722e6b,1*
G04 #@! TF.SameCoordinates,Original*
G04 #@! TF.FileFunction,Soldermask,Top*
G04 #@! TF.FilePolarity,Negative*
%FSLAX46Y46*%
G04 Gerber Fmt 4.6, Leading zero omitted, Abs format (unit mm)*
G04 Created by KiCad (PCBNEW 8.0.3) date 2024-06-12 20:13:02*
%MOMM*%
%LPD*%
G01*
G04 APERTURE LIST*
G04 Aperture macros list*
%AMRoundRect*
0 Rectangle with rounded corners*
0 $1 Rounding radius*
0 $2 $3 $4 $5 $6 $7 $8 $9 X,Y pos of 4 corners*
0 Add a 4 corners polygon primitive as box body*
4,1,4,$2,$3,$4,$5,$6,$7,$8,$9,$2,$3,0*
0 Add four circle primitives for the rounded corners*
1,1,$1+$1,$2,$3*
1,1,$1+$1,$4,$5*
1,1,$1+$1,$6,$7*
1,1,$1+$1,$8,$9*
0 Add four rect primitives between the rounded corners*
20,1,$1+$1,$2,$3,$4,$5,0*
20,1,$1+$1,$4,$5,$6,$7,0*
20,1,$1+$1,$6,$7,$8,$9,0*
20,1,$1+$1,$8,$9,$2,$3,0*%
G04 Aperture macros list end*
%ADD10RoundRect,0.250000X-0.250000X-0.250000X0.250000X-0.250000X0.250000X0.250000X-0.250000X0.250000X0*%
%ADD11RoundRect,0.150000X-0.587500X-0.150000X0.587500X-0.150000X0.587500X0.150000X-0.587500X0.150000X0*%
%ADD12R,1.250000X2.000000*%
%ADD13RoundRect,0.250000X-0.350000X-0.450000X0.350000X-0.450000X0.350000X0.450000X-0.350000X0.450000X0*%
%ADD14C,2.400000*%
%ADD15RoundRect,0.250000X-0.450000X0.350000X-0.450000X-0.350000X0.450000X-0.350000X0.450000X0.350000X0*%
%ADD16R,2.000000X2.000000*%
%ADD17C,2.000000*%
%ADD18R,3.200000X2.000000*%
%ADD19RoundRect,0.250000X0.350000X0.450000X-0.350000X0.450000X-0.350000X-0.450000X0.350000X-0.450000X0*%
%ADD20R,0.250000X1.100000*%
%ADD21O,1.600000X2.000000*%
%ADD22C,1.524000*%
%ADD23R,2.032000X1.270000*%
%ADD24RoundRect,0.250000X0.475000X-0.337500X0.475000X0.337500X-0.475000X0.337500X-0.475000X-0.337500X0*%
%ADD25RoundRect,0.250000X-0.475000X0.337500X-0.475000X-0.337500X0.475000X-0.337500X0.475000X0.337500X0*%
%ADD26C,2.500000*%
%ADD27RoundRect,0.250000X-1.000000X-1.000000X1.000000X-1.000000X1.000000X1.000000X-1.000000X1.000000X0*%
%ADD28R,2.000000X1.905000*%
%ADD29O,2.000000X1.905000*%
%ADD30R,1.600000X1.600000*%
%ADD31O,1.600000X1.600000*%
%ADD32O,1.700000X1.100000*%
%ADD33C,1.100000*%
G04 APERTURE END LIST*
D10*
X165930000Y-109890000D03*
X168430000Y-109890000D03*
D11*
X166143300Y-125912800D03*
X166143300Y-127812800D03*
X168018300Y-126862800D03*
D12*
X155124300Y-128386800D03*
X158874300Y-128386800D03*
D13*
X153206700Y-132511800D03*
X155206700Y-132511800D03*
D11*
X148607300Y-127472400D03*
X148607300Y-129372400D03*
X150482300Y-128422400D03*
D13*
X157899100Y-132486400D03*
X159899100Y-132486400D03*
X143732500Y-127279400D03*
X145732500Y-127279400D03*
D11*
X162079300Y-128452800D03*
X162079300Y-130352800D03*
X163954300Y-129402800D03*
D13*
X114925600Y-99466400D03*
X116925600Y-99466400D03*
D14*
X185140600Y-86106000D03*
D15*
X183438800Y-114916200D03*
X183438800Y-116916200D03*
D16*
X141351000Y-111306600D03*
D17*
X141351000Y-116306600D03*
X141351000Y-113806600D03*
D18*
X148851000Y-108206600D03*
X148851000Y-119406600D03*
D17*
X155851000Y-116306600D03*
X155851000Y-111306600D03*
D19*
X145675100Y-125023800D03*
X143675100Y-125023800D03*
D12*
X168148000Y-86004400D03*
X171898000Y-86004400D03*
D14*
X176911000Y-86106000D03*
D20*
X169656000Y-90022700D03*
X169156000Y-90022700D03*
X168656000Y-90022700D03*
X168156000Y-90022700D03*
X167656000Y-90022700D03*
X167656000Y-94322700D03*
X168156000Y-94322700D03*
X168656000Y-94322700D03*
X169156000Y-94322700D03*
X169656000Y-94322700D03*
D13*
X143732500Y-129565400D03*
X145732500Y-129565400D03*
D21*
X117957600Y-93434600D03*
X120497600Y-93434600D03*
X123037600Y-93434600D03*
X125577600Y-93434600D03*
D19*
X134156200Y-90347800D03*
X132156200Y-90347800D03*
D22*
X100836100Y-108596700D03*
X100836100Y-106596700D03*
X100836100Y-104596700D03*
X100836100Y-100596700D03*
X98336100Y-108596700D03*
X98336100Y-106596700D03*
X98336100Y-104596700D03*
X98336100Y-100596700D03*
D23*
X99586100Y-98446700D03*
X99586100Y-110746700D03*
D24*
X172085000Y-92956200D03*
X172085000Y-90881200D03*
D13*
X122000000Y-90500000D03*
X124000000Y-90500000D03*
D25*
X112877600Y-97383600D03*
X112877600Y-99458600D03*
D12*
X179658800Y-110820200D03*
X183408800Y-110820200D03*
D26*
X190068200Y-116782200D03*
X190068200Y-131782200D03*
D14*
X167188400Y-116562000D03*
X173188400Y-102362000D03*
X161188400Y-102362000D03*
D27*
X161188400Y-114562000D03*
D14*
X173188400Y-114562000D03*
D28*
X190398400Y-109397800D03*
D29*
X190398400Y-106857800D03*
X190398400Y-104317800D03*
D30*
X143383000Y-102082600D03*
D31*
X140843000Y-102082600D03*
X138303000Y-102082600D03*
X135763000Y-102082600D03*
X133223000Y-102082600D03*
X130683000Y-102082600D03*
X128143000Y-102082600D03*
X125603000Y-102082600D03*
X123063000Y-102082600D03*
X120523000Y-102082600D03*
X117983000Y-102082600D03*
X115443000Y-102082600D03*
X112903000Y-102082600D03*
X110363000Y-102082600D03*
X107823000Y-102082600D03*
X107823000Y-86842600D03*
X110363000Y-86842600D03*
X112903000Y-86842600D03*
X115443000Y-86842600D03*
X117983000Y-86842600D03*
X120523000Y-86842600D03*
X123063000Y-86842600D03*
X125603000Y-86842600D03*
X128143000Y-86842600D03*
X130683000Y-86842600D03*
X133223000Y-86842600D03*
X135763000Y-86842600D03*
X138303000Y-86842600D03*
X140843000Y-86842600D03*
X143383000Y-86842600D03*
D32*
X96907200Y-126602400D03*
X100707200Y-126602400D03*
X96907200Y-117962400D03*
X100707200Y-117962400D03*
D33*
X149860000Y-99822000D03*
X132207000Y-119989600D03*
X132207000Y-125958600D03*
X164731700Y-125938200D03*
X184200800Y-120472200D03*
X120243600Y-125476000D03*
X128778000Y-119964200D03*
X168656000Y-120040400D03*
X158699200Y-107899200D03*
X130710000Y-90340000D03*
X128140000Y-88870000D03*
X164312600Y-92193050D03*
X164312600Y-114858800D03*
X126078400Y-115390000D03*
X120500000Y-90500000D03*
X103040000Y-120760000D03*
X124920000Y-115390000D03*
X134112000Y-119507000D03*
X112699800Y-125857000D03*
X112690000Y-124690000D03*
X123750000Y-115390000D03*
X137591800Y-92176600D03*
X176199800Y-126009400D03*
X104216200Y-120751600D03*
X164309800Y-109890000D03*
X158490000Y-121690000D03*
X159660000Y-121690000D03*
X170820000Y-120820000D03*
X171710000Y-119920000D03*
X169930000Y-121710000D03*
X160820100Y-121691400D03*
X183890000Y-107950000D03*
X145872200Y-111683800D03*
X104279700Y-110985300D03*
X112877600Y-95783400D03*
X162064700Y-132491400D03*
X174142400Y-86055200D03*
X182219600Y-98810000D03*
X183550000Y-99230000D03*
X178430000Y-99240000D03*
X187370000Y-98810000D03*
X186120000Y-99240000D03*
X180950000Y-99230000D03*
X179679600Y-98810000D03*
X177200000Y-98810000D03*
X184886600Y-98810000D03*
X130352800Y-112903000D03*
X119030000Y-126740000D03*
X130352800Y-119964200D03*
X176428400Y-109397800D03*
X165989000Y-90017600D03*
X176428400Y-119100600D03*
X177469800Y-110566200D03*
X178485800Y-118694200D03*
X180644800Y-128346200D03*
X180644800Y-122123200D03*
X179374800Y-124790200D03*
M02*
