G04 #@! TF.GenerationSoftware,KiCad,Pcbnew,8.0.3*
G04 #@! TF.CreationDate,2024-06-12T20:13:02+02:00*
G04 #@! TF.ProjectId,Li Ion Doctor,4c692049-6f6e-4204-946f-63746f722e6b,1*
G04 #@! TF.SameCoordinates,Original*
G04 #@! TF.FileFunction,Copper,L2,Bot*
G04 #@! TF.FilePolarity,Positive*
%FSLAX46Y46*%
G04 Gerber Fmt 4.6, Leading zero omitted, Abs format (unit mm)*
G04 Created by KiCad (PCBNEW 8.0.3) date 2024-06-12 20:13:02*
%MOMM*%
%LPD*%
G01*
G04 APERTURE LIST*
G04 Aperture macros list*
%AMRoundRect*
0 Rectangle with rounded corners*
0 $1 Rounding radius*
0 $2 $3 $4 $5 $6 $7 $8 $9 X,Y pos of 4 corners*
0 Add a 4 corners polygon primitive as box body*
4,1,4,$2,$3,$4,$5,$6,$7,$8,$9,$2,$3,0*
0 Add four circle primitives for the rounded corners*
1,1,$1+$1,$2,$3*
1,1,$1+$1,$4,$5*
1,1,$1+$1,$6,$7*
1,1,$1+$1,$8,$9*
0 Add four rect primitives between the rounded corners*
20,1,$1+$1,$2,$3,$4,$5,0*
20,1,$1+$1,$4,$5,$6,$7,0*
20,1,$1+$1,$6,$7,$8,$9,0*
20,1,$1+$1,$8,$9,$2,$3,0*%
G04 Aperture macros list end*
G04 #@! TA.AperFunction,EtchedComponent*
%ADD10C,0.000000*%
G04 #@! TD*
G04 #@! TA.AperFunction,ComponentPad*
%ADD11C,2.400000*%
G04 #@! TD*
G04 #@! TA.AperFunction,ComponentPad*
%ADD12R,2.000000X2.000000*%
G04 #@! TD*
G04 #@! TA.AperFunction,ComponentPad*
%ADD13C,2.000000*%
G04 #@! TD*
G04 #@! TA.AperFunction,ComponentPad*
%ADD14R,3.200000X2.000000*%
G04 #@! TD*
G04 #@! TA.AperFunction,ComponentPad*
%ADD15O,1.600000X2.000000*%
G04 #@! TD*
G04 #@! TA.AperFunction,ComponentPad*
%ADD16C,1.524000*%
G04 #@! TD*
G04 #@! TA.AperFunction,ComponentPad*
%ADD17R,2.032000X1.270000*%
G04 #@! TD*
G04 #@! TA.AperFunction,SMDPad,CuDef*
%ADD18C,0.500000*%
G04 #@! TD*
G04 #@! TA.AperFunction,SMDPad,CuDef*
%ADD19RoundRect,0.250000X-0.450000X0.350000X-0.450000X-0.350000X0.450000X-0.350000X0.450000X0.350000X0*%
G04 #@! TD*
G04 #@! TA.AperFunction,SMDPad,CuDef*
%ADD20RoundRect,0.249999X-1.425001X0.450001X-1.425001X-0.450001X1.425001X-0.450001X1.425001X0.450001X0*%
G04 #@! TD*
G04 #@! TA.AperFunction,ComponentPad*
%ADD21C,2.500000*%
G04 #@! TD*
G04 #@! TA.AperFunction,SMDPad,CuDef*
%ADD22C,2.000000*%
G04 #@! TD*
G04 #@! TA.AperFunction,SMDPad,CuDef*
%ADD23RoundRect,0.250000X-0.475000X0.337500X-0.475000X-0.337500X0.475000X-0.337500X0.475000X0.337500X0*%
G04 #@! TD*
G04 #@! TA.AperFunction,SMDPad,CuDef*
%ADD24RoundRect,0.250000X0.475000X-0.337500X0.475000X0.337500X-0.475000X0.337500X-0.475000X-0.337500X0*%
G04 #@! TD*
G04 #@! TA.AperFunction,SMDPad,CuDef*
%ADD25RoundRect,0.250000X0.337500X0.475000X-0.337500X0.475000X-0.337500X-0.475000X0.337500X-0.475000X0*%
G04 #@! TD*
G04 #@! TA.AperFunction,SMDPad,CuDef*
%ADD26RoundRect,0.250000X0.450000X-0.350000X0.450000X0.350000X-0.450000X0.350000X-0.450000X-0.350000X0*%
G04 #@! TD*
G04 #@! TA.AperFunction,SMDPad,CuDef*
%ADD27RoundRect,0.250000X-0.350000X-0.450000X0.350000X-0.450000X0.350000X0.450000X-0.350000X0.450000X0*%
G04 #@! TD*
G04 #@! TA.AperFunction,ComponentPad*
%ADD28RoundRect,0.250000X-1.000000X-1.000000X1.000000X-1.000000X1.000000X1.000000X-1.000000X1.000000X0*%
G04 #@! TD*
G04 #@! TA.AperFunction,ComponentPad*
%ADD29R,2.000000X1.905000*%
G04 #@! TD*
G04 #@! TA.AperFunction,ComponentPad*
%ADD30O,2.000000X1.905000*%
G04 #@! TD*
G04 #@! TA.AperFunction,SMDPad,CuDef*
%ADD31RoundRect,0.250000X0.350000X0.450000X-0.350000X0.450000X-0.350000X-0.450000X0.350000X-0.450000X0*%
G04 #@! TD*
G04 #@! TA.AperFunction,SMDPad,CuDef*
%ADD32RoundRect,0.150000X-0.150000X0.675000X-0.150000X-0.675000X0.150000X-0.675000X0.150000X0.675000X0*%
G04 #@! TD*
G04 #@! TA.AperFunction,SMDPad,CuDef*
%ADD33R,0.558800X1.663700*%
G04 #@! TD*
G04 #@! TA.AperFunction,ComponentPad*
%ADD34C,0.500000*%
G04 #@! TD*
G04 #@! TA.AperFunction,SMDPad,CuDef*
%ADD35R,3.403600X2.514600*%
G04 #@! TD*
G04 #@! TA.AperFunction,ComponentPad*
%ADD36R,1.600000X1.600000*%
G04 #@! TD*
G04 #@! TA.AperFunction,ComponentPad*
%ADD37O,1.600000X1.600000*%
G04 #@! TD*
G04 #@! TA.AperFunction,SMDPad,CuDef*
%ADD38RoundRect,0.175000X0.425000X-0.175000X0.425000X0.175000X-0.425000X0.175000X-0.425000X-0.175000X0*%
G04 #@! TD*
G04 #@! TA.AperFunction,SMDPad,CuDef*
%ADD39RoundRect,0.190000X-0.410000X0.190000X-0.410000X-0.190000X0.410000X-0.190000X0.410000X0.190000X0*%
G04 #@! TD*
G04 #@! TA.AperFunction,SMDPad,CuDef*
%ADD40RoundRect,0.200000X-0.400000X0.200000X-0.400000X-0.200000X0.400000X-0.200000X0.400000X0.200000X0*%
G04 #@! TD*
G04 #@! TA.AperFunction,SMDPad,CuDef*
%ADD41RoundRect,0.175000X-0.425000X0.175000X-0.425000X-0.175000X0.425000X-0.175000X0.425000X0.175000X0*%
G04 #@! TD*
G04 #@! TA.AperFunction,SMDPad,CuDef*
%ADD42RoundRect,0.190000X0.410000X-0.190000X0.410000X0.190000X-0.410000X0.190000X-0.410000X-0.190000X0*%
G04 #@! TD*
G04 #@! TA.AperFunction,SMDPad,CuDef*
%ADD43RoundRect,0.200000X0.400000X-0.200000X0.400000X0.200000X-0.400000X0.200000X-0.400000X-0.200000X0*%
G04 #@! TD*
G04 #@! TA.AperFunction,ComponentPad*
%ADD44O,1.700000X1.100000*%
G04 #@! TD*
G04 #@! TA.AperFunction,ViaPad*
%ADD45C,1.100000*%
G04 #@! TD*
G04 #@! TA.AperFunction,Conductor*
%ADD46C,0.350000*%
G04 #@! TD*
G04 #@! TA.AperFunction,Conductor*
%ADD47C,0.250000*%
G04 #@! TD*
G04 #@! TA.AperFunction,Conductor*
%ADD48C,1.270000*%
G04 #@! TD*
G04 #@! TA.AperFunction,Conductor*
%ADD49C,0.762000*%
G04 #@! TD*
G04 #@! TA.AperFunction,Conductor*
%ADD50C,1.016000*%
G04 #@! TD*
G04 APERTURE END LIST*
D10*
G04 #@! TA.AperFunction,EtchedComponent*
G36*
X186270000Y-113870000D02*
G01*
X185270000Y-113870000D01*
X185270000Y-113370000D01*
X186270000Y-113370000D01*
X186270000Y-113870000D01*
G37*
G04 #@! TD.AperFunction*
G04 #@! TA.AperFunction,EtchedComponent*
G36*
X186270000Y-114820000D02*
G01*
X185270000Y-114820000D01*
X185270000Y-114320000D01*
X186270000Y-114320000D01*
X186270000Y-114820000D01*
G37*
G04 #@! TD.AperFunction*
G04 #@! TA.AperFunction,EtchedComponent*
G36*
X184630000Y-117470000D02*
G01*
X180630000Y-117470000D01*
X180630000Y-115470000D01*
X184630000Y-115470000D01*
X184630000Y-117470000D01*
G37*
G04 #@! TD.AperFunction*
G04 #@! TA.AperFunction,EtchedComponent*
G36*
X186609800Y-117924200D02*
G01*
X186109800Y-117924200D01*
X186109800Y-116924200D01*
X186609800Y-116924200D01*
X186609800Y-117924200D01*
G37*
G04 #@! TD.AperFunction*
D11*
X185140600Y-86106000D03*
D12*
X141351000Y-111306600D03*
D13*
X141351000Y-116306600D03*
X141351000Y-113806600D03*
D14*
X148851000Y-108206600D03*
X148851000Y-119406600D03*
D13*
X155851000Y-116306600D03*
X155851000Y-111306600D03*
D11*
X176911000Y-86106000D03*
D15*
X117957600Y-93434600D03*
X120497600Y-93434600D03*
X123037600Y-93434600D03*
X125577600Y-93434600D03*
D16*
X100836100Y-108596700D03*
X100836100Y-106596700D03*
X100836100Y-104596700D03*
X100836100Y-100596700D03*
X98336100Y-108596700D03*
X98336100Y-106596700D03*
X98336100Y-104596700D03*
X98336100Y-100596700D03*
D17*
X99586100Y-98446700D03*
X99586100Y-110746700D03*
D18*
X185270000Y-113620000D03*
X186270000Y-113620000D03*
D19*
X184327800Y-127965200D03*
X184327800Y-129965200D03*
D20*
X178333400Y-91440000D03*
X178333400Y-97540000D03*
D21*
X190068200Y-116782200D03*
X190068200Y-131782200D03*
D20*
X182245000Y-91440000D03*
X182245000Y-97540000D03*
D18*
X185270000Y-114570000D03*
X186270000Y-114570000D03*
D22*
X180630000Y-116470000D03*
X184630000Y-116470000D03*
D23*
X124815600Y-121666000D03*
X124815600Y-123741000D03*
D24*
X176199800Y-124325200D03*
X176199800Y-122250200D03*
D25*
X122373300Y-115392200D03*
X120298300Y-115392200D03*
D26*
X114249200Y-110600000D03*
X114249200Y-108600000D03*
D27*
X98164900Y-95211900D03*
X100164900Y-95211900D03*
D11*
X167188400Y-116562000D03*
X173188400Y-102362000D03*
X161188400Y-102362000D03*
D28*
X161188400Y-114562000D03*
D11*
X173188400Y-114562000D03*
D29*
X190398400Y-109397800D03*
D30*
X190398400Y-106857800D03*
X190398400Y-104317800D03*
D31*
X182270400Y-129971800D03*
X180270400Y-129971800D03*
X185270000Y-105760000D03*
X183270000Y-105760000D03*
X100164900Y-93103700D03*
X98164900Y-93103700D03*
D32*
X178104800Y-120768200D03*
X179374800Y-120768200D03*
X180644800Y-120768200D03*
X181914800Y-120768200D03*
X181914800Y-126018200D03*
X180644800Y-126018200D03*
X179374800Y-126018200D03*
X178104800Y-126018200D03*
D24*
X186359800Y-123842600D03*
X186359800Y-121767600D03*
D33*
X117748050Y-118110250D03*
X119018050Y-118110250D03*
X120288050Y-118110250D03*
X121558050Y-118110250D03*
X121558050Y-123761750D03*
X120288050Y-123761750D03*
X119018050Y-123761750D03*
X117748050Y-123761750D03*
D34*
X121104850Y-119928700D03*
X119653050Y-119928700D03*
X118201250Y-119928700D03*
D35*
X119653050Y-120936000D03*
D34*
X121104850Y-121943300D03*
X119653050Y-121943300D03*
X118201250Y-121943300D03*
D27*
X106517800Y-123381600D03*
X108517800Y-123381600D03*
D31*
X100368100Y-113245900D03*
X98368100Y-113245900D03*
X177587400Y-129971800D03*
X175587400Y-129971800D03*
D26*
X184200800Y-123774200D03*
X184200800Y-121774200D03*
X117900000Y-110600000D03*
X117900000Y-108600000D03*
D27*
X106536600Y-121197200D03*
X108536600Y-121197200D03*
X179160000Y-105750000D03*
X181160000Y-105750000D03*
D18*
X186359800Y-117924200D03*
X186359800Y-116924200D03*
D19*
X110600000Y-108600000D03*
X110600000Y-110600000D03*
D36*
X143383000Y-102082600D03*
D37*
X140843000Y-102082600D03*
X138303000Y-102082600D03*
X135763000Y-102082600D03*
X133223000Y-102082600D03*
X130683000Y-102082600D03*
X128143000Y-102082600D03*
X125603000Y-102082600D03*
X123063000Y-102082600D03*
X120523000Y-102082600D03*
X117983000Y-102082600D03*
X115443000Y-102082600D03*
X112903000Y-102082600D03*
X110363000Y-102082600D03*
X107823000Y-102082600D03*
X107823000Y-86842600D03*
X110363000Y-86842600D03*
X112903000Y-86842600D03*
X115443000Y-86842600D03*
X117983000Y-86842600D03*
X120523000Y-86842600D03*
X123063000Y-86842600D03*
X125603000Y-86842600D03*
X128143000Y-86842600D03*
X130683000Y-86842600D03*
X133223000Y-86842600D03*
X135763000Y-86842600D03*
X138303000Y-86842600D03*
X140843000Y-86842600D03*
X143383000Y-86842600D03*
D20*
X186156600Y-91440000D03*
X186156600Y-97540000D03*
D38*
X100787200Y-122782400D03*
D39*
X100787200Y-120762400D03*
D40*
X100787200Y-119532400D03*
D41*
X100787200Y-121782400D03*
D42*
X100787200Y-123802400D03*
D43*
X100787200Y-125032400D03*
D44*
X96907200Y-126602400D03*
X100707200Y-126602400D03*
X96907200Y-117962400D03*
X100707200Y-117962400D03*
D27*
X184334400Y-126034800D03*
X186334400Y-126034800D03*
D45*
X149860000Y-99822000D03*
X132207000Y-119989600D03*
X132207000Y-125958600D03*
X164731700Y-125938200D03*
X184200800Y-120472200D03*
X120243600Y-125476000D03*
X128778000Y-119964200D03*
X168656000Y-120040400D03*
X158699200Y-107899200D03*
X130710000Y-90340000D03*
X128140000Y-88870000D03*
X164312600Y-92193050D03*
X164312600Y-114858800D03*
X126078400Y-115390000D03*
X120500000Y-90500000D03*
X103040000Y-120760000D03*
X124920000Y-115390000D03*
X134112000Y-119507000D03*
X112699800Y-125857000D03*
X112690000Y-124690000D03*
X123750000Y-115390000D03*
X137591800Y-92176600D03*
X176199800Y-126009400D03*
X104216200Y-120751600D03*
X164309800Y-109890000D03*
X158490000Y-121690000D03*
X159660000Y-121690000D03*
X170820000Y-120820000D03*
X171710000Y-119920000D03*
X169930000Y-121710000D03*
X160820100Y-121691400D03*
X183890000Y-107950000D03*
X145872200Y-111683800D03*
X104279700Y-110985300D03*
X112877600Y-95783400D03*
X162064700Y-132491400D03*
X174142400Y-86055200D03*
X182219600Y-98810000D03*
X183550000Y-99230000D03*
X178430000Y-99240000D03*
X187370000Y-98810000D03*
X186120000Y-99240000D03*
X180950000Y-99230000D03*
X179679600Y-98810000D03*
X177200000Y-98810000D03*
X184886600Y-98810000D03*
X130352800Y-112903000D03*
X119030000Y-126740000D03*
X130352800Y-119964200D03*
X176428400Y-109397800D03*
X165989000Y-90017600D03*
X176428400Y-119100600D03*
X177469800Y-110566200D03*
X178485800Y-118694200D03*
X180644800Y-128346200D03*
X180644800Y-122123200D03*
X179374800Y-124790200D03*
D46*
X141351000Y-111306600D02*
X139006600Y-111306600D01*
X133223000Y-105523000D02*
X133223000Y-102082600D01*
X139006600Y-111306600D02*
X133223000Y-105523000D01*
X141351000Y-116306600D02*
X139420600Y-116306600D01*
X139420600Y-116306600D02*
X130683000Y-107569000D01*
X130683000Y-107569000D02*
X130683000Y-102082600D01*
X155851000Y-116306600D02*
X152525300Y-112980900D01*
X152525300Y-102487300D02*
X149860000Y-99822000D01*
X152525300Y-112980900D02*
X152525300Y-102487300D01*
X125603000Y-104521000D02*
X125603000Y-102082600D01*
X164731700Y-125938200D02*
X132212000Y-125938200D01*
X132207000Y-111125000D02*
X125603000Y-104521000D01*
X132207000Y-111125000D02*
X132207000Y-119989600D01*
X184200800Y-121774200D02*
X184200800Y-120472200D01*
X122034300Y-105651300D02*
X128778000Y-112395000D01*
X128778000Y-119964200D02*
X128778000Y-112395000D01*
D47*
X120288050Y-125431550D02*
X120243600Y-125476000D01*
D46*
X117983000Y-104787700D02*
X118846600Y-105651300D01*
X120288050Y-123761750D02*
X120288050Y-125431550D01*
X118846600Y-105651300D02*
X122034300Y-105651300D01*
X117983000Y-102082600D02*
X117983000Y-104787700D01*
X157327600Y-106578400D02*
X158648400Y-107899200D01*
X168656000Y-122631200D02*
X171704000Y-125679200D01*
X172587400Y-125679200D02*
X171704000Y-125679200D01*
X112903000Y-86842600D02*
X112903000Y-85471000D01*
X175587400Y-128679200D02*
X175587400Y-129971800D01*
X155956000Y-84988400D02*
X157327600Y-86360000D01*
X157327600Y-86360000D02*
X157327600Y-106578400D01*
D47*
X158648400Y-107899200D02*
X158699200Y-107899200D01*
D46*
X168656000Y-120040400D02*
X168656000Y-122631200D01*
X112903000Y-85471000D02*
X113385600Y-84988400D01*
X175587400Y-128679200D02*
X172587400Y-125679200D01*
X113385600Y-84988400D02*
X155956000Y-84988400D01*
X130710000Y-90340000D02*
X129240000Y-88870000D01*
X129240000Y-88870000D02*
X128140000Y-88870000D01*
X112690000Y-124690000D02*
X113618250Y-123761750D01*
D48*
X126078400Y-115390000D02*
X123000000Y-115390000D01*
D46*
X164312600Y-92193050D02*
X164312600Y-109887200D01*
D49*
X112699800Y-124699800D02*
X112690000Y-124690000D01*
X100787200Y-120762400D02*
X104205400Y-120762400D01*
D46*
X144881600Y-117170200D02*
X151739600Y-117170200D01*
D47*
X120500000Y-90604200D02*
X120497600Y-90606600D01*
D46*
X176199800Y-124325200D02*
X176199800Y-126009400D01*
D49*
X112699800Y-125857000D02*
X112699800Y-124699800D01*
D46*
X154178000Y-119608600D02*
X159562800Y-119608600D01*
X99136400Y-90500000D02*
X120500000Y-90500000D01*
X142544800Y-119507000D02*
X144881600Y-117170200D01*
X120500000Y-90500000D02*
X128498400Y-90500000D01*
D49*
X100787200Y-123802400D02*
X102212400Y-123802400D01*
X104205400Y-120762400D02*
X104216200Y-120751600D01*
X102212400Y-123802400D02*
X104267000Y-125857000D01*
D46*
X128498400Y-90500000D02*
X130175000Y-92176600D01*
D48*
X123000000Y-115390000D02*
X122990000Y-115380000D01*
D46*
X120497600Y-90606600D02*
X120497600Y-93434600D01*
X151739600Y-117170200D02*
X154178000Y-119608600D01*
X178104800Y-126018200D02*
X176208600Y-126018200D01*
X98164900Y-91471500D02*
X99136400Y-90500000D01*
X134112000Y-119507000D02*
X142544800Y-119507000D01*
D47*
X120500000Y-90500000D02*
X120500000Y-90604200D01*
D46*
X164312600Y-109887200D02*
X164309800Y-109890000D01*
X113618250Y-123761750D02*
X117748050Y-123761750D01*
D47*
X176208600Y-126018200D02*
X176199800Y-126009400D01*
D46*
X159562800Y-119608600D02*
X164312600Y-114858800D01*
D49*
X104267000Y-125857000D02*
X112699800Y-125857000D01*
D46*
X98164900Y-93103700D02*
X98164900Y-91471500D01*
X130175000Y-92176600D02*
X137591800Y-92176600D01*
D48*
X160858200Y-121691400D02*
X124841000Y-121691400D01*
X169920000Y-121700000D02*
X175150000Y-116470000D01*
X175150000Y-116470000D02*
X181470000Y-116470000D01*
D46*
X183890000Y-112240000D02*
X183890000Y-107950000D01*
X185270000Y-113620000D02*
X183890000Y-112240000D01*
X178319800Y-114570000D02*
X175880000Y-112130200D01*
X117957600Y-93434600D02*
X114642200Y-93434600D01*
X169976800Y-117068600D02*
X169976800Y-112450000D01*
X169976800Y-112450000D02*
X169976800Y-112130200D01*
X169660000Y-112130200D02*
X169976800Y-112130200D01*
X140843800Y-96300000D02*
X141140000Y-96596200D01*
X185270000Y-114570000D02*
X178319800Y-114570000D01*
X169976800Y-112130200D02*
X170300000Y-112130200D01*
X117957600Y-93446600D02*
X121107200Y-96596200D01*
X102019100Y-113245900D02*
X104279700Y-110985300D01*
X143992600Y-96596200D02*
X145872200Y-98475800D01*
X140843000Y-86842600D02*
X140843000Y-96300000D01*
X114642200Y-93434600D02*
X112877600Y-95199200D01*
X163850400Y-132491400D02*
X162064700Y-132491400D01*
X98336100Y-108596700D02*
X97675700Y-109257100D01*
X140843000Y-96300000D02*
X140843000Y-96596200D01*
X145872200Y-111683800D02*
X145872200Y-98475800D01*
X175880000Y-112130200D02*
X170300000Y-112130200D01*
X167195500Y-129146300D02*
X163850400Y-132491400D01*
X155851000Y-111306600D02*
X163275000Y-111306600D01*
X140540000Y-96596200D02*
X141140000Y-96596200D01*
X163275000Y-111306600D02*
X164098600Y-112130200D01*
X169980200Y-112450000D02*
X170300000Y-112130200D01*
X99987100Y-112052100D02*
X100368100Y-112433100D01*
X141140000Y-96596200D02*
X143992600Y-96596200D01*
X164098600Y-112130200D02*
X169660000Y-112130200D01*
X97675700Y-111467900D02*
X98259900Y-112052100D01*
X167195500Y-119849900D02*
X169976800Y-117068600D01*
X97675700Y-109257100D02*
X97675700Y-111467900D01*
X140546800Y-96596200D02*
X140843000Y-96300000D01*
X100368100Y-113245900D02*
X102019100Y-113245900D01*
X121107200Y-96596200D02*
X140540000Y-96596200D01*
X167195500Y-119849900D02*
X167195500Y-129146300D01*
X112877600Y-95199200D02*
X112877600Y-95783400D01*
X98259900Y-112052100D02*
X99987100Y-112052100D01*
X169660000Y-112133200D02*
X169976800Y-112450000D01*
X100368100Y-112433100D02*
X100368100Y-113245900D01*
D48*
X165125400Y-118639200D02*
X167202600Y-116562000D01*
X162864800Y-123774200D02*
X165134200Y-121504800D01*
X124764800Y-123774200D02*
X162864800Y-123774200D01*
X165134200Y-121504800D02*
X165125400Y-121496000D01*
X165125400Y-121496000D02*
X165125400Y-118639200D01*
X178333400Y-91440000D02*
X178333400Y-87528400D01*
X161202600Y-102362000D02*
X161202600Y-88377800D01*
D50*
X178333400Y-91440000D02*
X186156600Y-91440000D01*
D48*
X161202600Y-88377800D02*
X163474400Y-86106000D01*
X163474400Y-86106000D02*
X176911000Y-86106000D01*
X178333400Y-87528400D02*
X176911000Y-86106000D01*
D46*
X180644800Y-123500000D02*
X180644800Y-123266200D01*
X180880000Y-123266200D02*
X181152800Y-123266200D01*
X178104800Y-123266200D02*
X180410000Y-123266200D01*
X181914800Y-119202200D02*
X181914800Y-120768200D01*
X180644800Y-123266200D02*
X180880000Y-123266200D01*
X180646200Y-123500000D02*
X180880000Y-123266200D01*
X186359800Y-121699200D02*
X186359800Y-118940200D01*
X180644800Y-126018200D02*
X180644800Y-123500000D01*
X180410000Y-123266200D02*
X180644800Y-123266200D01*
X181152800Y-123266200D02*
X181914800Y-122504200D01*
X182176800Y-118940200D02*
X181914800Y-119202200D01*
X181914800Y-122504200D02*
X181914800Y-120768200D01*
X186359800Y-118940200D02*
X186359800Y-117924200D01*
X177088800Y-122250200D02*
X178104800Y-123266200D01*
X186359800Y-118940200D02*
X182176800Y-118940200D01*
X180411000Y-123266200D02*
X180644800Y-123500000D01*
X176199800Y-122250200D02*
X177088800Y-122250200D01*
D48*
X190068200Y-114938200D02*
X187560000Y-112430000D01*
D46*
X186270000Y-113620000D02*
X186270000Y-113090000D01*
D48*
X189756000Y-116470000D02*
X190068200Y-116782200D01*
X187560000Y-105620200D02*
X188862400Y-104317800D01*
D46*
X186270000Y-114570000D02*
X186270000Y-113620000D01*
X186270000Y-113090000D02*
X185270000Y-112090000D01*
X185270000Y-112090000D02*
X185270000Y-105760000D01*
D48*
X188862400Y-104317800D02*
X190398400Y-104317800D01*
D46*
X186270000Y-114570000D02*
X186270000Y-116470000D01*
D48*
X187560000Y-112430000D02*
X187560000Y-105620200D01*
X184630000Y-116470000D02*
X189756000Y-116470000D01*
X190068200Y-116782200D02*
X190068200Y-114938200D01*
D46*
X119018050Y-123761750D02*
X119018050Y-126728050D01*
X130352800Y-119964200D02*
X130352800Y-112903000D01*
X117906800Y-116027200D02*
X119018050Y-117138450D01*
X119018050Y-117138450D02*
X119018050Y-118110250D01*
X110600000Y-110600000D02*
X117900000Y-110600000D01*
X117906800Y-110559600D02*
X117906800Y-116027200D01*
X190068200Y-131782200D02*
X187357400Y-131782200D01*
X185540400Y-129965200D02*
X184327800Y-129965200D01*
X184327800Y-129965200D02*
X182277000Y-129965200D01*
X187357400Y-131782200D02*
X185540400Y-129965200D01*
X113353100Y-106596700D02*
X114249200Y-107492800D01*
X114249200Y-108600000D02*
X114249200Y-107492800D01*
X100836100Y-106596700D02*
X113353100Y-106596700D01*
X100787200Y-122782400D02*
X104859400Y-122782400D01*
X105470200Y-123393200D02*
X106518200Y-123393200D01*
X104859400Y-122782400D02*
X105470200Y-123393200D01*
X100787200Y-121782400D02*
X104922000Y-121782400D01*
X104922000Y-121782400D02*
X105495600Y-121208800D01*
X105495600Y-121208800D02*
X106518200Y-121208800D01*
X186359800Y-123774200D02*
X184200800Y-123774200D01*
X186359800Y-123774200D02*
X186359800Y-126009400D01*
X176428400Y-106051800D02*
X176740000Y-105740200D01*
X176453800Y-105740200D02*
X176110000Y-105740200D01*
X176110000Y-105741600D02*
X176428400Y-106060000D01*
X176740000Y-105740200D02*
X176453800Y-105740200D01*
X169062400Y-105740200D02*
X165989000Y-102666800D01*
X176428400Y-106060000D02*
X176428400Y-105765600D01*
X176749800Y-105750000D02*
X176740000Y-105740200D01*
X176428400Y-119091800D02*
X178104800Y-120768200D01*
X179160000Y-105750000D02*
X176749800Y-105750000D01*
X176110000Y-105740200D02*
X169062400Y-105740200D01*
X165989000Y-102666800D02*
X165989000Y-90017600D01*
X176428400Y-109397800D02*
X176428400Y-106060000D01*
X182240000Y-105760000D02*
X181170000Y-105760000D01*
X177469800Y-109677200D02*
X177469800Y-110566200D01*
X179374800Y-119583200D02*
X178485800Y-118694200D01*
X182240000Y-107675600D02*
X181406800Y-108508800D01*
X181170000Y-105760000D02*
X181160000Y-105750000D01*
X179374800Y-120768200D02*
X179374800Y-119583200D01*
X183270000Y-105760000D02*
X182240000Y-105760000D01*
X178638200Y-108508800D02*
X177469800Y-109677200D01*
X182240000Y-105760000D02*
X182240000Y-107675600D01*
X181406800Y-108508800D02*
X178638200Y-108508800D01*
X180270400Y-129971800D02*
X177587400Y-129971800D01*
X180270400Y-128720600D02*
X180644800Y-128346200D01*
X180644800Y-120768200D02*
X180644800Y-122123200D01*
X180270400Y-129971800D02*
X180270400Y-128720600D01*
X181914800Y-126018200D02*
X184317800Y-126018200D01*
X184327800Y-127965200D02*
X184327800Y-126041400D01*
D47*
X179374800Y-126018200D02*
X179374800Y-124790200D01*
X117900000Y-106864600D02*
X117906800Y-106857800D01*
D46*
X117900000Y-106851000D02*
X116408200Y-105359200D01*
X117900000Y-108600000D02*
X117900000Y-106864600D01*
X117900000Y-106864600D02*
X117900000Y-106851000D01*
X105598600Y-105359200D02*
X100836100Y-100596700D01*
X116408200Y-105359200D02*
X105598600Y-105359200D01*
X110600000Y-108600000D02*
X100839400Y-108600000D01*
X98336100Y-100596700D02*
X97459800Y-99720400D01*
X100164900Y-95211900D02*
X100164900Y-93103700D01*
X99402900Y-96583500D02*
X97802700Y-96583500D01*
X97459800Y-99720400D02*
X97459800Y-96926400D01*
X97802700Y-96583500D02*
X97459800Y-96926400D01*
X100164900Y-95821500D02*
X99402900Y-96583500D01*
X97421700Y-113245900D02*
X96761300Y-112585500D01*
X98336100Y-106596700D02*
X96768400Y-106596700D01*
X98158300Y-95211900D02*
X96812100Y-96558100D01*
X98368100Y-113245900D02*
X97421700Y-113245900D01*
X96761300Y-106603800D02*
X96761300Y-96608900D01*
D47*
X96761300Y-96608900D02*
X96812100Y-96558100D01*
D46*
X96761300Y-112585500D02*
X96761300Y-106603800D01*
G04 #@! TA.AperFunction,Conductor*
G36*
X121205054Y-114705233D02*
G01*
X121250852Y-114757999D01*
X121262100Y-114809603D01*
X121262100Y-115766454D01*
X121242415Y-115833493D01*
X121225781Y-115854135D01*
X120836892Y-116243023D01*
X120836855Y-116243062D01*
X120800728Y-116283280D01*
X120800718Y-116283292D01*
X120784076Y-116303943D01*
X120752433Y-116347825D01*
X120692663Y-116478699D01*
X120678921Y-116525500D01*
X120672977Y-116545742D01*
X120672976Y-116545746D01*
X120652500Y-116688162D01*
X120652500Y-118849600D01*
X120652501Y-118849609D01*
X120664052Y-118957050D01*
X120664054Y-118957062D01*
X120675260Y-119008572D01*
X120709383Y-119111097D01*
X120709386Y-119111103D01*
X120787171Y-119232137D01*
X120787179Y-119232148D01*
X120832923Y-119284940D01*
X120832926Y-119284943D01*
X120832930Y-119284947D01*
X120941664Y-119379167D01*
X120941667Y-119379168D01*
X120941668Y-119379169D01*
X121066521Y-119436189D01*
X121072541Y-119438938D01*
X121139580Y-119458623D01*
X121139584Y-119458624D01*
X121282000Y-119479100D01*
X121282003Y-119479100D01*
X121915046Y-119479100D01*
X121915049Y-119479100D01*
X121919227Y-119479083D01*
X121921284Y-119479066D01*
X121925491Y-119479013D01*
X122067548Y-119456178D01*
X122134252Y-119435384D01*
X122134257Y-119435382D01*
X122264125Y-119373448D01*
X122371283Y-119277434D01*
X122416155Y-119223878D01*
X122491922Y-119101568D01*
X123414273Y-116989869D01*
X123445854Y-116890889D01*
X123456221Y-116841256D01*
X123466900Y-116737901D01*
X123466900Y-116649500D01*
X123486585Y-116582461D01*
X123539389Y-116536706D01*
X123590900Y-116525500D01*
X126167765Y-116525500D01*
X126167766Y-116525500D01*
X126344297Y-116497540D01*
X126344300Y-116497539D01*
X126344301Y-116497539D01*
X126514278Y-116442310D01*
X126514281Y-116442309D01*
X126565705Y-116416106D01*
X126634374Y-116403211D01*
X126699114Y-116429487D01*
X126739372Y-116486593D01*
X126746000Y-116526592D01*
X126746000Y-122514700D01*
X126726315Y-122581739D01*
X126673511Y-122627494D01*
X126622000Y-122638700D01*
X124845782Y-122638700D01*
X124801844Y-122629406D01*
X124801501Y-122630360D01*
X124797343Y-122628863D01*
X124797336Y-122628861D01*
X124658829Y-122589914D01*
X124658825Y-122589913D01*
X124658820Y-122589912D01*
X124658815Y-122589911D01*
X124203275Y-122529746D01*
X124203274Y-122529746D01*
X123679668Y-122460588D01*
X123679617Y-122460583D01*
X123614755Y-122452017D01*
X123614748Y-122452016D01*
X123614739Y-122452015D01*
X123598293Y-122450116D01*
X123597439Y-122450031D01*
X123590139Y-122449309D01*
X123573654Y-122447953D01*
X123328821Y-122431855D01*
X123312223Y-122431038D01*
X123304094Y-122430771D01*
X123287549Y-122430500D01*
X123287525Y-122430500D01*
X121902197Y-122430500D01*
X121888942Y-122429789D01*
X121885333Y-122429401D01*
X121885331Y-122429400D01*
X121885323Y-122429400D01*
X121885314Y-122429400D01*
X121230779Y-122429400D01*
X121230773Y-122429401D01*
X121171166Y-122435808D01*
X121036321Y-122486102D01*
X121036319Y-122486103D01*
X120997360Y-122515268D01*
X120931895Y-122539684D01*
X120863622Y-122524832D01*
X120848740Y-122515268D01*
X120809780Y-122486103D01*
X120809778Y-122486102D01*
X120674936Y-122435810D01*
X120674935Y-122435809D01*
X120674933Y-122435809D01*
X120615323Y-122429400D01*
X120615313Y-122429400D01*
X119960779Y-122429400D01*
X119960773Y-122429401D01*
X119901166Y-122435808D01*
X119766321Y-122486102D01*
X119766319Y-122486103D01*
X119727360Y-122515268D01*
X119661895Y-122539684D01*
X119593622Y-122524832D01*
X119578740Y-122515268D01*
X119539780Y-122486103D01*
X119539778Y-122486102D01*
X119404936Y-122435810D01*
X119404935Y-122435809D01*
X119404933Y-122435809D01*
X119345323Y-122429400D01*
X119345313Y-122429400D01*
X118690779Y-122429400D01*
X118690773Y-122429401D01*
X118631166Y-122435808D01*
X118496321Y-122486102D01*
X118496319Y-122486103D01*
X118457360Y-122515268D01*
X118391895Y-122539684D01*
X118323622Y-122524832D01*
X118308740Y-122515268D01*
X118269780Y-122486103D01*
X118269778Y-122486102D01*
X118134936Y-122435810D01*
X118134935Y-122435809D01*
X118134933Y-122435809D01*
X118075323Y-122429400D01*
X118075313Y-122429400D01*
X117420779Y-122429400D01*
X117420773Y-122429401D01*
X117361166Y-122435808D01*
X117226321Y-122486102D01*
X117226314Y-122486106D01*
X117111105Y-122572352D01*
X117111102Y-122572355D01*
X117024856Y-122687564D01*
X117024852Y-122687571D01*
X116974558Y-122822417D01*
X116968151Y-122882016D01*
X116968150Y-122882035D01*
X116968150Y-122962250D01*
X116948465Y-123029289D01*
X116895661Y-123075044D01*
X116844150Y-123086250D01*
X113551714Y-123086250D01*
X113421221Y-123112206D01*
X113421217Y-123112208D01*
X113421215Y-123112208D01*
X113421214Y-123112209D01*
X113377750Y-123130212D01*
X113334284Y-123148216D01*
X113334283Y-123148215D01*
X113298284Y-123163128D01*
X113198122Y-123230054D01*
X113187643Y-123237054D01*
X112822760Y-123601937D01*
X112761437Y-123635422D01*
X112722928Y-123637659D01*
X112690003Y-123634417D01*
X112690001Y-123634417D01*
X112690000Y-123634417D01*
X112669718Y-123636414D01*
X112484067Y-123654699D01*
X112286043Y-123714769D01*
X112175898Y-123773643D01*
X112103550Y-123812315D01*
X112103548Y-123812316D01*
X112103547Y-123812317D01*
X111943589Y-123943589D01*
X111812317Y-124103547D01*
X111812315Y-124103550D01*
X111773643Y-124175898D01*
X111714769Y-124286043D01*
X111714768Y-124286045D01*
X111714768Y-124286046D01*
X111710457Y-124300257D01*
X111654699Y-124484067D01*
X111634417Y-124690000D01*
X111649126Y-124839346D01*
X111636107Y-124907992D01*
X111588042Y-124958702D01*
X111525723Y-124975500D01*
X104683492Y-124975500D01*
X104616453Y-124955815D01*
X104595811Y-124939181D01*
X103326211Y-123669581D01*
X103292726Y-123608258D01*
X103297710Y-123538566D01*
X103339582Y-123482633D01*
X103405046Y-123458216D01*
X103413892Y-123457900D01*
X104528237Y-123457900D01*
X104595276Y-123477585D01*
X104615918Y-123494219D01*
X104945505Y-123823806D01*
X105039594Y-123917895D01*
X105039597Y-123917897D01*
X105039598Y-123917898D01*
X105150220Y-123991813D01*
X105150223Y-123991814D01*
X105150231Y-123991820D01*
X105186237Y-124006734D01*
X105187997Y-124007463D01*
X105214864Y-124022757D01*
X105465138Y-124210081D01*
X105547193Y-124271497D01*
X105569268Y-124295648D01*
X105570607Y-124294590D01*
X105575084Y-124300252D01*
X105575087Y-124300255D01*
X105575088Y-124300256D01*
X105699144Y-124424312D01*
X105848466Y-124516414D01*
X106015003Y-124571599D01*
X106117791Y-124582100D01*
X106917808Y-124582099D01*
X106917816Y-124582098D01*
X106917819Y-124582098D01*
X106974102Y-124576348D01*
X107020597Y-124571599D01*
X107187134Y-124516414D01*
X107336456Y-124424312D01*
X107460512Y-124300256D01*
X107552614Y-124150934D01*
X107607799Y-123984397D01*
X107618300Y-123881609D01*
X107618299Y-122881592D01*
X107607799Y-122778803D01*
X107552614Y-122612266D01*
X107460512Y-122462944D01*
X107384049Y-122386481D01*
X107350564Y-122325158D01*
X107355548Y-122255466D01*
X107384049Y-122211119D01*
X107479312Y-122115856D01*
X107571414Y-121966534D01*
X107626599Y-121799997D01*
X107637100Y-121697209D01*
X107637099Y-120697192D01*
X107626599Y-120594403D01*
X107571414Y-120427866D01*
X107479312Y-120278544D01*
X107355256Y-120154488D01*
X107205934Y-120062386D01*
X107039397Y-120007201D01*
X107039395Y-120007200D01*
X106936610Y-119996700D01*
X106136598Y-119996700D01*
X106136580Y-119996701D01*
X106033803Y-120007200D01*
X106033800Y-120007201D01*
X105867268Y-120062385D01*
X105867263Y-120062387D01*
X105717945Y-120154487D01*
X105593889Y-120278542D01*
X105584556Y-120293673D01*
X105555212Y-120326401D01*
X105398181Y-120448700D01*
X105333195Y-120474363D01*
X105264651Y-120460817D01*
X105214311Y-120412364D01*
X105203329Y-120386868D01*
X105191432Y-120347646D01*
X105093885Y-120165150D01*
X105009550Y-120062387D01*
X104962610Y-120005189D01*
X104812381Y-119881901D01*
X104802650Y-119873915D01*
X104620154Y-119776368D01*
X104422134Y-119716300D01*
X104422132Y-119716299D01*
X104422134Y-119716299D01*
X104216200Y-119696017D01*
X104010267Y-119716299D01*
X103812241Y-119776369D01*
X103678695Y-119847752D01*
X103610293Y-119861994D01*
X103561788Y-119847752D01*
X103443956Y-119784769D01*
X103443955Y-119784768D01*
X103443954Y-119784768D01*
X103245934Y-119724700D01*
X103245932Y-119724699D01*
X103245934Y-119724699D01*
X103040000Y-119704417D01*
X102834067Y-119724699D01*
X102636043Y-119784769D01*
X102483590Y-119866258D01*
X102425136Y-119880900D01*
X100700373Y-119880900D01*
X100696266Y-119881304D01*
X100684127Y-119881900D01*
X100321391Y-119881900D01*
X100251823Y-119888221D01*
X100251816Y-119888223D01*
X100091729Y-119938108D01*
X100091727Y-119938109D01*
X99948232Y-120024854D01*
X99948228Y-120024857D01*
X99829657Y-120143428D01*
X99829654Y-120143432D01*
X99742910Y-120286926D01*
X99693022Y-120447023D01*
X99686700Y-120516601D01*
X99686700Y-121008208D01*
X99693021Y-121077776D01*
X99693024Y-121077786D01*
X99745037Y-121244703D01*
X99746189Y-121314563D01*
X99743883Y-121320959D01*
X99743919Y-121320970D01*
X99692886Y-121484738D01*
X99692885Y-121484745D01*
X99686700Y-121552808D01*
X99686700Y-122011991D01*
X99692885Y-122080054D01*
X99692886Y-122080061D01*
X99743919Y-122243830D01*
X99741191Y-122244679D01*
X99748922Y-122300761D01*
X99743066Y-122320704D01*
X99743919Y-122320970D01*
X99692886Y-122484738D01*
X99692885Y-122484741D01*
X99692885Y-122484743D01*
X99686700Y-122552806D01*
X99686700Y-123011994D01*
X99692885Y-123080057D01*
X99692886Y-123080062D01*
X99692887Y-123080064D01*
X99743919Y-123243832D01*
X99741426Y-123244608D01*
X99749291Y-123301525D01*
X99745038Y-123320095D01*
X99693023Y-123487021D01*
X99686700Y-123556601D01*
X99686700Y-124048208D01*
X99693021Y-124117776D01*
X99693023Y-124117783D01*
X99742908Y-124277870D01*
X99742909Y-124277872D01*
X99829654Y-124421367D01*
X99829657Y-124421371D01*
X99948228Y-124539942D01*
X99948232Y-124539945D01*
X100017966Y-124582100D01*
X100091729Y-124626691D01*
X100251820Y-124676577D01*
X100321399Y-124682900D01*
X100684124Y-124682899D01*
X100696281Y-124683496D01*
X100700378Y-124683899D01*
X100700380Y-124683900D01*
X101795908Y-124683900D01*
X101862947Y-124703585D01*
X101883589Y-124720219D01*
X103705072Y-126541703D01*
X103705073Y-126541704D01*
X103849456Y-126638177D01*
X104009871Y-126704622D01*
X104009876Y-126704624D01*
X104009880Y-126704624D01*
X104009881Y-126704625D01*
X104180176Y-126738500D01*
X104180179Y-126738500D01*
X104180180Y-126738500D01*
X112089426Y-126738500D01*
X112147880Y-126753142D01*
X112295846Y-126832232D01*
X112493866Y-126892300D01*
X112493865Y-126892300D01*
X112512329Y-126894118D01*
X112699800Y-126912583D01*
X112905734Y-126892300D01*
X113103754Y-126832232D01*
X113286250Y-126734685D01*
X113446210Y-126603410D01*
X113577485Y-126443450D01*
X113675032Y-126260954D01*
X113735100Y-126062934D01*
X113755383Y-125857000D01*
X113735100Y-125651066D01*
X113675032Y-125453046D01*
X113605405Y-125322785D01*
X113591164Y-125254383D01*
X113605405Y-125205880D01*
X113665232Y-125093954D01*
X113725300Y-124895934D01*
X113745583Y-124690000D01*
X113742339Y-124657073D01*
X113755356Y-124588431D01*
X113778062Y-124557238D01*
X113861734Y-124473568D01*
X113923057Y-124440083D01*
X113949414Y-124437250D01*
X116844151Y-124437250D01*
X116911190Y-124456935D01*
X116956945Y-124509739D01*
X116968151Y-124561250D01*
X116968151Y-124641476D01*
X116974558Y-124701083D01*
X117024852Y-124835928D01*
X117024856Y-124835935D01*
X117111102Y-124951144D01*
X117111105Y-124951147D01*
X117226314Y-125037393D01*
X117226321Y-125037397D01*
X117271268Y-125054161D01*
X117361167Y-125087691D01*
X117420777Y-125094100D01*
X118075322Y-125094099D01*
X118134933Y-125087691D01*
X118175217Y-125072665D01*
X118244908Y-125067682D01*
X118306231Y-125101167D01*
X118339716Y-125162490D01*
X118342550Y-125188848D01*
X118342550Y-125886554D01*
X118322865Y-125953593D01*
X118297217Y-125982406D01*
X118283589Y-125993590D01*
X118152317Y-126153547D01*
X118054769Y-126336043D01*
X117994699Y-126534067D01*
X117974417Y-126740000D01*
X117994699Y-126945932D01*
X117994700Y-126945934D01*
X118054768Y-127143954D01*
X118152315Y-127326450D01*
X118152317Y-127326452D01*
X118283589Y-127486410D01*
X118380209Y-127565702D01*
X118443550Y-127617685D01*
X118626046Y-127715232D01*
X118824066Y-127775300D01*
X118824065Y-127775300D01*
X118842529Y-127777118D01*
X119030000Y-127795583D01*
X119235934Y-127775300D01*
X119433954Y-127715232D01*
X119616450Y-127617685D01*
X119776410Y-127486410D01*
X119907685Y-127326450D01*
X120005232Y-127143954D01*
X120065300Y-126945934D01*
X120085583Y-126740000D01*
X120078116Y-126664191D01*
X120091135Y-126595547D01*
X120139199Y-126544836D01*
X120207050Y-126528161D01*
X120213657Y-126528633D01*
X120243600Y-126531583D01*
X120449534Y-126511300D01*
X120647554Y-126451232D01*
X120830050Y-126353685D01*
X120990010Y-126222410D01*
X121121285Y-126062450D01*
X121218832Y-125879954D01*
X121278900Y-125681934D01*
X121299183Y-125476000D01*
X121278900Y-125270066D01*
X121274055Y-125254093D01*
X121273432Y-125184226D01*
X121310681Y-125125114D01*
X121373976Y-125095523D01*
X121392706Y-125094099D01*
X121885322Y-125094099D01*
X121893592Y-125093209D01*
X121906846Y-125092500D01*
X123286966Y-125092500D01*
X123294060Y-125092366D01*
X123305900Y-125092145D01*
X123315180Y-125091797D01*
X123332138Y-125090842D01*
X123334070Y-125090734D01*
X123374614Y-125087691D01*
X123577373Y-125072474D01*
X123596214Y-125070705D01*
X123605441Y-125069664D01*
X123624216Y-125067189D01*
X124100629Y-124995277D01*
X124658381Y-124911089D01*
X124676888Y-124909700D01*
X126622000Y-124909700D01*
X126689039Y-124929385D01*
X126734794Y-124982189D01*
X126746000Y-125033700D01*
X126746000Y-133556200D01*
X126726315Y-133623239D01*
X126673511Y-133668994D01*
X126622000Y-133680200D01*
X95975600Y-133680200D01*
X95908561Y-133660515D01*
X95862806Y-133607711D01*
X95851600Y-133556200D01*
X95851600Y-130586465D01*
X97254066Y-130586465D01*
X97254066Y-130837934D01*
X97293401Y-131086290D01*
X97371108Y-131325444D01*
X97485268Y-131549493D01*
X97633063Y-131752917D01*
X97633067Y-131752922D01*
X97810877Y-131930732D01*
X97810882Y-131930736D01*
X97988320Y-132059651D01*
X98014310Y-132078534D01*
X98157074Y-132151276D01*
X98238355Y-132192691D01*
X98238357Y-132192691D01*
X98238360Y-132192693D01*
X98366549Y-132234344D01*
X98477509Y-132270398D01*
X98725866Y-132309734D01*
X98977329Y-132309734D01*
X98977334Y-132309734D01*
X99225690Y-132270398D01*
X99464840Y-132192693D01*
X99688890Y-132078534D01*
X99892324Y-131930731D01*
X100070131Y-131752924D01*
X100217934Y-131549490D01*
X100332093Y-131325440D01*
X100409798Y-131086290D01*
X100449134Y-130837929D01*
X100451600Y-130712200D01*
X100449134Y-130586471D01*
X100409798Y-130338110D01*
X100332093Y-130098960D01*
X100332091Y-130098957D01*
X100332091Y-130098955D01*
X100290676Y-130017674D01*
X100217934Y-129874910D01*
X100199051Y-129848920D01*
X100070136Y-129671482D01*
X100070132Y-129671477D01*
X99892322Y-129493667D01*
X99892317Y-129493663D01*
X99688893Y-129345868D01*
X99688892Y-129345867D01*
X99688890Y-129345866D01*
X99618922Y-129310215D01*
X99464844Y-129231708D01*
X99225690Y-129154001D01*
X98977334Y-129114666D01*
X98977329Y-129114666D01*
X98725871Y-129114666D01*
X98725866Y-129114666D01*
X98477509Y-129154001D01*
X98238355Y-129231708D01*
X98014306Y-129345868D01*
X97810882Y-129493663D01*
X97810877Y-129493667D01*
X97633067Y-129671477D01*
X97633063Y-129671482D01*
X97485268Y-129874906D01*
X97371108Y-130098955D01*
X97293401Y-130338109D01*
X97254066Y-130586465D01*
X95851600Y-130586465D01*
X95851600Y-114830262D01*
X95871285Y-114763223D01*
X95924089Y-114717468D01*
X95975496Y-114706262D01*
X117107202Y-114688913D01*
X117174254Y-114708542D01*
X117220052Y-114761308D01*
X117231300Y-114812912D01*
X117231300Y-116093735D01*
X117257257Y-116224228D01*
X117257259Y-116224236D01*
X117308178Y-116347165D01*
X117308183Y-116347175D01*
X117382104Y-116457805D01*
X117382107Y-116457809D01*
X118201831Y-117277532D01*
X118235316Y-117338855D01*
X118238150Y-117365213D01*
X118238150Y-118989970D01*
X118238151Y-118989976D01*
X118244558Y-119049583D01*
X118294852Y-119184428D01*
X118294856Y-119184435D01*
X118381102Y-119299644D01*
X118381105Y-119299647D01*
X118496314Y-119385893D01*
X118496321Y-119385897D01*
X118541268Y-119402661D01*
X118631167Y-119436191D01*
X118690777Y-119442600D01*
X119345322Y-119442599D01*
X119404933Y-119436191D01*
X119539781Y-119385896D01*
X119654996Y-119299646D01*
X119741246Y-119184431D01*
X119791541Y-119049583D01*
X119797950Y-118989973D01*
X119797949Y-117230528D01*
X119791541Y-117170917D01*
X119741246Y-117036069D01*
X119673460Y-116945518D01*
X119658166Y-116918660D01*
X119616671Y-116818484D01*
X119616670Y-116818481D01*
X119616668Y-116818478D01*
X119616666Y-116818474D01*
X119542745Y-116707844D01*
X119542742Y-116707840D01*
X118618619Y-115783717D01*
X118585134Y-115722394D01*
X118582300Y-115696036D01*
X118582300Y-114811600D01*
X118601985Y-114744561D01*
X118654789Y-114698806D01*
X118706195Y-114687600D01*
X121138001Y-114685604D01*
X121205054Y-114705233D01*
G37*
G04 #@! TD.AperFunction*
G04 #@! TA.AperFunction,Conductor*
G36*
X187823277Y-96797685D02*
G01*
X187843919Y-96814319D01*
X187898281Y-96868681D01*
X187931766Y-96930004D01*
X187934600Y-96956362D01*
X187934600Y-99647638D01*
X187914915Y-99714677D01*
X187898281Y-99735319D01*
X187843919Y-99789681D01*
X187782596Y-99823166D01*
X187756238Y-99826000D01*
X176809962Y-99826000D01*
X176742923Y-99806315D01*
X176722281Y-99789681D01*
X176667919Y-99735319D01*
X176634434Y-99673996D01*
X176631600Y-99647638D01*
X176631600Y-96956362D01*
X176651285Y-96889323D01*
X176667919Y-96868681D01*
X176722281Y-96814319D01*
X176783604Y-96780834D01*
X176809962Y-96778000D01*
X187756238Y-96778000D01*
X187823277Y-96797685D01*
G37*
G04 #@! TD.AperFunction*
G04 #@! TA.AperFunction,Conductor*
G36*
X123295660Y-122936267D02*
G01*
X123540452Y-122952362D01*
X123548553Y-122953163D01*
X123617472Y-122962265D01*
X124091700Y-123024900D01*
X124592640Y-123091062D01*
X124656523Y-123119354D01*
X124669647Y-123132254D01*
X124734045Y-123205717D01*
X124763435Y-123269105D01*
X124764800Y-123287456D01*
X124764800Y-124210798D01*
X124745115Y-124277837D01*
X124734797Y-124291672D01*
X124669226Y-124367883D01*
X124610581Y-124405863D01*
X124593736Y-124409620D01*
X123548769Y-124567351D01*
X123539542Y-124568392D01*
X123296237Y-124586652D01*
X123286957Y-124587000D01*
X121437962Y-124587000D01*
X121370923Y-124567315D01*
X121350281Y-124550681D01*
X121295919Y-124496319D01*
X121262434Y-124434996D01*
X121259600Y-124408638D01*
X121259600Y-123114362D01*
X121279285Y-123047323D01*
X121295919Y-123026681D01*
X121350281Y-122972319D01*
X121411604Y-122938834D01*
X121437962Y-122936000D01*
X123287525Y-122936000D01*
X123295660Y-122936267D01*
G37*
G04 #@! TD.AperFunction*
G04 #@! TA.AperFunction,Conductor*
G36*
X187848677Y-89126885D02*
G01*
X187869319Y-89143519D01*
X187923681Y-89197881D01*
X187957166Y-89259204D01*
X187960000Y-89285562D01*
X187960000Y-91976838D01*
X187940315Y-92043877D01*
X187923681Y-92064519D01*
X187869319Y-92118881D01*
X187807996Y-92152366D01*
X187781638Y-92155200D01*
X176835362Y-92155200D01*
X176768323Y-92135515D01*
X176747681Y-92118881D01*
X176693319Y-92064519D01*
X176659834Y-92003196D01*
X176657000Y-91976838D01*
X176657000Y-89285562D01*
X176676685Y-89218523D01*
X176693319Y-89197881D01*
X176747681Y-89143519D01*
X176809004Y-89110034D01*
X176835362Y-89107200D01*
X187781638Y-89107200D01*
X187848677Y-89126885D01*
G37*
G04 #@! TD.AperFunction*
G04 #@! TA.AperFunction,Conductor*
G36*
X122904439Y-114675285D02*
G01*
X122950194Y-114728089D01*
X122961400Y-114779600D01*
X122961400Y-116737901D01*
X122951033Y-116787534D01*
X122028682Y-118899233D01*
X121983810Y-118952789D01*
X121917106Y-118973583D01*
X121915049Y-118973600D01*
X121282000Y-118973600D01*
X121214961Y-118953915D01*
X121169206Y-118901111D01*
X121158000Y-118849600D01*
X121158000Y-116688162D01*
X121177685Y-116621123D01*
X121194319Y-116600481D01*
X121767600Y-116027200D01*
X121767600Y-114779600D01*
X121787285Y-114712561D01*
X121840089Y-114666806D01*
X121891600Y-114655600D01*
X122837400Y-114655600D01*
X122904439Y-114675285D01*
G37*
G04 #@! TD.AperFunction*
G04 #@! TA.AperFunction,Conductor*
G36*
X140358518Y-110314110D02*
G01*
X141343714Y-111298323D01*
X141347145Y-111306594D01*
X141343722Y-111314869D01*
X141343714Y-111314877D01*
X140358518Y-112299089D01*
X140350243Y-112302512D01*
X140342803Y-112299837D01*
X139355254Y-111485109D01*
X139351053Y-111477201D01*
X139351000Y-111476084D01*
X139351000Y-111137115D01*
X139354427Y-111128842D01*
X139355248Y-111128094D01*
X140342804Y-110313361D01*
X140351366Y-110310740D01*
X140358518Y-110314110D01*
G37*
G04 #@! TD.AperFunction*
G04 #@! TA.AperFunction,Conductor*
G36*
X133951112Y-102384179D02*
G01*
X133957436Y-102390517D01*
X133957425Y-102399472D01*
X133957346Y-102399658D01*
X133401062Y-103675576D01*
X133394614Y-103681790D01*
X133390337Y-103682600D01*
X133055663Y-103682600D01*
X133047390Y-103679173D01*
X133044938Y-103675576D01*
X132488653Y-102399658D01*
X132488488Y-102390705D01*
X132494702Y-102384257D01*
X132494768Y-102384228D01*
X133218512Y-102083464D01*
X133227461Y-102083454D01*
X133951112Y-102384179D01*
G37*
G04 #@! TD.AperFunction*
G04 #@! TA.AperFunction,Conductor*
G36*
X140972779Y-115393577D02*
G01*
X140973163Y-115394408D01*
X141349847Y-116302822D01*
X141349850Y-116311777D01*
X141349844Y-116311791D01*
X140973105Y-117218949D01*
X140966767Y-117225276D01*
X140957813Y-117225267D01*
X140957121Y-117224953D01*
X139262276Y-116388352D01*
X139256374Y-116381618D01*
X139256964Y-116372682D01*
X139259179Y-116369591D01*
X139493822Y-116134948D01*
X139496774Y-116132803D01*
X140957044Y-115388465D01*
X140965969Y-115387762D01*
X140972779Y-115393577D01*
G37*
G04 #@! TD.AperFunction*
G04 #@! TA.AperFunction,Conductor*
G36*
X131411112Y-102384179D02*
G01*
X131417436Y-102390517D01*
X131417425Y-102399472D01*
X131417346Y-102399658D01*
X130861062Y-103675576D01*
X130854614Y-103681790D01*
X130850337Y-103682600D01*
X130515663Y-103682600D01*
X130507390Y-103679173D01*
X130504938Y-103675576D01*
X129948653Y-102399658D01*
X129948488Y-102390705D01*
X129954702Y-102384257D01*
X129954768Y-102384228D01*
X130678512Y-102083464D01*
X130687461Y-102083454D01*
X131411112Y-102384179D01*
G37*
G04 #@! TD.AperFunction*
G04 #@! TA.AperFunction,Conductor*
G36*
X154567545Y-114771217D02*
G01*
X156222251Y-115378524D01*
X156228836Y-115384591D01*
X156229203Y-115393538D01*
X156229033Y-115393974D01*
X155853562Y-116302815D01*
X155847235Y-116309153D01*
X155847215Y-116309162D01*
X154938374Y-116684633D01*
X154929420Y-116684624D01*
X154923093Y-116678286D01*
X154922938Y-116677888D01*
X154315618Y-115023146D01*
X154315985Y-115014200D01*
X154318326Y-115010846D01*
X154555244Y-114773928D01*
X154563516Y-114770502D01*
X154567545Y-114771217D01*
G37*
G04 #@! TD.AperFunction*
G04 #@! TA.AperFunction,Conductor*
G36*
X126331112Y-102384179D02*
G01*
X126337436Y-102390517D01*
X126337425Y-102399472D01*
X126337346Y-102399658D01*
X125781062Y-103675576D01*
X125774614Y-103681790D01*
X125770337Y-103682600D01*
X125435663Y-103682600D01*
X125427390Y-103679173D01*
X125424938Y-103675576D01*
X124868653Y-102399658D01*
X124868488Y-102390705D01*
X124874702Y-102384257D01*
X124874768Y-102384228D01*
X125598512Y-102083464D01*
X125607461Y-102083454D01*
X126331112Y-102384179D01*
G37*
G04 #@! TD.AperFunction*
G04 #@! TA.AperFunction,Conductor*
G36*
X184377716Y-120577627D02*
G01*
X184379259Y-120579534D01*
X184795393Y-121221194D01*
X184797020Y-121230000D01*
X184793449Y-121236216D01*
X184208672Y-121768040D01*
X184200246Y-121771071D01*
X184192928Y-121768040D01*
X183843658Y-121450398D01*
X183608149Y-121236215D01*
X183604335Y-121228114D01*
X183606205Y-121221196D01*
X184022341Y-120579534D01*
X184029717Y-120574457D01*
X184032157Y-120574200D01*
X184369443Y-120574200D01*
X184377716Y-120577627D01*
G37*
G04 #@! TD.AperFunction*
G04 #@! TA.AperFunction,Conductor*
G36*
X118711112Y-102384179D02*
G01*
X118717436Y-102390517D01*
X118717425Y-102399472D01*
X118717346Y-102399658D01*
X118161062Y-103675576D01*
X118154614Y-103681790D01*
X118150337Y-103682600D01*
X117815663Y-103682600D01*
X117807390Y-103679173D01*
X117804938Y-103675576D01*
X117248653Y-102399658D01*
X117248488Y-102390705D01*
X117254702Y-102384257D01*
X117254768Y-102384228D01*
X117978512Y-102083464D01*
X117987461Y-102083454D01*
X118711112Y-102384179D01*
G37*
G04 #@! TD.AperFunction*
G04 #@! TA.AperFunction,Conductor*
G36*
X112949118Y-85194684D02*
G01*
X112951558Y-85196553D01*
X113186590Y-85431585D01*
X113189137Y-85435407D01*
X113637665Y-86525664D01*
X113637644Y-86534618D01*
X113631328Y-86540922D01*
X112906780Y-86841445D01*
X112897825Y-86841450D01*
X112897807Y-86841442D01*
X112176180Y-86541558D01*
X112169855Y-86535219D01*
X112169866Y-86526264D01*
X112170523Y-86524929D01*
X112933145Y-85198990D01*
X112940238Y-85193530D01*
X112949118Y-85194684D01*
G37*
G04 #@! TD.AperFunction*
G04 #@! TA.AperFunction,Conductor*
G36*
X175711242Y-128561438D02*
G01*
X175713315Y-128564248D01*
X176164211Y-129418252D01*
X176165044Y-129427168D01*
X176161886Y-129432233D01*
X175597119Y-129964021D01*
X175588746Y-129967198D01*
X175580580Y-129963524D01*
X175580142Y-129963032D01*
X175579064Y-129961750D01*
X175066510Y-129352026D01*
X175063811Y-129343490D01*
X175066002Y-129337621D01*
X175457889Y-128798446D01*
X175459068Y-128797066D01*
X175694697Y-128561437D01*
X175702969Y-128558011D01*
X175711242Y-128561438D01*
G37*
G04 #@! TD.AperFunction*
G04 #@! TA.AperFunction,Conductor*
G36*
X176207859Y-124331857D02*
G01*
X176780158Y-124875639D01*
X176783795Y-124883822D01*
X176781829Y-124890618D01*
X176378274Y-125494997D01*
X176370830Y-125499974D01*
X176368544Y-125500200D01*
X176031056Y-125500200D01*
X176022783Y-125496773D01*
X176021326Y-125494997D01*
X175946560Y-125383024D01*
X175617769Y-124890616D01*
X175616026Y-124881835D01*
X175619440Y-124875640D01*
X176191741Y-124331856D01*
X176200099Y-124328643D01*
X176207859Y-124331857D01*
G37*
G04 #@! TD.AperFunction*
G04 #@! TA.AperFunction,Conductor*
G36*
X120673167Y-91653399D02*
G01*
X120675643Y-91657051D01*
X121159592Y-92782739D01*
X121159711Y-92791693D01*
X121156991Y-92795757D01*
X120505748Y-93427693D01*
X120497424Y-93430995D01*
X120489452Y-93427693D01*
X119838208Y-92795757D01*
X119834657Y-92787536D01*
X119835606Y-92782741D01*
X120319557Y-91657051D01*
X120325973Y-91650804D01*
X120330306Y-91649972D01*
X120664894Y-91649972D01*
X120673167Y-91653399D01*
G37*
G04 #@! TD.AperFunction*
G04 #@! TA.AperFunction,Conductor*
G36*
X177810339Y-125723721D02*
G01*
X178097485Y-126009913D01*
X178100926Y-126018181D01*
X178097513Y-126026459D01*
X178097485Y-126026487D01*
X177810339Y-126312678D01*
X177802061Y-126316091D01*
X177797580Y-126315191D01*
X177512000Y-126196200D01*
X177505681Y-126189855D01*
X177504800Y-126185400D01*
X177504800Y-125851000D01*
X177508227Y-125842727D01*
X177512000Y-125840200D01*
X177797580Y-125721207D01*
X177806535Y-125721189D01*
X177810339Y-125723721D01*
G37*
G04 #@! TD.AperFunction*
G04 #@! TA.AperFunction,Conductor*
G36*
X98341183Y-91807127D02*
G01*
X98343213Y-91809855D01*
X98741612Y-92550118D01*
X98742515Y-92559027D01*
X98739327Y-92564184D01*
X98172918Y-93097155D01*
X98164544Y-93100329D01*
X98156882Y-93097155D01*
X97590472Y-92564184D01*
X97586795Y-92556019D01*
X97588186Y-92550119D01*
X97986587Y-91809854D01*
X97993526Y-91804194D01*
X97996890Y-91803700D01*
X98332910Y-91803700D01*
X98341183Y-91807127D01*
G37*
G04 #@! TD.AperFunction*
G04 #@! TA.AperFunction,Conductor*
G36*
X117453983Y-92644024D02*
G01*
X117954581Y-93428305D01*
X117956144Y-93437122D01*
X117954581Y-93440895D01*
X117453983Y-94225175D01*
X117446643Y-94230305D01*
X117438280Y-94229018D01*
X116368988Y-93612975D01*
X116363530Y-93605876D01*
X116363129Y-93602837D01*
X116363129Y-93266362D01*
X116366556Y-93258089D01*
X116368985Y-93256226D01*
X117438281Y-92640180D01*
X117447160Y-92639020D01*
X117453983Y-92644024D01*
G37*
G04 #@! TD.AperFunction*
G04 #@! TA.AperFunction,Conductor*
G36*
X118746725Y-93101287D02*
G01*
X118746933Y-93101796D01*
X119153100Y-94164038D01*
X119251779Y-94422113D01*
X119293135Y-94530269D01*
X119292889Y-94539221D01*
X119290480Y-94542721D01*
X119053270Y-94779931D01*
X119044997Y-94783358D01*
X119041692Y-94782882D01*
X117816540Y-94422113D01*
X117809572Y-94416488D01*
X117808279Y-94409126D01*
X117955921Y-93440265D01*
X117960555Y-93432605D01*
X117962795Y-93431311D01*
X118731318Y-93095254D01*
X118740271Y-93095080D01*
X118746725Y-93101287D01*
G37*
G04 #@! TD.AperFunction*
G04 #@! TA.AperFunction,Conductor*
G36*
X141571112Y-87144179D02*
G01*
X141577436Y-87150517D01*
X141577425Y-87159472D01*
X141577346Y-87159658D01*
X141021062Y-88435576D01*
X141014614Y-88441790D01*
X141010337Y-88442600D01*
X140675663Y-88442600D01*
X140667390Y-88439173D01*
X140664938Y-88435576D01*
X140108653Y-87159658D01*
X140108488Y-87150705D01*
X140114702Y-87144257D01*
X140114768Y-87144228D01*
X140838512Y-86843464D01*
X140847461Y-86843454D01*
X141571112Y-87144179D01*
G37*
G04 #@! TD.AperFunction*
G04 #@! TA.AperFunction,Conductor*
G36*
X98339515Y-108599121D02*
G01*
X98865038Y-109125620D01*
X98868457Y-109133895D01*
X98865022Y-109142165D01*
X98863433Y-109143492D01*
X97853711Y-109845061D01*
X97847035Y-109847153D01*
X97513107Y-109847153D01*
X97504834Y-109843726D01*
X97501407Y-109835453D01*
X97501427Y-109834767D01*
X97573454Y-108607699D01*
X97577360Y-108599641D01*
X97585117Y-108596685D01*
X98331239Y-108595706D01*
X98339515Y-108599121D01*
G37*
G04 #@! TD.AperFunction*
G04 #@! TA.AperFunction,Conductor*
G36*
X156244304Y-110387648D02*
G01*
X156244709Y-110387825D01*
X157844217Y-111128459D01*
X157850284Y-111135044D01*
X157851000Y-111139075D01*
X157851000Y-111474124D01*
X157847573Y-111482397D01*
X157844216Y-111484741D01*
X156244733Y-112225363D01*
X156235786Y-112225730D01*
X156229200Y-112219662D01*
X156229012Y-112219233D01*
X155923981Y-111484741D01*
X155851862Y-111311085D01*
X155851854Y-111302135D01*
X156229013Y-110393964D01*
X156235350Y-110387639D01*
X156244304Y-110387648D01*
G37*
G04 #@! TD.AperFunction*
G04 #@! TA.AperFunction,Conductor*
G36*
X100921104Y-112651305D02*
G01*
X101562766Y-113067441D01*
X101567843Y-113074816D01*
X101568100Y-113077256D01*
X101568100Y-113414543D01*
X101564673Y-113422816D01*
X101562766Y-113424359D01*
X100921105Y-113840493D01*
X100912299Y-113842120D01*
X100906084Y-113838549D01*
X100374258Y-113253771D01*
X100371228Y-113245346D01*
X100374259Y-113238028D01*
X100906085Y-112653248D01*
X100914185Y-112649435D01*
X100921104Y-112651305D01*
G37*
G04 #@! TD.AperFunction*
G04 #@! TA.AperFunction,Conductor*
G36*
X100155602Y-111972503D02*
G01*
X100414594Y-112212342D01*
X100783250Y-112553735D01*
X100786991Y-112561870D01*
X100785270Y-112568442D01*
X100376321Y-113234371D01*
X100369072Y-113239627D01*
X100360228Y-113238218D01*
X100358341Y-113236776D01*
X99792034Y-112704835D01*
X99788350Y-112696673D01*
X99788643Y-112693678D01*
X99899099Y-112215606D01*
X99902224Y-112209971D01*
X100139381Y-111972814D01*
X100147653Y-111969388D01*
X100155602Y-111972503D01*
G37*
G04 #@! TD.AperFunction*
G04 #@! TA.AperFunction,Conductor*
G36*
X167181773Y-116559679D02*
G01*
X167189115Y-116564803D01*
X167190693Y-116568633D01*
X167439500Y-117719536D01*
X167437898Y-117728346D01*
X167434249Y-117731939D01*
X166107086Y-118558514D01*
X166098252Y-118559979D01*
X166092628Y-118556856D01*
X165207694Y-117671922D01*
X165204267Y-117663649D01*
X165205989Y-117657538D01*
X166029021Y-116314040D01*
X166036264Y-116308778D01*
X166041512Y-116308727D01*
X167181773Y-116559679D01*
G37*
G04 #@! TD.AperFunction*
G04 #@! TA.AperFunction,Conductor*
G36*
X161836539Y-100183658D02*
G01*
X161839674Y-100189331D01*
X162190637Y-101729470D01*
X162189134Y-101738298D01*
X162185415Y-101742001D01*
X161194681Y-102359087D01*
X161185847Y-102360552D01*
X161182173Y-102359000D01*
X160897189Y-102175950D01*
X160199554Y-101727847D01*
X160194445Y-101720493D01*
X160194508Y-101715240D01*
X160565428Y-100189168D01*
X160570712Y-100181938D01*
X160576797Y-100180231D01*
X161828266Y-100180231D01*
X161836539Y-100183658D01*
G37*
G04 #@! TD.AperFunction*
G04 #@! TA.AperFunction,Conductor*
G36*
X176265066Y-85109328D02*
G01*
X176268725Y-85112913D01*
X176907879Y-86099639D01*
X176909500Y-86108446D01*
X176907879Y-86112361D01*
X176268725Y-87099086D01*
X176261351Y-87104166D01*
X176256229Y-87104115D01*
X174720024Y-86743120D01*
X174712754Y-86737891D01*
X174711000Y-86731730D01*
X174711000Y-85480269D01*
X174714427Y-85471996D01*
X174720022Y-85468879D01*
X176256229Y-85107884D01*
X176265066Y-85109328D01*
G37*
G04 #@! TD.AperFunction*
G04 #@! TA.AperFunction,Conductor*
G36*
X178076687Y-85913822D02*
G01*
X178080364Y-85918134D01*
X178959987Y-87686195D01*
X178960604Y-87695128D01*
X178954723Y-87701881D01*
X178949512Y-87703106D01*
X177700713Y-87703106D01*
X177696260Y-87702225D01*
X176597449Y-87249948D01*
X176591103Y-87243630D01*
X176590645Y-87235940D01*
X176908980Y-86112130D01*
X176914532Y-86105104D01*
X176918308Y-86103779D01*
X178067963Y-85911805D01*
X178076687Y-85913822D01*
G37*
G04 #@! TD.AperFunction*
G04 #@! TA.AperFunction,Conductor*
G36*
X182089278Y-119646627D02*
G01*
X182092244Y-119651648D01*
X182202274Y-120031969D01*
X182201922Y-120039505D01*
X181925687Y-120741531D01*
X181919469Y-120747975D01*
X181910516Y-120748134D01*
X181904072Y-120741916D01*
X181903913Y-120741531D01*
X181627677Y-120039505D01*
X181627325Y-120031969D01*
X181737356Y-119651648D01*
X181742947Y-119644654D01*
X181748595Y-119643200D01*
X182081005Y-119643200D01*
X182089278Y-119646627D01*
G37*
G04 #@! TD.AperFunction*
G04 #@! TA.AperFunction,Conductor*
G36*
X186536817Y-120596027D02*
G01*
X186538274Y-120597803D01*
X186941829Y-121202180D01*
X186943573Y-121210963D01*
X186940158Y-121217159D01*
X186367859Y-121760942D01*
X186359501Y-121764156D01*
X186351741Y-121760942D01*
X185779441Y-121217159D01*
X185775804Y-121208976D01*
X185777769Y-121202183D01*
X186181326Y-120597803D01*
X186188770Y-120592826D01*
X186191056Y-120592600D01*
X186528544Y-120592600D01*
X186536817Y-120596027D01*
G37*
G04 #@! TD.AperFunction*
G04 #@! TA.AperFunction,Conductor*
G36*
X180819278Y-124896627D02*
G01*
X180822244Y-124901648D01*
X180932274Y-125281969D01*
X180931922Y-125289505D01*
X180655687Y-125991531D01*
X180649469Y-125997975D01*
X180640516Y-125998134D01*
X180634072Y-125991916D01*
X180633913Y-125991531D01*
X180357677Y-125289505D01*
X180357325Y-125281969D01*
X180467356Y-124901648D01*
X180472947Y-124894654D01*
X180478595Y-124893200D01*
X180811005Y-124893200D01*
X180819278Y-124896627D01*
G37*
G04 #@! TD.AperFunction*
G04 #@! TA.AperFunction,Conductor*
G36*
X181925528Y-120794483D02*
G01*
X181925687Y-120794868D01*
X182201922Y-121496894D01*
X182202274Y-121504430D01*
X182092244Y-121884752D01*
X182086653Y-121891746D01*
X182081005Y-121893200D01*
X181748595Y-121893200D01*
X181740322Y-121889773D01*
X181737356Y-121884752D01*
X181627325Y-121504430D01*
X181627677Y-121496894D01*
X181903913Y-120794868D01*
X181910131Y-120788424D01*
X181919084Y-120788265D01*
X181925528Y-120794483D01*
G37*
G04 #@! TD.AperFunction*
G04 #@! TA.AperFunction,Conductor*
G36*
X176913276Y-121828664D02*
G01*
X177503709Y-122417643D01*
X177507146Y-122425912D01*
X177503729Y-122434189D01*
X177266626Y-122671292D01*
X177261654Y-122674244D01*
X176777119Y-122816715D01*
X176768215Y-122815761D01*
X176765561Y-122813779D01*
X176625486Y-122674244D01*
X176209700Y-122260059D01*
X176206257Y-122251793D01*
X176209668Y-122243513D01*
X176211907Y-122241756D01*
X176898968Y-121826930D01*
X176907819Y-121825589D01*
X176913276Y-121828664D01*
G37*
G04 #@! TD.AperFunction*
G04 #@! TA.AperFunction,Conductor*
G36*
X185278016Y-105766543D02*
G01*
X185544449Y-106017247D01*
X185844427Y-106299515D01*
X185848104Y-106307680D01*
X185846712Y-106313581D01*
X185448313Y-107053845D01*
X185441374Y-107059506D01*
X185438010Y-107060000D01*
X185101990Y-107060000D01*
X185093717Y-107056573D01*
X185091687Y-107053845D01*
X184693287Y-106313581D01*
X184692384Y-106304672D01*
X184695572Y-106299515D01*
X185261983Y-105766543D01*
X185270356Y-105763370D01*
X185278016Y-105766543D01*
G37*
G04 #@! TD.AperFunction*
G04 #@! TA.AperFunction,Conductor*
G36*
X190139218Y-103397860D02*
G01*
X190145341Y-103404394D01*
X190145665Y-103405384D01*
X190398279Y-104314116D01*
X190398356Y-104320091D01*
X190167730Y-105241392D01*
X190162397Y-105248586D01*
X190154314Y-105250067D01*
X189033455Y-105049028D01*
X189027248Y-105045785D01*
X188144646Y-104163183D01*
X188141219Y-104154910D01*
X188144646Y-104146637D01*
X188148793Y-104143961D01*
X190130269Y-103397569D01*
X190139218Y-103397860D01*
G37*
G04 #@! TD.AperFunction*
G04 #@! TA.AperFunction,Conductor*
G36*
X189476716Y-115691147D02*
G01*
X189479520Y-115694566D01*
X190065113Y-116774663D01*
X190066043Y-116783569D01*
X190063243Y-116788367D01*
X189217078Y-117664541D01*
X189208866Y-117668111D01*
X189204109Y-117667191D01*
X187880396Y-117108019D01*
X187874109Y-117101643D01*
X187873249Y-117097241D01*
X187873249Y-115845674D01*
X187876676Y-115837401D01*
X187883877Y-115834023D01*
X189468165Y-115688491D01*
X189476716Y-115691147D01*
G37*
G04 #@! TD.AperFunction*
G04 #@! TA.AperFunction,Conductor*
G36*
X190247807Y-114227823D02*
G01*
X190250314Y-114231547D01*
X190963538Y-115921694D01*
X190963597Y-115930649D01*
X190960821Y-115934721D01*
X190075061Y-116777054D01*
X190066704Y-116780272D01*
X190061435Y-116778869D01*
X188993300Y-116201596D01*
X188987651Y-116194648D01*
X188987762Y-116187607D01*
X189344658Y-115116172D01*
X189347481Y-115111603D01*
X190231262Y-114227822D01*
X190239534Y-114224396D01*
X190247807Y-114227823D01*
G37*
G04 #@! TD.AperFunction*
G04 #@! TA.AperFunction,Conductor*
G36*
X117360484Y-110025572D02*
G01*
X117893455Y-110591982D01*
X117896629Y-110600356D01*
X117893455Y-110608018D01*
X117360484Y-111174427D01*
X117352319Y-111178104D01*
X117346418Y-111176712D01*
X116606155Y-110778312D01*
X116600494Y-110771373D01*
X116600000Y-110768009D01*
X116600000Y-110431990D01*
X116603427Y-110423717D01*
X116606152Y-110421688D01*
X117346419Y-110023286D01*
X117355327Y-110022384D01*
X117360484Y-110025572D01*
G37*
G04 #@! TD.AperFunction*
G04 #@! TA.AperFunction,Conductor*
G36*
X111153580Y-110023286D02*
G01*
X111893845Y-110421687D01*
X111899506Y-110428626D01*
X111900000Y-110431990D01*
X111900000Y-110768009D01*
X111896573Y-110776282D01*
X111893845Y-110778312D01*
X111153581Y-111176712D01*
X111144672Y-111177615D01*
X111139515Y-111174427D01*
X110757090Y-110768009D01*
X110606543Y-110608016D01*
X110603370Y-110599644D01*
X110606543Y-110591983D01*
X111139515Y-110025571D01*
X111147680Y-110021895D01*
X111153580Y-110023286D01*
G37*
G04 #@! TD.AperFunction*
G04 #@! TA.AperFunction,Conductor*
G36*
X117907901Y-110606122D02*
G01*
X118495713Y-111135958D01*
X118499564Y-111144043D01*
X118497731Y-111150962D01*
X118085252Y-111794613D01*
X118077903Y-111799729D01*
X118075401Y-111800000D01*
X117738116Y-111800000D01*
X117729843Y-111796573D01*
X117728334Y-111794719D01*
X117308547Y-111155047D01*
X117306874Y-111146252D01*
X117310419Y-111140010D01*
X117892162Y-110606192D01*
X117900572Y-110603125D01*
X117907901Y-110606122D01*
G37*
G04 #@! TD.AperFunction*
G04 #@! TA.AperFunction,Conductor*
G36*
X189350857Y-130790504D02*
G01*
X190064228Y-131775336D01*
X190066306Y-131784047D01*
X190064228Y-131789064D01*
X189350857Y-132773895D01*
X189343229Y-132778584D01*
X189335820Y-132777324D01*
X187824338Y-131960516D01*
X187818688Y-131953568D01*
X187818200Y-131950223D01*
X187818200Y-131614176D01*
X187821627Y-131605903D01*
X187824338Y-131603883D01*
X189335821Y-130787074D01*
X189344727Y-130786156D01*
X189350857Y-130790504D01*
G37*
G04 #@! TD.AperFunction*
G04 #@! TA.AperFunction,Conductor*
G36*
X184891663Y-129395907D02*
G01*
X185713218Y-129895519D01*
X185718506Y-129902746D01*
X185717136Y-129911595D01*
X185715412Y-129913789D01*
X185479316Y-130149885D01*
X185477444Y-130151406D01*
X184881682Y-130540802D01*
X184872882Y-130542459D01*
X184866753Y-130539018D01*
X184334741Y-129972635D01*
X184331575Y-129964259D01*
X184334873Y-129956477D01*
X184877190Y-129397754D01*
X184885410Y-129394205D01*
X184891663Y-129395907D01*
G37*
G04 #@! TD.AperFunction*
G04 #@! TA.AperFunction,Conductor*
G36*
X183788284Y-129390772D02*
G01*
X184321255Y-129957182D01*
X184324429Y-129965556D01*
X184321255Y-129973218D01*
X183788284Y-130539627D01*
X183780119Y-130543304D01*
X183774218Y-130541912D01*
X183033955Y-130143512D01*
X183028294Y-130136573D01*
X183027800Y-130133209D01*
X183027800Y-129797190D01*
X183031227Y-129788917D01*
X183033952Y-129786888D01*
X183774219Y-129388486D01*
X183783127Y-129387584D01*
X183788284Y-129390772D01*
G37*
G04 #@! TD.AperFunction*
G04 #@! TA.AperFunction,Conductor*
G36*
X182821422Y-129374160D02*
G01*
X183465014Y-129786747D01*
X183470130Y-129794097D01*
X183470400Y-129796597D01*
X183470400Y-130133882D01*
X183466973Y-130142155D01*
X183465118Y-130143665D01*
X182825389Y-130563343D01*
X182816592Y-130565015D01*
X182810349Y-130561469D01*
X182276593Y-129979641D01*
X182273526Y-129971228D01*
X182276525Y-129963897D01*
X182806420Y-129376173D01*
X182814503Y-129372326D01*
X182821422Y-129374160D01*
G37*
G04 #@! TD.AperFunction*
G04 #@! TA.AperFunction,Conductor*
G36*
X114314003Y-107313303D02*
G01*
X114315319Y-107314872D01*
X114813257Y-108027018D01*
X114815189Y-108035761D01*
X114811917Y-108042020D01*
X114257494Y-108593164D01*
X114249210Y-108596566D01*
X114241717Y-108593822D01*
X113876595Y-108286888D01*
X113631362Y-108080737D01*
X113627235Y-108072790D01*
X113629920Y-108064270D01*
X114059517Y-107551305D01*
X114060193Y-107550567D01*
X114297458Y-107313302D01*
X114305730Y-107309876D01*
X114314003Y-107313303D01*
G37*
G04 #@! TD.AperFunction*
G04 #@! TA.AperFunction,Conductor*
G36*
X101138456Y-105897319D02*
G01*
X101138497Y-105897336D01*
X102353016Y-106418659D01*
X102359266Y-106425070D01*
X102360100Y-106429409D01*
X102360100Y-106763990D01*
X102356673Y-106772263D01*
X102353015Y-106774741D01*
X101138581Y-107296027D01*
X101129627Y-107296142D01*
X101123215Y-107289891D01*
X101123162Y-107289766D01*
X100836966Y-106601190D01*
X100836955Y-106592236D01*
X100836966Y-106592210D01*
X100909100Y-106418658D01*
X101123162Y-105903632D01*
X101129502Y-105897308D01*
X101138456Y-105897319D01*
G37*
G04 #@! TD.AperFunction*
G04 #@! TA.AperFunction,Conductor*
G36*
X101284756Y-122447693D02*
G01*
X101729395Y-122604644D01*
X101736055Y-122610629D01*
X101737200Y-122615677D01*
X101737200Y-122949122D01*
X101733773Y-122957395D01*
X101729394Y-122960155D01*
X101284764Y-123117104D01*
X101275822Y-123116626D01*
X101274271Y-123115733D01*
X100800347Y-122792062D01*
X100795448Y-122784566D01*
X100797284Y-122775801D01*
X100800347Y-122772738D01*
X101274272Y-122449065D01*
X101283036Y-122447230D01*
X101284756Y-122447693D01*
G37*
G04 #@! TD.AperFunction*
G04 #@! TA.AperFunction,Conductor*
G36*
X105998397Y-122763595D02*
G01*
X106511466Y-123373931D01*
X106514166Y-123382469D01*
X106510621Y-123389892D01*
X105949937Y-123929275D01*
X105941599Y-123932541D01*
X105934815Y-123930210D01*
X105249504Y-123417271D01*
X105244934Y-123409570D01*
X105247148Y-123400893D01*
X105248235Y-123399638D01*
X105485742Y-123162131D01*
X105486654Y-123161311D01*
X105982101Y-122762013D01*
X105990691Y-122759491D01*
X105998397Y-122763595D01*
G37*
G04 #@! TD.AperFunction*
G04 #@! TA.AperFunction,Conductor*
G36*
X101284756Y-121447693D02*
G01*
X101729395Y-121604644D01*
X101736055Y-121610629D01*
X101737200Y-121615677D01*
X101737200Y-121949122D01*
X101733773Y-121957395D01*
X101729394Y-121960155D01*
X101284764Y-122117104D01*
X101275822Y-122116626D01*
X101274271Y-122115733D01*
X100800347Y-121792062D01*
X100795448Y-121784566D01*
X100797284Y-121775801D01*
X100800347Y-121772738D01*
X101274272Y-121449065D01*
X101283036Y-121447230D01*
X101284756Y-121447693D01*
G37*
G04 #@! TD.AperFunction*
G04 #@! TA.AperFunction,Conductor*
G36*
X105962043Y-120662729D02*
G01*
X106529139Y-121188915D01*
X106532873Y-121197054D01*
X106530137Y-121205021D01*
X106016961Y-121815485D01*
X106009014Y-121819612D01*
X106000963Y-121817300D01*
X105507562Y-121445462D01*
X105506331Y-121444391D01*
X105268792Y-121206852D01*
X105265365Y-121198579D01*
X105268792Y-121190306D01*
X105269865Y-121189357D01*
X105946896Y-120662074D01*
X105955529Y-120659695D01*
X105962043Y-120662729D01*
G37*
G04 #@! TD.AperFunction*
G04 #@! TA.AperFunction,Conductor*
G36*
X185794776Y-123279746D02*
G01*
X186176371Y-123659204D01*
X186352258Y-123834106D01*
X186355708Y-123842369D01*
X186352304Y-123850652D01*
X186352061Y-123850890D01*
X185779544Y-124394066D01*
X185771183Y-124397274D01*
X185765314Y-124395515D01*
X185052823Y-123952633D01*
X185047606Y-123945355D01*
X185047300Y-123942696D01*
X185047300Y-123606846D01*
X185050727Y-123598573D01*
X185054300Y-123596132D01*
X185781833Y-123277326D01*
X185790785Y-123277145D01*
X185794776Y-123279746D01*
G37*
G04 #@! TD.AperFunction*
G04 #@! TA.AperFunction,Conductor*
G36*
X184754380Y-123197486D02*
G01*
X185494645Y-123595887D01*
X185500306Y-123602826D01*
X185500800Y-123606190D01*
X185500800Y-123942209D01*
X185497373Y-123950482D01*
X185494645Y-123952512D01*
X184754381Y-124350912D01*
X184745472Y-124351815D01*
X184740315Y-124348627D01*
X184357890Y-123942209D01*
X184207343Y-123782216D01*
X184204170Y-123773844D01*
X184207343Y-123766183D01*
X184740315Y-123199771D01*
X184748480Y-123196095D01*
X184754380Y-123197486D01*
G37*
G04 #@! TD.AperFunction*
G04 #@! TA.AperFunction,Conductor*
G36*
X186535871Y-124738227D02*
G01*
X186538044Y-124741230D01*
X186911433Y-125481326D01*
X186912100Y-125490256D01*
X186909005Y-125495117D01*
X186342418Y-126028255D01*
X186334044Y-126031429D01*
X186326382Y-126028255D01*
X185760148Y-125495450D01*
X185756471Y-125487285D01*
X185758009Y-125481121D01*
X186181431Y-124740692D01*
X186188513Y-124735211D01*
X186191588Y-124734800D01*
X186527598Y-124734800D01*
X186535871Y-124738227D01*
G37*
G04 #@! TD.AperFunction*
G04 #@! TA.AperFunction,Conductor*
G36*
X186367859Y-123849257D02*
G01*
X186940158Y-124393039D01*
X186943795Y-124401222D01*
X186941829Y-124408018D01*
X186538274Y-125012397D01*
X186530830Y-125017374D01*
X186528544Y-125017600D01*
X186191056Y-125017600D01*
X186182783Y-125014173D01*
X186181326Y-125012397D01*
X186106560Y-124900424D01*
X185777769Y-124408016D01*
X185776026Y-124399235D01*
X185779440Y-124393040D01*
X186351741Y-123849256D01*
X186360099Y-123846043D01*
X186367859Y-123849257D01*
G37*
G04 #@! TD.AperFunction*
G04 #@! TA.AperFunction,Conductor*
G36*
X177817171Y-120063832D02*
G01*
X177819004Y-120066887D01*
X178101096Y-120758100D01*
X178101049Y-120767055D01*
X178094710Y-120773343D01*
X177813738Y-120888791D01*
X177804783Y-120888766D01*
X177799504Y-120884381D01*
X177722635Y-120767055D01*
X177474137Y-120387768D01*
X177472471Y-120378971D01*
X177475650Y-120373086D01*
X177716039Y-120132697D01*
X177716813Y-120131991D01*
X177800696Y-120062307D01*
X177809248Y-120059658D01*
X177817171Y-120063832D01*
G37*
G04 #@! TD.AperFunction*
G04 #@! TA.AperFunction,Conductor*
G36*
X178622014Y-105157349D02*
G01*
X178836198Y-105392858D01*
X179153840Y-105742128D01*
X179156871Y-105750554D01*
X179153840Y-105757872D01*
X178622016Y-106342649D01*
X178613914Y-106346464D01*
X178606994Y-106344593D01*
X177965334Y-105928459D01*
X177960257Y-105921083D01*
X177960000Y-105918643D01*
X177960000Y-105581356D01*
X177963427Y-105573083D01*
X177965329Y-105571543D01*
X178606995Y-105155405D01*
X178615800Y-105153779D01*
X178622014Y-105157349D01*
G37*
G04 #@! TD.AperFunction*
G04 #@! TA.AperFunction,Conductor*
G36*
X181751073Y-105223167D02*
G01*
X182394767Y-105859983D01*
X182398238Y-105868237D01*
X182394855Y-105876529D01*
X182386601Y-105880000D01*
X182065000Y-105880000D01*
X181695642Y-106365132D01*
X181687904Y-106369639D01*
X181679246Y-106367354D01*
X181677370Y-106365566D01*
X181167204Y-105757585D01*
X181164512Y-105749044D01*
X181168267Y-105741434D01*
X181734946Y-105222852D01*
X181743362Y-105219795D01*
X181751073Y-105223167D01*
G37*
G04 #@! TD.AperFunction*
G04 #@! TA.AperFunction,Conductor*
G36*
X179549278Y-119646627D02*
G01*
X179552244Y-119651648D01*
X179662274Y-120031969D01*
X179661922Y-120039505D01*
X179385687Y-120741531D01*
X179379469Y-120747975D01*
X179370516Y-120748134D01*
X179364072Y-120741916D01*
X179363913Y-120741531D01*
X179087677Y-120039505D01*
X179087325Y-120031969D01*
X179197356Y-119651648D01*
X179202947Y-119644654D01*
X179208595Y-119643200D01*
X179541005Y-119643200D01*
X179549278Y-119646627D01*
G37*
G04 #@! TD.AperFunction*
G04 #@! TA.AperFunction,Conductor*
G36*
X182690912Y-105255881D02*
G01*
X183261318Y-105751457D01*
X183265315Y-105759470D01*
X183262607Y-105767810D01*
X182752900Y-106375243D01*
X182744957Y-106379377D01*
X182736416Y-106376685D01*
X182734436Y-106374549D01*
X182415001Y-105930000D01*
X182415000Y-105930000D01*
X182091379Y-105930000D01*
X182083106Y-105926573D01*
X182079679Y-105918300D01*
X182082706Y-105910447D01*
X182211872Y-105767810D01*
X182674567Y-105256858D01*
X182682659Y-105253027D01*
X182690912Y-105255881D01*
G37*
G04 #@! TD.AperFunction*
G04 #@! TA.AperFunction,Conductor*
G36*
X179732414Y-129379149D02*
G01*
X179946598Y-129614658D01*
X180264240Y-129963928D01*
X180267271Y-129972354D01*
X180264240Y-129979672D01*
X179732416Y-130564449D01*
X179724314Y-130568264D01*
X179717394Y-130566393D01*
X179075734Y-130150259D01*
X179070657Y-130142883D01*
X179070400Y-130140443D01*
X179070400Y-129803156D01*
X179073827Y-129794883D01*
X179075729Y-129793343D01*
X179717395Y-129377205D01*
X179726200Y-129375579D01*
X179732414Y-129379149D01*
G37*
G04 #@! TD.AperFunction*
G04 #@! TA.AperFunction,Conductor*
G36*
X178140404Y-129377205D02*
G01*
X178782066Y-129793341D01*
X178787143Y-129800716D01*
X178787400Y-129803156D01*
X178787400Y-130140443D01*
X178783973Y-130148716D01*
X178782066Y-130150259D01*
X178140405Y-130566393D01*
X178131599Y-130568020D01*
X178125384Y-130564449D01*
X177593558Y-129979671D01*
X177590528Y-129971246D01*
X177593559Y-129963928D01*
X178125385Y-129379148D01*
X178133485Y-129375335D01*
X178140404Y-129377205D01*
G37*
G04 #@! TD.AperFunction*
G04 #@! TA.AperFunction,Conductor*
G36*
X180655528Y-120794483D02*
G01*
X180655687Y-120794868D01*
X180931922Y-121496894D01*
X180932274Y-121504430D01*
X180822244Y-121884752D01*
X180816653Y-121891746D01*
X180811005Y-121893200D01*
X180478595Y-121893200D01*
X180470322Y-121889773D01*
X180467356Y-121884752D01*
X180357325Y-121504430D01*
X180357677Y-121496894D01*
X180633913Y-120794868D01*
X180640131Y-120788424D01*
X180649084Y-120788265D01*
X180655528Y-120794483D01*
G37*
G04 #@! TD.AperFunction*
G04 #@! TA.AperFunction,Conductor*
G36*
X180189528Y-128571304D02*
G01*
X180192013Y-128573199D01*
X180427892Y-128809078D01*
X180429255Y-128810715D01*
X180792121Y-129337681D01*
X180793991Y-129346439D01*
X180791441Y-129351846D01*
X180277657Y-129963032D01*
X180269710Y-129967159D01*
X180261172Y-129964459D01*
X180260693Y-129964032D01*
X179696128Y-129432436D01*
X179692455Y-129424271D01*
X179693981Y-129418134D01*
X180173574Y-128575682D01*
X180180643Y-128570189D01*
X180189528Y-128571304D01*
G37*
G04 #@! TD.AperFunction*
G04 #@! TA.AperFunction,Conductor*
G36*
X182222019Y-125721208D02*
G01*
X182507600Y-125840200D01*
X182513919Y-125846545D01*
X182514800Y-125851000D01*
X182514800Y-126185400D01*
X182511373Y-126193673D01*
X182507600Y-126196200D01*
X182222019Y-126315191D01*
X182213064Y-126315210D01*
X182209260Y-126312678D01*
X182081557Y-126185400D01*
X181922113Y-126026485D01*
X181918673Y-126018219D01*
X181922085Y-126009941D01*
X182209261Y-125723720D01*
X182217538Y-125720308D01*
X182222019Y-125721208D01*
G37*
G04 #@! TD.AperFunction*
G04 #@! TA.AperFunction,Conductor*
G36*
X183801350Y-125434673D02*
G01*
X184328325Y-126026850D01*
X184331265Y-126035308D01*
X184328154Y-126042594D01*
X183791463Y-126619950D01*
X183783321Y-126623676D01*
X183776399Y-126621715D01*
X183139605Y-126196674D01*
X183134626Y-126189231D01*
X183134400Y-126186943D01*
X183134400Y-125849657D01*
X183137827Y-125841384D01*
X183139859Y-125839761D01*
X183786376Y-125432550D01*
X183795201Y-125431042D01*
X183801350Y-125434673D01*
G37*
G04 #@! TD.AperFunction*
G04 #@! TA.AperFunction,Conductor*
G36*
X184342416Y-126041343D02*
G01*
X184859224Y-126527640D01*
X184908782Y-126574272D01*
X184912459Y-126582437D01*
X184911029Y-126588407D01*
X184669005Y-127030914D01*
X184506206Y-127328574D01*
X184506129Y-127328714D01*
X184499153Y-127334328D01*
X184495864Y-127334800D01*
X184159844Y-127334800D01*
X184151571Y-127331373D01*
X184149504Y-127328574D01*
X183757603Y-126588353D01*
X183756760Y-126579438D01*
X183759922Y-126574361D01*
X184326383Y-126041343D01*
X184334756Y-126038170D01*
X184342416Y-126041343D01*
G37*
G04 #@! TD.AperFunction*
G04 #@! TA.AperFunction,Conductor*
G36*
X184504716Y-126768627D02*
G01*
X184506259Y-126770534D01*
X184922393Y-127412194D01*
X184924020Y-127421000D01*
X184920449Y-127427216D01*
X184335672Y-127959040D01*
X184327246Y-127962071D01*
X184319928Y-127959040D01*
X183970658Y-127641398D01*
X183735149Y-127427215D01*
X183731335Y-127419114D01*
X183733205Y-127412196D01*
X184149341Y-126770534D01*
X184156717Y-126765457D01*
X184159157Y-126765200D01*
X184496443Y-126765200D01*
X184504716Y-126768627D01*
G37*
G04 #@! TD.AperFunction*
G04 #@! TA.AperFunction,Conductor*
G36*
X179500273Y-124896627D02*
G01*
X179502800Y-124900400D01*
X179661559Y-125281423D01*
X179661646Y-125290207D01*
X179385687Y-125991531D01*
X179379469Y-125997975D01*
X179370516Y-125998134D01*
X179364072Y-125991916D01*
X179363913Y-125991531D01*
X179087953Y-125290207D01*
X179088040Y-125281423D01*
X179246800Y-124900400D01*
X179253145Y-124894081D01*
X179257600Y-124893200D01*
X179492000Y-124893200D01*
X179500273Y-124896627D01*
G37*
G04 #@! TD.AperFunction*
G04 #@! TA.AperFunction,Conductor*
G36*
X118076916Y-107403427D02*
G01*
X118078459Y-107405334D01*
X118494593Y-108046994D01*
X118496220Y-108055800D01*
X118492649Y-108062016D01*
X117907872Y-108593840D01*
X117899446Y-108596871D01*
X117892128Y-108593840D01*
X117542858Y-108276198D01*
X117307349Y-108062015D01*
X117303535Y-108053914D01*
X117305405Y-108046996D01*
X117721541Y-107405334D01*
X117728917Y-107400257D01*
X117731357Y-107400000D01*
X118068643Y-107400000D01*
X118076916Y-107403427D01*
G37*
G04 #@! TD.AperFunction*
G04 #@! TA.AperFunction,Conductor*
G36*
X101538109Y-100309622D02*
G01*
X101544434Y-100315962D01*
X101544485Y-100316087D01*
X102034614Y-101543426D01*
X102034499Y-101552380D01*
X102032021Y-101556038D01*
X101795438Y-101792621D01*
X101787165Y-101796048D01*
X101782826Y-101795214D01*
X100555487Y-101305085D01*
X100549075Y-101298834D01*
X100548960Y-101289880D01*
X100549011Y-101289755D01*
X100833537Y-100600488D01*
X100839861Y-100594148D01*
X101529155Y-100309611D01*
X101538109Y-100309622D01*
G37*
G04 #@! TD.AperFunction*
G04 #@! TA.AperFunction,Conductor*
G36*
X101138445Y-107897346D02*
G01*
X101138530Y-107897382D01*
X102352385Y-108421949D01*
X102358620Y-108428377D01*
X102359444Y-108432689D01*
X102359444Y-108767272D01*
X102356017Y-108775545D01*
X102352337Y-108778033D01*
X101138568Y-109296059D01*
X101129613Y-109296155D01*
X101123214Y-109289891D01*
X101123171Y-109289788D01*
X100909207Y-108775000D01*
X100836965Y-108601189D01*
X100836955Y-108592236D01*
X100836966Y-108592210D01*
X101123151Y-107903659D01*
X101129491Y-107897335D01*
X101138445Y-107897346D01*
G37*
G04 #@! TD.AperFunction*
G04 #@! TA.AperFunction,Conductor*
G36*
X110060484Y-108025572D02*
G01*
X110593455Y-108591982D01*
X110596629Y-108600356D01*
X110593455Y-108608018D01*
X110060484Y-109174427D01*
X110052319Y-109178104D01*
X110046418Y-109176712D01*
X109306155Y-108778312D01*
X109300494Y-108771373D01*
X109300000Y-108768009D01*
X109300000Y-108431990D01*
X109303427Y-108423717D01*
X109306152Y-108421688D01*
X110046419Y-108023286D01*
X110055327Y-108022384D01*
X110060484Y-108025572D01*
G37*
G04 #@! TD.AperFunction*
G04 #@! TA.AperFunction,Conductor*
G36*
X97637128Y-99436746D02*
G01*
X98617486Y-99888000D01*
X98623567Y-99894571D01*
X98623405Y-99903099D01*
X98337956Y-100593210D01*
X98331627Y-100599545D01*
X98331608Y-100599553D01*
X97644762Y-100883079D01*
X97635808Y-100883068D01*
X97629483Y-100876728D01*
X97628919Y-100874985D01*
X97288248Y-99450096D01*
X97289657Y-99441252D01*
X97296906Y-99435996D01*
X97299627Y-99435675D01*
X97632237Y-99435675D01*
X97637128Y-99436746D01*
G37*
G04 #@! TD.AperFunction*
G04 #@! TA.AperFunction,Conductor*
G36*
X100172916Y-93110243D02*
G01*
X100439349Y-93360947D01*
X100739327Y-93643215D01*
X100743004Y-93651380D01*
X100741612Y-93657281D01*
X100343213Y-94397545D01*
X100336274Y-94403206D01*
X100332910Y-94403700D01*
X99996890Y-94403700D01*
X99988617Y-94400273D01*
X99986587Y-94397545D01*
X99588187Y-93657281D01*
X99587284Y-93648372D01*
X99590472Y-93643215D01*
X100156883Y-93110243D01*
X100165256Y-93107070D01*
X100172916Y-93110243D01*
G37*
G04 #@! TD.AperFunction*
G04 #@! TA.AperFunction,Conductor*
G36*
X100341183Y-93915327D02*
G01*
X100343213Y-93918055D01*
X100741612Y-94658318D01*
X100742515Y-94667227D01*
X100739327Y-94672384D01*
X100172918Y-95205355D01*
X100164544Y-95208529D01*
X100156882Y-95205355D01*
X99590472Y-94672384D01*
X99586795Y-94664219D01*
X99588186Y-94658319D01*
X99986587Y-93918054D01*
X99993526Y-93912394D01*
X99996890Y-93911900D01*
X100332910Y-93911900D01*
X100341183Y-93915327D01*
G37*
G04 #@! TD.AperFunction*
G04 #@! TA.AperFunction,Conductor*
G36*
X99578571Y-95084784D02*
G01*
X100160025Y-95209991D01*
X100167390Y-95215082D01*
X100168093Y-95216333D01*
X100500369Y-95903225D01*
X100500887Y-95912165D01*
X100496858Y-95917680D01*
X99782097Y-96453817D01*
X99773422Y-96456040D01*
X99766803Y-96452730D01*
X99530085Y-96216012D01*
X99526658Y-96207739D01*
X99526664Y-96207372D01*
X99564424Y-95095824D01*
X99568130Y-95087675D01*
X99576514Y-95084531D01*
X99578571Y-95084784D01*
G37*
G04 #@! TD.AperFunction*
G04 #@! TA.AperFunction,Conductor*
G36*
X98048984Y-105903508D02*
G01*
X98049037Y-105903633D01*
X98335233Y-106592210D01*
X98335244Y-106601164D01*
X98335233Y-106601190D01*
X98049037Y-107289766D01*
X98042697Y-107296091D01*
X98033743Y-107296080D01*
X98033618Y-107296027D01*
X96819185Y-106774741D01*
X96812934Y-106768329D01*
X96812100Y-106763990D01*
X96812100Y-106429409D01*
X96815527Y-106421136D01*
X96819181Y-106418660D01*
X98033620Y-105897371D01*
X98042572Y-105897257D01*
X98048984Y-105903508D01*
G37*
G04 #@! TD.AperFunction*
G04 #@! TA.AperFunction,Conductor*
G36*
X97575259Y-94966489D02*
G01*
X98102792Y-95185155D01*
X98159894Y-95208825D01*
X98166225Y-95215158D01*
X98166868Y-95217247D01*
X98309592Y-95902329D01*
X98307925Y-95911127D01*
X98302522Y-95915563D01*
X97302085Y-96319880D01*
X97293131Y-96319802D01*
X97289428Y-96317305D01*
X97053204Y-96081081D01*
X97049777Y-96072808D01*
X97050867Y-96067876D01*
X97121678Y-95915563D01*
X97560172Y-94972364D01*
X97566767Y-94966308D01*
X97575259Y-94966489D01*
G37*
G04 #@! TD.AperFunction*
G04 #@! TA.AperFunction,Conductor*
G36*
X97848127Y-112627217D02*
G01*
X98328405Y-113198546D01*
X98361420Y-113237819D01*
X98364120Y-113246357D01*
X98360162Y-113254159D01*
X97788541Y-113753585D01*
X97780056Y-113756448D01*
X97773211Y-113753642D01*
X97128192Y-113198546D01*
X97124157Y-113190552D01*
X97126956Y-113182046D01*
X97127538Y-113181418D01*
X97365347Y-112943609D01*
X97367022Y-112942221D01*
X97832584Y-112625075D01*
X97841351Y-112623251D01*
X97848127Y-112627217D01*
G37*
G04 #@! TD.AperFunction*
M02*
