G04 #@! TF.GenerationSoftware,KiCad,Pcbnew,8.0.3*
G04 #@! TF.CreationDate,2024-06-12T20:13:02+02:00*
G04 #@! TF.ProjectId,Li Ion Doctor,4c692049-6f6e-4204-946f-63746f722e6b,1*
G04 #@! TF.SameCoordinates,Original*
G04 #@! TF.FileFunction,Legend,Bot*
G04 #@! TF.FilePolarity,Positive*
%FSLAX46Y46*%
G04 Gerber Fmt 4.6, Leading zero omitted, Abs format (unit mm)*
G04 Created by KiCad (PCBNEW 8.0.3) date 2024-06-12 20:13:02*
%MOMM*%
%LPD*%
G01*
G04 APERTURE LIST*
G04 Aperture macros list*
%AMRoundRect*
0 Rectangle with rounded corners*
0 $1 Rounding radius*
0 $2 $3 $4 $5 $6 $7 $8 $9 X,Y pos of 4 corners*
0 Add a 4 corners polygon primitive as box body*
4,1,4,$2,$3,$4,$5,$6,$7,$8,$9,$2,$3,0*
0 Add four circle primitives for the rounded corners*
1,1,$1+$1,$2,$3*
1,1,$1+$1,$4,$5*
1,1,$1+$1,$6,$7*
1,1,$1+$1,$8,$9*
0 Add four rect primitives between the rounded corners*
20,1,$1+$1,$2,$3,$4,$5,0*
20,1,$1+$1,$4,$5,$6,$7,0*
20,1,$1+$1,$6,$7,$8,$9,0*
20,1,$1+$1,$8,$9,$2,$3,0*%
G04 Aperture macros list end*
%ADD10C,0.300000*%
%ADD11C,0.150000*%
%ADD12C,0.120000*%
%ADD13C,0.152400*%
%ADD14C,2.400000*%
%ADD15R,2.000000X2.000000*%
%ADD16C,2.000000*%
%ADD17R,3.200000X2.000000*%
%ADD18O,1.600000X2.000000*%
%ADD19C,1.524000*%
%ADD20R,2.032000X1.270000*%
%ADD21RoundRect,0.250000X-0.450000X0.350000X-0.450000X-0.350000X0.450000X-0.350000X0.450000X0.350000X0*%
%ADD22RoundRect,0.249999X-1.425001X0.450001X-1.425001X-0.450001X1.425001X-0.450001X1.425001X0.450001X0*%
%ADD23C,2.500000*%
%ADD24RoundRect,0.250000X-0.475000X0.337500X-0.475000X-0.337500X0.475000X-0.337500X0.475000X0.337500X0*%
%ADD25RoundRect,0.250000X0.475000X-0.337500X0.475000X0.337500X-0.475000X0.337500X-0.475000X-0.337500X0*%
%ADD26RoundRect,0.250000X0.337500X0.475000X-0.337500X0.475000X-0.337500X-0.475000X0.337500X-0.475000X0*%
%ADD27RoundRect,0.250000X0.450000X-0.350000X0.450000X0.350000X-0.450000X0.350000X-0.450000X-0.350000X0*%
%ADD28RoundRect,0.250000X-0.350000X-0.450000X0.350000X-0.450000X0.350000X0.450000X-0.350000X0.450000X0*%
%ADD29RoundRect,0.250000X-1.000000X-1.000000X1.000000X-1.000000X1.000000X1.000000X-1.000000X1.000000X0*%
%ADD30R,2.000000X1.905000*%
%ADD31O,2.000000X1.905000*%
%ADD32RoundRect,0.250000X0.350000X0.450000X-0.350000X0.450000X-0.350000X-0.450000X0.350000X-0.450000X0*%
%ADD33RoundRect,0.150000X-0.150000X0.675000X-0.150000X-0.675000X0.150000X-0.675000X0.150000X0.675000X0*%
%ADD34R,0.558800X1.663700*%
%ADD35R,3.403600X2.514600*%
%ADD36R,1.600000X1.600000*%
%ADD37O,1.600000X1.600000*%
%ADD38RoundRect,0.175000X0.425000X-0.175000X0.425000X0.175000X-0.425000X0.175000X-0.425000X-0.175000X0*%
%ADD39RoundRect,0.190000X-0.410000X0.190000X-0.410000X-0.190000X0.410000X-0.190000X0.410000X0.190000X0*%
%ADD40RoundRect,0.200000X-0.400000X0.200000X-0.400000X-0.200000X0.400000X-0.200000X0.400000X0.200000X0*%
%ADD41RoundRect,0.175000X-0.425000X0.175000X-0.425000X-0.175000X0.425000X-0.175000X0.425000X0.175000X0*%
%ADD42RoundRect,0.190000X0.410000X-0.190000X0.410000X0.190000X-0.410000X0.190000X-0.410000X-0.190000X0*%
%ADD43RoundRect,0.200000X0.400000X-0.200000X0.400000X0.200000X-0.400000X0.200000X-0.400000X-0.200000X0*%
%ADD44O,1.700000X1.100000*%
%ADD45C,1.100000*%
G04 APERTURE END LIST*
D10*
X122776082Y-98396971D02*
X122776082Y-97325542D01*
X122776082Y-97325542D02*
X122704653Y-97111257D01*
X122704653Y-97111257D02*
X122561796Y-96968400D01*
X122561796Y-96968400D02*
X122347510Y-96896971D01*
X122347510Y-96896971D02*
X122204653Y-96896971D01*
X124204653Y-96896971D02*
X123490367Y-96896971D01*
X123490367Y-96896971D02*
X123490367Y-98396971D01*
X125561796Y-97039828D02*
X125490368Y-96968400D01*
X125490368Y-96968400D02*
X125276082Y-96896971D01*
X125276082Y-96896971D02*
X125133225Y-96896971D01*
X125133225Y-96896971D02*
X124918939Y-96968400D01*
X124918939Y-96968400D02*
X124776082Y-97111257D01*
X124776082Y-97111257D02*
X124704653Y-97254114D01*
X124704653Y-97254114D02*
X124633225Y-97539828D01*
X124633225Y-97539828D02*
X124633225Y-97754114D01*
X124633225Y-97754114D02*
X124704653Y-98039828D01*
X124704653Y-98039828D02*
X124776082Y-98182685D01*
X124776082Y-98182685D02*
X124918939Y-98325542D01*
X124918939Y-98325542D02*
X125133225Y-98396971D01*
X125133225Y-98396971D02*
X125276082Y-98396971D01*
X125276082Y-98396971D02*
X125490368Y-98325542D01*
X125490368Y-98325542D02*
X125561796Y-98254114D01*
X126633225Y-98396971D02*
X126633225Y-97325542D01*
X126633225Y-97325542D02*
X126561796Y-97111257D01*
X126561796Y-97111257D02*
X126418939Y-96968400D01*
X126418939Y-96968400D02*
X126204653Y-96896971D01*
X126204653Y-96896971D02*
X126061796Y-96896971D01*
X128061796Y-96896971D02*
X127347510Y-96896971D01*
X127347510Y-96896971D02*
X127347510Y-98396971D01*
X129418939Y-97039828D02*
X129347511Y-96968400D01*
X129347511Y-96968400D02*
X129133225Y-96896971D01*
X129133225Y-96896971D02*
X128990368Y-96896971D01*
X128990368Y-96896971D02*
X128776082Y-96968400D01*
X128776082Y-96968400D02*
X128633225Y-97111257D01*
X128633225Y-97111257D02*
X128561796Y-97254114D01*
X128561796Y-97254114D02*
X128490368Y-97539828D01*
X128490368Y-97539828D02*
X128490368Y-97754114D01*
X128490368Y-97754114D02*
X128561796Y-98039828D01*
X128561796Y-98039828D02*
X128633225Y-98182685D01*
X128633225Y-98182685D02*
X128776082Y-98325542D01*
X128776082Y-98325542D02*
X128990368Y-98396971D01*
X128990368Y-98396971D02*
X129133225Y-98396971D01*
X129133225Y-98396971D02*
X129347511Y-98325542D01*
X129347511Y-98325542D02*
X129418939Y-98254114D01*
X130490368Y-98396971D02*
X130490368Y-97325542D01*
X130490368Y-97325542D02*
X130418939Y-97111257D01*
X130418939Y-97111257D02*
X130276082Y-96968400D01*
X130276082Y-96968400D02*
X130061796Y-96896971D01*
X130061796Y-96896971D02*
X129918939Y-96896971D01*
X131918939Y-96896971D02*
X131204653Y-96896971D01*
X131204653Y-96896971D02*
X131204653Y-98396971D01*
X133276082Y-97039828D02*
X133204654Y-96968400D01*
X133204654Y-96968400D02*
X132990368Y-96896971D01*
X132990368Y-96896971D02*
X132847511Y-96896971D01*
X132847511Y-96896971D02*
X132633225Y-96968400D01*
X132633225Y-96968400D02*
X132490368Y-97111257D01*
X132490368Y-97111257D02*
X132418939Y-97254114D01*
X132418939Y-97254114D02*
X132347511Y-97539828D01*
X132347511Y-97539828D02*
X132347511Y-97754114D01*
X132347511Y-97754114D02*
X132418939Y-98039828D01*
X132418939Y-98039828D02*
X132490368Y-98182685D01*
X132490368Y-98182685D02*
X132633225Y-98325542D01*
X132633225Y-98325542D02*
X132847511Y-98396971D01*
X132847511Y-98396971D02*
X132990368Y-98396971D01*
X132990368Y-98396971D02*
X133204654Y-98325542D01*
X133204654Y-98325542D02*
X133276082Y-98254114D01*
X134347511Y-98396971D02*
X134347511Y-97325542D01*
X134347511Y-97325542D02*
X134276082Y-97111257D01*
X134276082Y-97111257D02*
X134133225Y-96968400D01*
X134133225Y-96968400D02*
X133918939Y-96896971D01*
X133918939Y-96896971D02*
X133776082Y-96896971D01*
X135776082Y-96896971D02*
X135061796Y-96896971D01*
X135061796Y-96896971D02*
X135061796Y-98396971D01*
X137133225Y-97039828D02*
X137061797Y-96968400D01*
X137061797Y-96968400D02*
X136847511Y-96896971D01*
X136847511Y-96896971D02*
X136704654Y-96896971D01*
X136704654Y-96896971D02*
X136490368Y-96968400D01*
X136490368Y-96968400D02*
X136347511Y-97111257D01*
X136347511Y-97111257D02*
X136276082Y-97254114D01*
X136276082Y-97254114D02*
X136204654Y-97539828D01*
X136204654Y-97539828D02*
X136204654Y-97754114D01*
X136204654Y-97754114D02*
X136276082Y-98039828D01*
X136276082Y-98039828D02*
X136347511Y-98182685D01*
X136347511Y-98182685D02*
X136490368Y-98325542D01*
X136490368Y-98325542D02*
X136704654Y-98396971D01*
X136704654Y-98396971D02*
X136847511Y-98396971D01*
X136847511Y-98396971D02*
X137061797Y-98325542D01*
X137061797Y-98325542D02*
X137133225Y-98254114D01*
D11*
X186560619Y-128338342D02*
X186084428Y-128005009D01*
X186560619Y-127766914D02*
X185560619Y-127766914D01*
X185560619Y-127766914D02*
X185560619Y-128147866D01*
X185560619Y-128147866D02*
X185608238Y-128243104D01*
X185608238Y-128243104D02*
X185655857Y-128290723D01*
X185655857Y-128290723D02*
X185751095Y-128338342D01*
X185751095Y-128338342D02*
X185893952Y-128338342D01*
X185893952Y-128338342D02*
X185989190Y-128290723D01*
X185989190Y-128290723D02*
X186036809Y-128243104D01*
X186036809Y-128243104D02*
X186084428Y-128147866D01*
X186084428Y-128147866D02*
X186084428Y-127766914D01*
X186560619Y-129290723D02*
X186560619Y-128719295D01*
X186560619Y-129005009D02*
X185560619Y-129005009D01*
X185560619Y-129005009D02*
X185703476Y-128909771D01*
X185703476Y-128909771D02*
X185798714Y-128814533D01*
X185798714Y-128814533D02*
X185846333Y-128719295D01*
X185560619Y-129624057D02*
X185560619Y-130243104D01*
X185560619Y-130243104D02*
X185941571Y-129909771D01*
X185941571Y-129909771D02*
X185941571Y-130052628D01*
X185941571Y-130052628D02*
X185989190Y-130147866D01*
X185989190Y-130147866D02*
X186036809Y-130195485D01*
X186036809Y-130195485D02*
X186132047Y-130243104D01*
X186132047Y-130243104D02*
X186370142Y-130243104D01*
X186370142Y-130243104D02*
X186465380Y-130195485D01*
X186465380Y-130195485D02*
X186513000Y-130147866D01*
X186513000Y-130147866D02*
X186560619Y-130052628D01*
X186560619Y-130052628D02*
X186560619Y-129766914D01*
X186560619Y-129766914D02*
X186513000Y-129671676D01*
X186513000Y-129671676D02*
X186465380Y-129624057D01*
X178525466Y-90320019D02*
X178858799Y-89843828D01*
X179096894Y-90320019D02*
X179096894Y-89320019D01*
X179096894Y-89320019D02*
X178715942Y-89320019D01*
X178715942Y-89320019D02*
X178620704Y-89367638D01*
X178620704Y-89367638D02*
X178573085Y-89415257D01*
X178573085Y-89415257D02*
X178525466Y-89510495D01*
X178525466Y-89510495D02*
X178525466Y-89653352D01*
X178525466Y-89653352D02*
X178573085Y-89748590D01*
X178573085Y-89748590D02*
X178620704Y-89796209D01*
X178620704Y-89796209D02*
X178715942Y-89843828D01*
X178715942Y-89843828D02*
X179096894Y-89843828D01*
X178144513Y-89415257D02*
X178096894Y-89367638D01*
X178096894Y-89367638D02*
X178001656Y-89320019D01*
X178001656Y-89320019D02*
X177763561Y-89320019D01*
X177763561Y-89320019D02*
X177668323Y-89367638D01*
X177668323Y-89367638D02*
X177620704Y-89415257D01*
X177620704Y-89415257D02*
X177573085Y-89510495D01*
X177573085Y-89510495D02*
X177573085Y-89605733D01*
X177573085Y-89605733D02*
X177620704Y-89748590D01*
X177620704Y-89748590D02*
X178192132Y-90320019D01*
X178192132Y-90320019D02*
X177573085Y-90320019D01*
X190634857Y-114729419D02*
X190968190Y-114253228D01*
X191206285Y-114729419D02*
X191206285Y-113729419D01*
X191206285Y-113729419D02*
X190825333Y-113729419D01*
X190825333Y-113729419D02*
X190730095Y-113777038D01*
X190730095Y-113777038D02*
X190682476Y-113824657D01*
X190682476Y-113824657D02*
X190634857Y-113919895D01*
X190634857Y-113919895D02*
X190634857Y-114062752D01*
X190634857Y-114062752D02*
X190682476Y-114157990D01*
X190682476Y-114157990D02*
X190730095Y-114205609D01*
X190730095Y-114205609D02*
X190825333Y-114253228D01*
X190825333Y-114253228D02*
X191206285Y-114253228D01*
X189682476Y-114729419D02*
X190253904Y-114729419D01*
X189968190Y-114729419D02*
X189968190Y-113729419D01*
X189968190Y-113729419D02*
X190063428Y-113872276D01*
X190063428Y-113872276D02*
X190158666Y-113967514D01*
X190158666Y-113967514D02*
X190253904Y-114015133D01*
X189063428Y-113729419D02*
X188968190Y-113729419D01*
X188968190Y-113729419D02*
X188872952Y-113777038D01*
X188872952Y-113777038D02*
X188825333Y-113824657D01*
X188825333Y-113824657D02*
X188777714Y-113919895D01*
X188777714Y-113919895D02*
X188730095Y-114110371D01*
X188730095Y-114110371D02*
X188730095Y-114348466D01*
X188730095Y-114348466D02*
X188777714Y-114538942D01*
X188777714Y-114538942D02*
X188825333Y-114634180D01*
X188825333Y-114634180D02*
X188872952Y-114681800D01*
X188872952Y-114681800D02*
X188968190Y-114729419D01*
X188968190Y-114729419D02*
X189063428Y-114729419D01*
X189063428Y-114729419D02*
X189158666Y-114681800D01*
X189158666Y-114681800D02*
X189206285Y-114634180D01*
X189206285Y-114634180D02*
X189253904Y-114538942D01*
X189253904Y-114538942D02*
X189301523Y-114348466D01*
X189301523Y-114348466D02*
X189301523Y-114110371D01*
X189301523Y-114110371D02*
X189253904Y-113919895D01*
X189253904Y-113919895D02*
X189206285Y-113824657D01*
X189206285Y-113824657D02*
X189158666Y-113777038D01*
X189158666Y-113777038D02*
X189063428Y-113729419D01*
X182411666Y-90320019D02*
X182744999Y-89843828D01*
X182983094Y-90320019D02*
X182983094Y-89320019D01*
X182983094Y-89320019D02*
X182602142Y-89320019D01*
X182602142Y-89320019D02*
X182506904Y-89367638D01*
X182506904Y-89367638D02*
X182459285Y-89415257D01*
X182459285Y-89415257D02*
X182411666Y-89510495D01*
X182411666Y-89510495D02*
X182411666Y-89653352D01*
X182411666Y-89653352D02*
X182459285Y-89748590D01*
X182459285Y-89748590D02*
X182506904Y-89796209D01*
X182506904Y-89796209D02*
X182602142Y-89843828D01*
X182602142Y-89843828D02*
X182983094Y-89843828D01*
X182078332Y-89320019D02*
X181459285Y-89320019D01*
X181459285Y-89320019D02*
X181792618Y-89700971D01*
X181792618Y-89700971D02*
X181649761Y-89700971D01*
X181649761Y-89700971D02*
X181554523Y-89748590D01*
X181554523Y-89748590D02*
X181506904Y-89796209D01*
X181506904Y-89796209D02*
X181459285Y-89891447D01*
X181459285Y-89891447D02*
X181459285Y-90129542D01*
X181459285Y-90129542D02*
X181506904Y-90224780D01*
X181506904Y-90224780D02*
X181554523Y-90272400D01*
X181554523Y-90272400D02*
X181649761Y-90320019D01*
X181649761Y-90320019D02*
X181935475Y-90320019D01*
X181935475Y-90320019D02*
X182030713Y-90272400D01*
X182030713Y-90272400D02*
X182078332Y-90224780D01*
X127054780Y-122515333D02*
X127102400Y-122467714D01*
X127102400Y-122467714D02*
X127150019Y-122324857D01*
X127150019Y-122324857D02*
X127150019Y-122229619D01*
X127150019Y-122229619D02*
X127102400Y-122086762D01*
X127102400Y-122086762D02*
X127007161Y-121991524D01*
X127007161Y-121991524D02*
X126911923Y-121943905D01*
X126911923Y-121943905D02*
X126721447Y-121896286D01*
X126721447Y-121896286D02*
X126578590Y-121896286D01*
X126578590Y-121896286D02*
X126388114Y-121943905D01*
X126388114Y-121943905D02*
X126292876Y-121991524D01*
X126292876Y-121991524D02*
X126197638Y-122086762D01*
X126197638Y-122086762D02*
X126150019Y-122229619D01*
X126150019Y-122229619D02*
X126150019Y-122324857D01*
X126150019Y-122324857D02*
X126197638Y-122467714D01*
X126197638Y-122467714D02*
X126245257Y-122515333D01*
X126150019Y-123372476D02*
X126150019Y-123182000D01*
X126150019Y-123182000D02*
X126197638Y-123086762D01*
X126197638Y-123086762D02*
X126245257Y-123039143D01*
X126245257Y-123039143D02*
X126388114Y-122943905D01*
X126388114Y-122943905D02*
X126578590Y-122896286D01*
X126578590Y-122896286D02*
X126959542Y-122896286D01*
X126959542Y-122896286D02*
X127054780Y-122943905D01*
X127054780Y-122943905D02*
X127102400Y-122991524D01*
X127102400Y-122991524D02*
X127150019Y-123086762D01*
X127150019Y-123086762D02*
X127150019Y-123277238D01*
X127150019Y-123277238D02*
X127102400Y-123372476D01*
X127102400Y-123372476D02*
X127054780Y-123420095D01*
X127054780Y-123420095D02*
X126959542Y-123467714D01*
X126959542Y-123467714D02*
X126721447Y-123467714D01*
X126721447Y-123467714D02*
X126626209Y-123420095D01*
X126626209Y-123420095D02*
X126578590Y-123372476D01*
X126578590Y-123372476D02*
X126530971Y-123277238D01*
X126530971Y-123277238D02*
X126530971Y-123086762D01*
X126530971Y-123086762D02*
X126578590Y-122991524D01*
X126578590Y-122991524D02*
X126626209Y-122943905D01*
X126626209Y-122943905D02*
X126721447Y-122896286D01*
X175706066Y-121085780D02*
X175753685Y-121133400D01*
X175753685Y-121133400D02*
X175896542Y-121181019D01*
X175896542Y-121181019D02*
X175991780Y-121181019D01*
X175991780Y-121181019D02*
X176134637Y-121133400D01*
X176134637Y-121133400D02*
X176229875Y-121038161D01*
X176229875Y-121038161D02*
X176277494Y-120942923D01*
X176277494Y-120942923D02*
X176325113Y-120752447D01*
X176325113Y-120752447D02*
X176325113Y-120609590D01*
X176325113Y-120609590D02*
X176277494Y-120419114D01*
X176277494Y-120419114D02*
X176229875Y-120323876D01*
X176229875Y-120323876D02*
X176134637Y-120228638D01*
X176134637Y-120228638D02*
X175991780Y-120181019D01*
X175991780Y-120181019D02*
X175896542Y-120181019D01*
X175896542Y-120181019D02*
X175753685Y-120228638D01*
X175753685Y-120228638D02*
X175706066Y-120276257D01*
X174753685Y-121181019D02*
X175325113Y-121181019D01*
X175039399Y-121181019D02*
X175039399Y-120181019D01*
X175039399Y-120181019D02*
X175134637Y-120323876D01*
X175134637Y-120323876D02*
X175229875Y-120419114D01*
X175229875Y-120419114D02*
X175325113Y-120466733D01*
X121553266Y-114100780D02*
X121600885Y-114148400D01*
X121600885Y-114148400D02*
X121743742Y-114196019D01*
X121743742Y-114196019D02*
X121838980Y-114196019D01*
X121838980Y-114196019D02*
X121981837Y-114148400D01*
X121981837Y-114148400D02*
X122077075Y-114053161D01*
X122077075Y-114053161D02*
X122124694Y-113957923D01*
X122124694Y-113957923D02*
X122172313Y-113767447D01*
X122172313Y-113767447D02*
X122172313Y-113624590D01*
X122172313Y-113624590D02*
X122124694Y-113434114D01*
X122124694Y-113434114D02*
X122077075Y-113338876D01*
X122077075Y-113338876D02*
X121981837Y-113243638D01*
X121981837Y-113243638D02*
X121838980Y-113196019D01*
X121838980Y-113196019D02*
X121743742Y-113196019D01*
X121743742Y-113196019D02*
X121600885Y-113243638D01*
X121600885Y-113243638D02*
X121553266Y-113291257D01*
X120648504Y-113196019D02*
X121124694Y-113196019D01*
X121124694Y-113196019D02*
X121172313Y-113672209D01*
X121172313Y-113672209D02*
X121124694Y-113624590D01*
X121124694Y-113624590D02*
X121029456Y-113576971D01*
X121029456Y-113576971D02*
X120791361Y-113576971D01*
X120791361Y-113576971D02*
X120696123Y-113624590D01*
X120696123Y-113624590D02*
X120648504Y-113672209D01*
X120648504Y-113672209D02*
X120600885Y-113767447D01*
X120600885Y-113767447D02*
X120600885Y-114005542D01*
X120600885Y-114005542D02*
X120648504Y-114100780D01*
X120648504Y-114100780D02*
X120696123Y-114148400D01*
X120696123Y-114148400D02*
X120791361Y-114196019D01*
X120791361Y-114196019D02*
X121029456Y-114196019D01*
X121029456Y-114196019D02*
X121124694Y-114148400D01*
X121124694Y-114148400D02*
X121172313Y-114100780D01*
X114968257Y-107454619D02*
X115301590Y-106978428D01*
X115539685Y-107454619D02*
X115539685Y-106454619D01*
X115539685Y-106454619D02*
X115158733Y-106454619D01*
X115158733Y-106454619D02*
X115063495Y-106502238D01*
X115063495Y-106502238D02*
X115015876Y-106549857D01*
X115015876Y-106549857D02*
X114968257Y-106645095D01*
X114968257Y-106645095D02*
X114968257Y-106787952D01*
X114968257Y-106787952D02*
X115015876Y-106883190D01*
X115015876Y-106883190D02*
X115063495Y-106930809D01*
X115063495Y-106930809D02*
X115158733Y-106978428D01*
X115158733Y-106978428D02*
X115539685Y-106978428D01*
X114587304Y-106549857D02*
X114539685Y-106502238D01*
X114539685Y-106502238D02*
X114444447Y-106454619D01*
X114444447Y-106454619D02*
X114206352Y-106454619D01*
X114206352Y-106454619D02*
X114111114Y-106502238D01*
X114111114Y-106502238D02*
X114063495Y-106549857D01*
X114063495Y-106549857D02*
X114015876Y-106645095D01*
X114015876Y-106645095D02*
X114015876Y-106740333D01*
X114015876Y-106740333D02*
X114063495Y-106883190D01*
X114063495Y-106883190D02*
X114634923Y-107454619D01*
X114634923Y-107454619D02*
X114015876Y-107454619D01*
X113682542Y-106454619D02*
X113063495Y-106454619D01*
X113063495Y-106454619D02*
X113396828Y-106835571D01*
X113396828Y-106835571D02*
X113253971Y-106835571D01*
X113253971Y-106835571D02*
X113158733Y-106883190D01*
X113158733Y-106883190D02*
X113111114Y-106930809D01*
X113111114Y-106930809D02*
X113063495Y-107026047D01*
X113063495Y-107026047D02*
X113063495Y-107264142D01*
X113063495Y-107264142D02*
X113111114Y-107359380D01*
X113111114Y-107359380D02*
X113158733Y-107407000D01*
X113158733Y-107407000D02*
X113253971Y-107454619D01*
X113253971Y-107454619D02*
X113539685Y-107454619D01*
X113539685Y-107454619D02*
X113634923Y-107407000D01*
X113634923Y-107407000D02*
X113682542Y-107359380D01*
X99893357Y-97165319D02*
X100226690Y-96689128D01*
X100464785Y-97165319D02*
X100464785Y-96165319D01*
X100464785Y-96165319D02*
X100083833Y-96165319D01*
X100083833Y-96165319D02*
X99988595Y-96212938D01*
X99988595Y-96212938D02*
X99940976Y-96260557D01*
X99940976Y-96260557D02*
X99893357Y-96355795D01*
X99893357Y-96355795D02*
X99893357Y-96498652D01*
X99893357Y-96498652D02*
X99940976Y-96593890D01*
X99940976Y-96593890D02*
X99988595Y-96641509D01*
X99988595Y-96641509D02*
X100083833Y-96689128D01*
X100083833Y-96689128D02*
X100464785Y-96689128D01*
X99512404Y-96260557D02*
X99464785Y-96212938D01*
X99464785Y-96212938D02*
X99369547Y-96165319D01*
X99369547Y-96165319D02*
X99131452Y-96165319D01*
X99131452Y-96165319D02*
X99036214Y-96212938D01*
X99036214Y-96212938D02*
X98988595Y-96260557D01*
X98988595Y-96260557D02*
X98940976Y-96355795D01*
X98940976Y-96355795D02*
X98940976Y-96451033D01*
X98940976Y-96451033D02*
X98988595Y-96593890D01*
X98988595Y-96593890D02*
X99560023Y-97165319D01*
X99560023Y-97165319D02*
X98940976Y-97165319D01*
X98607642Y-96165319D02*
X97940976Y-96165319D01*
X97940976Y-96165319D02*
X98369547Y-97165319D01*
X170026494Y-105816819D02*
X170026494Y-104816819D01*
X169455066Y-105816819D02*
X169883637Y-105245390D01*
X169455066Y-104816819D02*
X170026494Y-105388247D01*
X168502685Y-105816819D02*
X169074113Y-105816819D01*
X168788399Y-105816819D02*
X168788399Y-104816819D01*
X168788399Y-104816819D02*
X168883637Y-104959676D01*
X168883637Y-104959676D02*
X168978875Y-105054914D01*
X168978875Y-105054914D02*
X169074113Y-105102533D01*
X190595238Y-101261057D02*
X190690476Y-101213438D01*
X190690476Y-101213438D02*
X190785714Y-101118200D01*
X190785714Y-101118200D02*
X190928571Y-100975342D01*
X190928571Y-100975342D02*
X191023809Y-100927723D01*
X191023809Y-100927723D02*
X191119047Y-100927723D01*
X191071428Y-101165819D02*
X191166666Y-101118200D01*
X191166666Y-101118200D02*
X191261904Y-101022961D01*
X191261904Y-101022961D02*
X191309523Y-100832485D01*
X191309523Y-100832485D02*
X191309523Y-100499152D01*
X191309523Y-100499152D02*
X191261904Y-100308676D01*
X191261904Y-100308676D02*
X191166666Y-100213438D01*
X191166666Y-100213438D02*
X191071428Y-100165819D01*
X191071428Y-100165819D02*
X190880952Y-100165819D01*
X190880952Y-100165819D02*
X190785714Y-100213438D01*
X190785714Y-100213438D02*
X190690476Y-100308676D01*
X190690476Y-100308676D02*
X190642857Y-100499152D01*
X190642857Y-100499152D02*
X190642857Y-100832485D01*
X190642857Y-100832485D02*
X190690476Y-101022961D01*
X190690476Y-101022961D02*
X190785714Y-101118200D01*
X190785714Y-101118200D02*
X190880952Y-101165819D01*
X190880952Y-101165819D02*
X191071428Y-101165819D01*
X190261904Y-100261057D02*
X190214285Y-100213438D01*
X190214285Y-100213438D02*
X190119047Y-100165819D01*
X190119047Y-100165819D02*
X189880952Y-100165819D01*
X189880952Y-100165819D02*
X189785714Y-100213438D01*
X189785714Y-100213438D02*
X189738095Y-100261057D01*
X189738095Y-100261057D02*
X189690476Y-100356295D01*
X189690476Y-100356295D02*
X189690476Y-100451533D01*
X189690476Y-100451533D02*
X189738095Y-100594390D01*
X189738095Y-100594390D02*
X190309523Y-101165819D01*
X190309523Y-101165819D02*
X189690476Y-101165819D01*
X181786257Y-132204619D02*
X182119590Y-131728428D01*
X182357685Y-132204619D02*
X182357685Y-131204619D01*
X182357685Y-131204619D02*
X181976733Y-131204619D01*
X181976733Y-131204619D02*
X181881495Y-131252238D01*
X181881495Y-131252238D02*
X181833876Y-131299857D01*
X181833876Y-131299857D02*
X181786257Y-131395095D01*
X181786257Y-131395095D02*
X181786257Y-131537952D01*
X181786257Y-131537952D02*
X181833876Y-131633190D01*
X181833876Y-131633190D02*
X181881495Y-131680809D01*
X181881495Y-131680809D02*
X181976733Y-131728428D01*
X181976733Y-131728428D02*
X182357685Y-131728428D01*
X180833876Y-132204619D02*
X181405304Y-132204619D01*
X181119590Y-132204619D02*
X181119590Y-131204619D01*
X181119590Y-131204619D02*
X181214828Y-131347476D01*
X181214828Y-131347476D02*
X181310066Y-131442714D01*
X181310066Y-131442714D02*
X181405304Y-131490333D01*
X180452923Y-131299857D02*
X180405304Y-131252238D01*
X180405304Y-131252238D02*
X180310066Y-131204619D01*
X180310066Y-131204619D02*
X180071971Y-131204619D01*
X180071971Y-131204619D02*
X179976733Y-131252238D01*
X179976733Y-131252238D02*
X179929114Y-131299857D01*
X179929114Y-131299857D02*
X179881495Y-131395095D01*
X179881495Y-131395095D02*
X179881495Y-131490333D01*
X179881495Y-131490333D02*
X179929114Y-131633190D01*
X179929114Y-131633190D02*
X180500542Y-132204619D01*
X180500542Y-132204619D02*
X179881495Y-132204619D01*
X184316666Y-104674819D02*
X184649999Y-104198628D01*
X184888094Y-104674819D02*
X184888094Y-103674819D01*
X184888094Y-103674819D02*
X184507142Y-103674819D01*
X184507142Y-103674819D02*
X184411904Y-103722438D01*
X184411904Y-103722438D02*
X184364285Y-103770057D01*
X184364285Y-103770057D02*
X184316666Y-103865295D01*
X184316666Y-103865295D02*
X184316666Y-104008152D01*
X184316666Y-104008152D02*
X184364285Y-104103390D01*
X184364285Y-104103390D02*
X184411904Y-104151009D01*
X184411904Y-104151009D02*
X184507142Y-104198628D01*
X184507142Y-104198628D02*
X184888094Y-104198628D01*
X183745237Y-104103390D02*
X183840475Y-104055771D01*
X183840475Y-104055771D02*
X183888094Y-104008152D01*
X183888094Y-104008152D02*
X183935713Y-103912914D01*
X183935713Y-103912914D02*
X183935713Y-103865295D01*
X183935713Y-103865295D02*
X183888094Y-103770057D01*
X183888094Y-103770057D02*
X183840475Y-103722438D01*
X183840475Y-103722438D02*
X183745237Y-103674819D01*
X183745237Y-103674819D02*
X183554761Y-103674819D01*
X183554761Y-103674819D02*
X183459523Y-103722438D01*
X183459523Y-103722438D02*
X183411904Y-103770057D01*
X183411904Y-103770057D02*
X183364285Y-103865295D01*
X183364285Y-103865295D02*
X183364285Y-103912914D01*
X183364285Y-103912914D02*
X183411904Y-104008152D01*
X183411904Y-104008152D02*
X183459523Y-104055771D01*
X183459523Y-104055771D02*
X183554761Y-104103390D01*
X183554761Y-104103390D02*
X183745237Y-104103390D01*
X183745237Y-104103390D02*
X183840475Y-104151009D01*
X183840475Y-104151009D02*
X183888094Y-104198628D01*
X183888094Y-104198628D02*
X183935713Y-104293866D01*
X183935713Y-104293866D02*
X183935713Y-104484342D01*
X183935713Y-104484342D02*
X183888094Y-104579580D01*
X183888094Y-104579580D02*
X183840475Y-104627200D01*
X183840475Y-104627200D02*
X183745237Y-104674819D01*
X183745237Y-104674819D02*
X183554761Y-104674819D01*
X183554761Y-104674819D02*
X183459523Y-104627200D01*
X183459523Y-104627200D02*
X183411904Y-104579580D01*
X183411904Y-104579580D02*
X183364285Y-104484342D01*
X183364285Y-104484342D02*
X183364285Y-104293866D01*
X183364285Y-104293866D02*
X183411904Y-104198628D01*
X183411904Y-104198628D02*
X183459523Y-104151009D01*
X183459523Y-104151009D02*
X183554761Y-104103390D01*
X99817157Y-91882119D02*
X100150490Y-91405928D01*
X100388585Y-91882119D02*
X100388585Y-90882119D01*
X100388585Y-90882119D02*
X100007633Y-90882119D01*
X100007633Y-90882119D02*
X99912395Y-90929738D01*
X99912395Y-90929738D02*
X99864776Y-90977357D01*
X99864776Y-90977357D02*
X99817157Y-91072595D01*
X99817157Y-91072595D02*
X99817157Y-91215452D01*
X99817157Y-91215452D02*
X99864776Y-91310690D01*
X99864776Y-91310690D02*
X99912395Y-91358309D01*
X99912395Y-91358309D02*
X100007633Y-91405928D01*
X100007633Y-91405928D02*
X100388585Y-91405928D01*
X99436204Y-90977357D02*
X99388585Y-90929738D01*
X99388585Y-90929738D02*
X99293347Y-90882119D01*
X99293347Y-90882119D02*
X99055252Y-90882119D01*
X99055252Y-90882119D02*
X98960014Y-90929738D01*
X98960014Y-90929738D02*
X98912395Y-90977357D01*
X98912395Y-90977357D02*
X98864776Y-91072595D01*
X98864776Y-91072595D02*
X98864776Y-91167833D01*
X98864776Y-91167833D02*
X98912395Y-91310690D01*
X98912395Y-91310690D02*
X99483823Y-91882119D01*
X99483823Y-91882119D02*
X98864776Y-91882119D01*
X98007633Y-90882119D02*
X98198109Y-90882119D01*
X98198109Y-90882119D02*
X98293347Y-90929738D01*
X98293347Y-90929738D02*
X98340966Y-90977357D01*
X98340966Y-90977357D02*
X98436204Y-91120214D01*
X98436204Y-91120214D02*
X98483823Y-91310690D01*
X98483823Y-91310690D02*
X98483823Y-91691642D01*
X98483823Y-91691642D02*
X98436204Y-91786880D01*
X98436204Y-91786880D02*
X98388585Y-91834500D01*
X98388585Y-91834500D02*
X98293347Y-91882119D01*
X98293347Y-91882119D02*
X98102871Y-91882119D01*
X98102871Y-91882119D02*
X98007633Y-91834500D01*
X98007633Y-91834500D02*
X97960014Y-91786880D01*
X97960014Y-91786880D02*
X97912395Y-91691642D01*
X97912395Y-91691642D02*
X97912395Y-91453547D01*
X97912395Y-91453547D02*
X97960014Y-91358309D01*
X97960014Y-91358309D02*
X98007633Y-91310690D01*
X98007633Y-91310690D02*
X98102871Y-91263071D01*
X98102871Y-91263071D02*
X98293347Y-91263071D01*
X98293347Y-91263071D02*
X98388585Y-91310690D01*
X98388585Y-91310690D02*
X98436204Y-91358309D01*
X98436204Y-91358309D02*
X98483823Y-91453547D01*
X180898704Y-118352219D02*
X180898704Y-119161742D01*
X180898704Y-119161742D02*
X180851085Y-119256980D01*
X180851085Y-119256980D02*
X180803466Y-119304600D01*
X180803466Y-119304600D02*
X180708228Y-119352219D01*
X180708228Y-119352219D02*
X180517752Y-119352219D01*
X180517752Y-119352219D02*
X180422514Y-119304600D01*
X180422514Y-119304600D02*
X180374895Y-119256980D01*
X180374895Y-119256980D02*
X180327276Y-119161742D01*
X180327276Y-119161742D02*
X180327276Y-118352219D01*
X179327276Y-119352219D02*
X179898704Y-119352219D01*
X179612990Y-119352219D02*
X179612990Y-118352219D01*
X179612990Y-118352219D02*
X179708228Y-118495076D01*
X179708228Y-118495076D02*
X179803466Y-118590314D01*
X179803466Y-118590314D02*
X179898704Y-118637933D01*
X187542466Y-120501580D02*
X187590085Y-120549200D01*
X187590085Y-120549200D02*
X187732942Y-120596819D01*
X187732942Y-120596819D02*
X187828180Y-120596819D01*
X187828180Y-120596819D02*
X187971037Y-120549200D01*
X187971037Y-120549200D02*
X188066275Y-120453961D01*
X188066275Y-120453961D02*
X188113894Y-120358723D01*
X188113894Y-120358723D02*
X188161513Y-120168247D01*
X188161513Y-120168247D02*
X188161513Y-120025390D01*
X188161513Y-120025390D02*
X188113894Y-119834914D01*
X188113894Y-119834914D02*
X188066275Y-119739676D01*
X188066275Y-119739676D02*
X187971037Y-119644438D01*
X187971037Y-119644438D02*
X187828180Y-119596819D01*
X187828180Y-119596819D02*
X187732942Y-119596819D01*
X187732942Y-119596819D02*
X187590085Y-119644438D01*
X187590085Y-119644438D02*
X187542466Y-119692057D01*
X186685323Y-119930152D02*
X186685323Y-120596819D01*
X186923418Y-119549200D02*
X187161513Y-120263485D01*
X187161513Y-120263485D02*
X186542466Y-120263485D01*
X115357869Y-120174095D02*
X116167392Y-120174095D01*
X116167392Y-120174095D02*
X116262630Y-120221714D01*
X116262630Y-120221714D02*
X116310250Y-120269333D01*
X116310250Y-120269333D02*
X116357869Y-120364571D01*
X116357869Y-120364571D02*
X116357869Y-120555047D01*
X116357869Y-120555047D02*
X116310250Y-120650285D01*
X116310250Y-120650285D02*
X116262630Y-120697904D01*
X116262630Y-120697904D02*
X116167392Y-120745523D01*
X116167392Y-120745523D02*
X115357869Y-120745523D01*
X115357869Y-121126476D02*
X115357869Y-121745523D01*
X115357869Y-121745523D02*
X115738821Y-121412190D01*
X115738821Y-121412190D02*
X115738821Y-121555047D01*
X115738821Y-121555047D02*
X115786440Y-121650285D01*
X115786440Y-121650285D02*
X115834059Y-121697904D01*
X115834059Y-121697904D02*
X115929297Y-121745523D01*
X115929297Y-121745523D02*
X116167392Y-121745523D01*
X116167392Y-121745523D02*
X116262630Y-121697904D01*
X116262630Y-121697904D02*
X116310250Y-121650285D01*
X116310250Y-121650285D02*
X116357869Y-121555047D01*
X116357869Y-121555047D02*
X116357869Y-121269333D01*
X116357869Y-121269333D02*
X116310250Y-121174095D01*
X116310250Y-121174095D02*
X116262630Y-121126476D01*
X108271657Y-125538219D02*
X108604990Y-125062028D01*
X108843085Y-125538219D02*
X108843085Y-124538219D01*
X108843085Y-124538219D02*
X108462133Y-124538219D01*
X108462133Y-124538219D02*
X108366895Y-124585838D01*
X108366895Y-124585838D02*
X108319276Y-124633457D01*
X108319276Y-124633457D02*
X108271657Y-124728695D01*
X108271657Y-124728695D02*
X108271657Y-124871552D01*
X108271657Y-124871552D02*
X108319276Y-124966790D01*
X108319276Y-124966790D02*
X108366895Y-125014409D01*
X108366895Y-125014409D02*
X108462133Y-125062028D01*
X108462133Y-125062028D02*
X108843085Y-125062028D01*
X107890704Y-124633457D02*
X107843085Y-124585838D01*
X107843085Y-124585838D02*
X107747847Y-124538219D01*
X107747847Y-124538219D02*
X107509752Y-124538219D01*
X107509752Y-124538219D02*
X107414514Y-124585838D01*
X107414514Y-124585838D02*
X107366895Y-124633457D01*
X107366895Y-124633457D02*
X107319276Y-124728695D01*
X107319276Y-124728695D02*
X107319276Y-124823933D01*
X107319276Y-124823933D02*
X107366895Y-124966790D01*
X107366895Y-124966790D02*
X107938323Y-125538219D01*
X107938323Y-125538219D02*
X107319276Y-125538219D01*
X106700228Y-124538219D02*
X106604990Y-124538219D01*
X106604990Y-124538219D02*
X106509752Y-124585838D01*
X106509752Y-124585838D02*
X106462133Y-124633457D01*
X106462133Y-124633457D02*
X106414514Y-124728695D01*
X106414514Y-124728695D02*
X106366895Y-124919171D01*
X106366895Y-124919171D02*
X106366895Y-125157266D01*
X106366895Y-125157266D02*
X106414514Y-125347742D01*
X106414514Y-125347742D02*
X106462133Y-125442980D01*
X106462133Y-125442980D02*
X106509752Y-125490600D01*
X106509752Y-125490600D02*
X106604990Y-125538219D01*
X106604990Y-125538219D02*
X106700228Y-125538219D01*
X106700228Y-125538219D02*
X106795466Y-125490600D01*
X106795466Y-125490600D02*
X106843085Y-125442980D01*
X106843085Y-125442980D02*
X106890704Y-125347742D01*
X106890704Y-125347742D02*
X106938323Y-125157266D01*
X106938323Y-125157266D02*
X106938323Y-124919171D01*
X106938323Y-124919171D02*
X106890704Y-124728695D01*
X106890704Y-124728695D02*
X106843085Y-124633457D01*
X106843085Y-124633457D02*
X106795466Y-124585838D01*
X106795466Y-124585838D02*
X106700228Y-124538219D01*
X103455957Y-113751519D02*
X103789290Y-113275328D01*
X104027385Y-113751519D02*
X104027385Y-112751519D01*
X104027385Y-112751519D02*
X103646433Y-112751519D01*
X103646433Y-112751519D02*
X103551195Y-112799138D01*
X103551195Y-112799138D02*
X103503576Y-112846757D01*
X103503576Y-112846757D02*
X103455957Y-112941995D01*
X103455957Y-112941995D02*
X103455957Y-113084852D01*
X103455957Y-113084852D02*
X103503576Y-113180090D01*
X103503576Y-113180090D02*
X103551195Y-113227709D01*
X103551195Y-113227709D02*
X103646433Y-113275328D01*
X103646433Y-113275328D02*
X104027385Y-113275328D01*
X103075004Y-112846757D02*
X103027385Y-112799138D01*
X103027385Y-112799138D02*
X102932147Y-112751519D01*
X102932147Y-112751519D02*
X102694052Y-112751519D01*
X102694052Y-112751519D02*
X102598814Y-112799138D01*
X102598814Y-112799138D02*
X102551195Y-112846757D01*
X102551195Y-112846757D02*
X102503576Y-112941995D01*
X102503576Y-112941995D02*
X102503576Y-113037233D01*
X102503576Y-113037233D02*
X102551195Y-113180090D01*
X102551195Y-113180090D02*
X103122623Y-113751519D01*
X103122623Y-113751519D02*
X102503576Y-113751519D01*
X101932147Y-113180090D02*
X102027385Y-113132471D01*
X102027385Y-113132471D02*
X102075004Y-113084852D01*
X102075004Y-113084852D02*
X102122623Y-112989614D01*
X102122623Y-112989614D02*
X102122623Y-112941995D01*
X102122623Y-112941995D02*
X102075004Y-112846757D01*
X102075004Y-112846757D02*
X102027385Y-112799138D01*
X102027385Y-112799138D02*
X101932147Y-112751519D01*
X101932147Y-112751519D02*
X101741671Y-112751519D01*
X101741671Y-112751519D02*
X101646433Y-112799138D01*
X101646433Y-112799138D02*
X101598814Y-112846757D01*
X101598814Y-112846757D02*
X101551195Y-112941995D01*
X101551195Y-112941995D02*
X101551195Y-112989614D01*
X101551195Y-112989614D02*
X101598814Y-113084852D01*
X101598814Y-113084852D02*
X101646433Y-113132471D01*
X101646433Y-113132471D02*
X101741671Y-113180090D01*
X101741671Y-113180090D02*
X101932147Y-113180090D01*
X101932147Y-113180090D02*
X102027385Y-113227709D01*
X102027385Y-113227709D02*
X102075004Y-113275328D01*
X102075004Y-113275328D02*
X102122623Y-113370566D01*
X102122623Y-113370566D02*
X102122623Y-113561042D01*
X102122623Y-113561042D02*
X102075004Y-113656280D01*
X102075004Y-113656280D02*
X102027385Y-113703900D01*
X102027385Y-113703900D02*
X101932147Y-113751519D01*
X101932147Y-113751519D02*
X101741671Y-113751519D01*
X101741671Y-113751519D02*
X101646433Y-113703900D01*
X101646433Y-113703900D02*
X101598814Y-113656280D01*
X101598814Y-113656280D02*
X101551195Y-113561042D01*
X101551195Y-113561042D02*
X101551195Y-113370566D01*
X101551195Y-113370566D02*
X101598814Y-113275328D01*
X101598814Y-113275328D02*
X101646433Y-113227709D01*
X101646433Y-113227709D02*
X101741671Y-113180090D01*
X177230257Y-132204619D02*
X177563590Y-131728428D01*
X177801685Y-132204619D02*
X177801685Y-131204619D01*
X177801685Y-131204619D02*
X177420733Y-131204619D01*
X177420733Y-131204619D02*
X177325495Y-131252238D01*
X177325495Y-131252238D02*
X177277876Y-131299857D01*
X177277876Y-131299857D02*
X177230257Y-131395095D01*
X177230257Y-131395095D02*
X177230257Y-131537952D01*
X177230257Y-131537952D02*
X177277876Y-131633190D01*
X177277876Y-131633190D02*
X177325495Y-131680809D01*
X177325495Y-131680809D02*
X177420733Y-131728428D01*
X177420733Y-131728428D02*
X177801685Y-131728428D01*
X176277876Y-132204619D02*
X176849304Y-132204619D01*
X176563590Y-132204619D02*
X176563590Y-131204619D01*
X176563590Y-131204619D02*
X176658828Y-131347476D01*
X176658828Y-131347476D02*
X176754066Y-131442714D01*
X176754066Y-131442714D02*
X176849304Y-131490333D01*
X175325495Y-132204619D02*
X175896923Y-132204619D01*
X175611209Y-132204619D02*
X175611209Y-131204619D01*
X175611209Y-131204619D02*
X175706447Y-131347476D01*
X175706447Y-131347476D02*
X175801685Y-131442714D01*
X175801685Y-131442714D02*
X175896923Y-131490333D01*
X184919857Y-119814819D02*
X185253190Y-119338628D01*
X185491285Y-119814819D02*
X185491285Y-118814819D01*
X185491285Y-118814819D02*
X185110333Y-118814819D01*
X185110333Y-118814819D02*
X185015095Y-118862438D01*
X185015095Y-118862438D02*
X184967476Y-118910057D01*
X184967476Y-118910057D02*
X184919857Y-119005295D01*
X184919857Y-119005295D02*
X184919857Y-119148152D01*
X184919857Y-119148152D02*
X184967476Y-119243390D01*
X184967476Y-119243390D02*
X185015095Y-119291009D01*
X185015095Y-119291009D02*
X185110333Y-119338628D01*
X185110333Y-119338628D02*
X185491285Y-119338628D01*
X183967476Y-119814819D02*
X184538904Y-119814819D01*
X184253190Y-119814819D02*
X184253190Y-118814819D01*
X184253190Y-118814819D02*
X184348428Y-118957676D01*
X184348428Y-118957676D02*
X184443666Y-119052914D01*
X184443666Y-119052914D02*
X184538904Y-119100533D01*
X183110333Y-119148152D02*
X183110333Y-119814819D01*
X183348428Y-118767200D02*
X183586523Y-119481485D01*
X183586523Y-119481485D02*
X182967476Y-119481485D01*
X118644457Y-107422619D02*
X118977790Y-106946428D01*
X119215885Y-107422619D02*
X119215885Y-106422619D01*
X119215885Y-106422619D02*
X118834933Y-106422619D01*
X118834933Y-106422619D02*
X118739695Y-106470238D01*
X118739695Y-106470238D02*
X118692076Y-106517857D01*
X118692076Y-106517857D02*
X118644457Y-106613095D01*
X118644457Y-106613095D02*
X118644457Y-106755952D01*
X118644457Y-106755952D02*
X118692076Y-106851190D01*
X118692076Y-106851190D02*
X118739695Y-106898809D01*
X118739695Y-106898809D02*
X118834933Y-106946428D01*
X118834933Y-106946428D02*
X119215885Y-106946428D01*
X118263504Y-106517857D02*
X118215885Y-106470238D01*
X118215885Y-106470238D02*
X118120647Y-106422619D01*
X118120647Y-106422619D02*
X117882552Y-106422619D01*
X117882552Y-106422619D02*
X117787314Y-106470238D01*
X117787314Y-106470238D02*
X117739695Y-106517857D01*
X117739695Y-106517857D02*
X117692076Y-106613095D01*
X117692076Y-106613095D02*
X117692076Y-106708333D01*
X117692076Y-106708333D02*
X117739695Y-106851190D01*
X117739695Y-106851190D02*
X118311123Y-107422619D01*
X118311123Y-107422619D02*
X117692076Y-107422619D01*
X117311123Y-106517857D02*
X117263504Y-106470238D01*
X117263504Y-106470238D02*
X117168266Y-106422619D01*
X117168266Y-106422619D02*
X116930171Y-106422619D01*
X116930171Y-106422619D02*
X116834933Y-106470238D01*
X116834933Y-106470238D02*
X116787314Y-106517857D01*
X116787314Y-106517857D02*
X116739695Y-106613095D01*
X116739695Y-106613095D02*
X116739695Y-106708333D01*
X116739695Y-106708333D02*
X116787314Y-106851190D01*
X116787314Y-106851190D02*
X117358742Y-107422619D01*
X117358742Y-107422619D02*
X116739695Y-107422619D01*
X108271657Y-120102619D02*
X108604990Y-119626428D01*
X108843085Y-120102619D02*
X108843085Y-119102619D01*
X108843085Y-119102619D02*
X108462133Y-119102619D01*
X108462133Y-119102619D02*
X108366895Y-119150238D01*
X108366895Y-119150238D02*
X108319276Y-119197857D01*
X108319276Y-119197857D02*
X108271657Y-119293095D01*
X108271657Y-119293095D02*
X108271657Y-119435952D01*
X108271657Y-119435952D02*
X108319276Y-119531190D01*
X108319276Y-119531190D02*
X108366895Y-119578809D01*
X108366895Y-119578809D02*
X108462133Y-119626428D01*
X108462133Y-119626428D02*
X108843085Y-119626428D01*
X107319276Y-120102619D02*
X107890704Y-120102619D01*
X107604990Y-120102619D02*
X107604990Y-119102619D01*
X107604990Y-119102619D02*
X107700228Y-119245476D01*
X107700228Y-119245476D02*
X107795466Y-119340714D01*
X107795466Y-119340714D02*
X107890704Y-119388333D01*
X106843085Y-120102619D02*
X106652609Y-120102619D01*
X106652609Y-120102619D02*
X106557371Y-120055000D01*
X106557371Y-120055000D02*
X106509752Y-120007380D01*
X106509752Y-120007380D02*
X106414514Y-119864523D01*
X106414514Y-119864523D02*
X106366895Y-119674047D01*
X106366895Y-119674047D02*
X106366895Y-119293095D01*
X106366895Y-119293095D02*
X106414514Y-119197857D01*
X106414514Y-119197857D02*
X106462133Y-119150238D01*
X106462133Y-119150238D02*
X106557371Y-119102619D01*
X106557371Y-119102619D02*
X106747847Y-119102619D01*
X106747847Y-119102619D02*
X106843085Y-119150238D01*
X106843085Y-119150238D02*
X106890704Y-119197857D01*
X106890704Y-119197857D02*
X106938323Y-119293095D01*
X106938323Y-119293095D02*
X106938323Y-119531190D01*
X106938323Y-119531190D02*
X106890704Y-119626428D01*
X106890704Y-119626428D02*
X106843085Y-119674047D01*
X106843085Y-119674047D02*
X106747847Y-119721666D01*
X106747847Y-119721666D02*
X106557371Y-119721666D01*
X106557371Y-119721666D02*
X106462133Y-119674047D01*
X106462133Y-119674047D02*
X106414514Y-119626428D01*
X106414514Y-119626428D02*
X106366895Y-119531190D01*
X180326666Y-104634819D02*
X180659999Y-104158628D01*
X180898094Y-104634819D02*
X180898094Y-103634819D01*
X180898094Y-103634819D02*
X180517142Y-103634819D01*
X180517142Y-103634819D02*
X180421904Y-103682438D01*
X180421904Y-103682438D02*
X180374285Y-103730057D01*
X180374285Y-103730057D02*
X180326666Y-103825295D01*
X180326666Y-103825295D02*
X180326666Y-103968152D01*
X180326666Y-103968152D02*
X180374285Y-104063390D01*
X180374285Y-104063390D02*
X180421904Y-104111009D01*
X180421904Y-104111009D02*
X180517142Y-104158628D01*
X180517142Y-104158628D02*
X180898094Y-104158628D01*
X179993332Y-103634819D02*
X179326666Y-103634819D01*
X179326666Y-103634819D02*
X179755237Y-104634819D01*
X111217457Y-107454619D02*
X111550790Y-106978428D01*
X111788885Y-107454619D02*
X111788885Y-106454619D01*
X111788885Y-106454619D02*
X111407933Y-106454619D01*
X111407933Y-106454619D02*
X111312695Y-106502238D01*
X111312695Y-106502238D02*
X111265076Y-106549857D01*
X111265076Y-106549857D02*
X111217457Y-106645095D01*
X111217457Y-106645095D02*
X111217457Y-106787952D01*
X111217457Y-106787952D02*
X111265076Y-106883190D01*
X111265076Y-106883190D02*
X111312695Y-106930809D01*
X111312695Y-106930809D02*
X111407933Y-106978428D01*
X111407933Y-106978428D02*
X111788885Y-106978428D01*
X110836504Y-106549857D02*
X110788885Y-106502238D01*
X110788885Y-106502238D02*
X110693647Y-106454619D01*
X110693647Y-106454619D02*
X110455552Y-106454619D01*
X110455552Y-106454619D02*
X110360314Y-106502238D01*
X110360314Y-106502238D02*
X110312695Y-106549857D01*
X110312695Y-106549857D02*
X110265076Y-106645095D01*
X110265076Y-106645095D02*
X110265076Y-106740333D01*
X110265076Y-106740333D02*
X110312695Y-106883190D01*
X110312695Y-106883190D02*
X110884123Y-107454619D01*
X110884123Y-107454619D02*
X110265076Y-107454619D01*
X109360314Y-106454619D02*
X109836504Y-106454619D01*
X109836504Y-106454619D02*
X109884123Y-106930809D01*
X109884123Y-106930809D02*
X109836504Y-106883190D01*
X109836504Y-106883190D02*
X109741266Y-106835571D01*
X109741266Y-106835571D02*
X109503171Y-106835571D01*
X109503171Y-106835571D02*
X109407933Y-106883190D01*
X109407933Y-106883190D02*
X109360314Y-106930809D01*
X109360314Y-106930809D02*
X109312695Y-107026047D01*
X109312695Y-107026047D02*
X109312695Y-107264142D01*
X109312695Y-107264142D02*
X109360314Y-107359380D01*
X109360314Y-107359380D02*
X109407933Y-107407000D01*
X109407933Y-107407000D02*
X109503171Y-107454619D01*
X109503171Y-107454619D02*
X109741266Y-107454619D01*
X109741266Y-107454619D02*
X109836504Y-107407000D01*
X109836504Y-107407000D02*
X109884123Y-107359380D01*
X148632104Y-93748314D02*
X148632104Y-94224504D01*
X148917819Y-93653076D02*
X147917819Y-93986409D01*
X147917819Y-93986409D02*
X148917819Y-94319742D01*
X148917819Y-95176885D02*
X148917819Y-94605457D01*
X148917819Y-94891171D02*
X147917819Y-94891171D01*
X147917819Y-94891171D02*
X148060676Y-94795933D01*
X148060676Y-94795933D02*
X148155914Y-94700695D01*
X148155914Y-94700695D02*
X148203533Y-94605457D01*
X108368180Y-95724504D02*
X107558657Y-95724504D01*
X107558657Y-95724504D02*
X107463419Y-95676885D01*
X107463419Y-95676885D02*
X107415800Y-95629266D01*
X107415800Y-95629266D02*
X107368180Y-95534028D01*
X107368180Y-95534028D02*
X107368180Y-95343552D01*
X107368180Y-95343552D02*
X107415800Y-95248314D01*
X107415800Y-95248314D02*
X107463419Y-95200695D01*
X107463419Y-95200695D02*
X107558657Y-95153076D01*
X107558657Y-95153076D02*
X108368180Y-95153076D01*
X107415800Y-94724504D02*
X107368180Y-94581647D01*
X107368180Y-94581647D02*
X107368180Y-94343552D01*
X107368180Y-94343552D02*
X107415800Y-94248314D01*
X107415800Y-94248314D02*
X107463419Y-94200695D01*
X107463419Y-94200695D02*
X107558657Y-94153076D01*
X107558657Y-94153076D02*
X107653895Y-94153076D01*
X107653895Y-94153076D02*
X107749133Y-94200695D01*
X107749133Y-94200695D02*
X107796752Y-94248314D01*
X107796752Y-94248314D02*
X107844371Y-94343552D01*
X107844371Y-94343552D02*
X107891990Y-94534028D01*
X107891990Y-94534028D02*
X107939609Y-94629266D01*
X107939609Y-94629266D02*
X107987228Y-94676885D01*
X107987228Y-94676885D02*
X108082466Y-94724504D01*
X108082466Y-94724504D02*
X108177704Y-94724504D01*
X108177704Y-94724504D02*
X108272942Y-94676885D01*
X108272942Y-94676885D02*
X108320561Y-94629266D01*
X108320561Y-94629266D02*
X108368180Y-94534028D01*
X108368180Y-94534028D02*
X108368180Y-94295933D01*
X108368180Y-94295933D02*
X108320561Y-94153076D01*
X107891990Y-93391171D02*
X107844371Y-93248314D01*
X107844371Y-93248314D02*
X107796752Y-93200695D01*
X107796752Y-93200695D02*
X107701514Y-93153076D01*
X107701514Y-93153076D02*
X107558657Y-93153076D01*
X107558657Y-93153076D02*
X107463419Y-93200695D01*
X107463419Y-93200695D02*
X107415800Y-93248314D01*
X107415800Y-93248314D02*
X107368180Y-93343552D01*
X107368180Y-93343552D02*
X107368180Y-93724504D01*
X107368180Y-93724504D02*
X108368180Y-93724504D01*
X108368180Y-93724504D02*
X108368180Y-93391171D01*
X108368180Y-93391171D02*
X108320561Y-93295933D01*
X108320561Y-93295933D02*
X108272942Y-93248314D01*
X108272942Y-93248314D02*
X108177704Y-93200695D01*
X108177704Y-93200695D02*
X108082466Y-93200695D01*
X108082466Y-93200695D02*
X107987228Y-93248314D01*
X107987228Y-93248314D02*
X107939609Y-93295933D01*
X107939609Y-93295933D02*
X107891990Y-93391171D01*
X107891990Y-93391171D02*
X107891990Y-93724504D01*
X186323266Y-90320019D02*
X186656599Y-89843828D01*
X186894694Y-90320019D02*
X186894694Y-89320019D01*
X186894694Y-89320019D02*
X186513742Y-89320019D01*
X186513742Y-89320019D02*
X186418504Y-89367638D01*
X186418504Y-89367638D02*
X186370885Y-89415257D01*
X186370885Y-89415257D02*
X186323266Y-89510495D01*
X186323266Y-89510495D02*
X186323266Y-89653352D01*
X186323266Y-89653352D02*
X186370885Y-89748590D01*
X186370885Y-89748590D02*
X186418504Y-89796209D01*
X186418504Y-89796209D02*
X186513742Y-89843828D01*
X186513742Y-89843828D02*
X186894694Y-89843828D01*
X185466123Y-89653352D02*
X185466123Y-90320019D01*
X185704218Y-89272400D02*
X185942313Y-89986685D01*
X185942313Y-89986685D02*
X185323266Y-89986685D01*
X98472666Y-128510380D02*
X98472666Y-127796095D01*
X98472666Y-127796095D02*
X98425047Y-127653238D01*
X98425047Y-127653238D02*
X98329809Y-127558000D01*
X98329809Y-127558000D02*
X98186952Y-127510380D01*
X98186952Y-127510380D02*
X98091714Y-127510380D01*
X98853619Y-128510380D02*
X99472666Y-128510380D01*
X99472666Y-128510380D02*
X99139333Y-128129428D01*
X99139333Y-128129428D02*
X99282190Y-128129428D01*
X99282190Y-128129428D02*
X99377428Y-128081809D01*
X99377428Y-128081809D02*
X99425047Y-128034190D01*
X99425047Y-128034190D02*
X99472666Y-127938952D01*
X99472666Y-127938952D02*
X99472666Y-127700857D01*
X99472666Y-127700857D02*
X99425047Y-127605619D01*
X99425047Y-127605619D02*
X99377428Y-127558000D01*
X99377428Y-127558000D02*
X99282190Y-127510380D01*
X99282190Y-127510380D02*
X98996476Y-127510380D01*
X98996476Y-127510380D02*
X98901238Y-127558000D01*
X98901238Y-127558000D02*
X98853619Y-127605619D01*
X188440219Y-125391942D02*
X187964028Y-125058609D01*
X188440219Y-124820514D02*
X187440219Y-124820514D01*
X187440219Y-124820514D02*
X187440219Y-125201466D01*
X187440219Y-125201466D02*
X187487838Y-125296704D01*
X187487838Y-125296704D02*
X187535457Y-125344323D01*
X187535457Y-125344323D02*
X187630695Y-125391942D01*
X187630695Y-125391942D02*
X187773552Y-125391942D01*
X187773552Y-125391942D02*
X187868790Y-125344323D01*
X187868790Y-125344323D02*
X187916409Y-125296704D01*
X187916409Y-125296704D02*
X187964028Y-125201466D01*
X187964028Y-125201466D02*
X187964028Y-124820514D01*
X188440219Y-126344323D02*
X188440219Y-125772895D01*
X188440219Y-126058609D02*
X187440219Y-126058609D01*
X187440219Y-126058609D02*
X187583076Y-125963371D01*
X187583076Y-125963371D02*
X187678314Y-125868133D01*
X187678314Y-125868133D02*
X187725933Y-125772895D01*
X187440219Y-127249085D02*
X187440219Y-126772895D01*
X187440219Y-126772895D02*
X187916409Y-126725276D01*
X187916409Y-126725276D02*
X187868790Y-126772895D01*
X187868790Y-126772895D02*
X187821171Y-126868133D01*
X187821171Y-126868133D02*
X187821171Y-127106228D01*
X187821171Y-127106228D02*
X187868790Y-127201466D01*
X187868790Y-127201466D02*
X187916409Y-127249085D01*
X187916409Y-127249085D02*
X188011647Y-127296704D01*
X188011647Y-127296704D02*
X188249742Y-127296704D01*
X188249742Y-127296704D02*
X188344980Y-127249085D01*
X188344980Y-127249085D02*
X188392600Y-127201466D01*
X188392600Y-127201466D02*
X188440219Y-127106228D01*
X188440219Y-127106228D02*
X188440219Y-126868133D01*
X188440219Y-126868133D02*
X188392600Y-126772895D01*
X188392600Y-126772895D02*
X188344980Y-126725276D01*
D12*
X183592800Y-129192264D02*
X183592800Y-128738136D01*
X185062800Y-129192264D02*
X185062800Y-128738136D01*
X176623400Y-96667064D02*
X176623400Y-92312936D01*
X180043400Y-96667064D02*
X180043400Y-92312936D01*
X188698200Y-115512200D02*
X189478200Y-115512200D01*
X188698200Y-133052200D02*
X188698200Y-115512200D01*
X189068200Y-129922200D02*
X189068200Y-118642200D01*
X189188200Y-129922200D02*
X189188200Y-118642200D01*
X189308200Y-129922200D02*
X189308200Y-118642200D01*
X189428200Y-129922200D02*
X189428200Y-118642200D01*
X189478200Y-133052200D02*
X188698200Y-133052200D01*
X189548200Y-129922200D02*
X189548200Y-118642200D01*
X189668200Y-129922200D02*
X189668200Y-118642200D01*
X189788200Y-129922200D02*
X189788200Y-118642200D01*
X189908200Y-129922200D02*
X189908200Y-118642200D01*
X190028200Y-129922200D02*
X190028200Y-118642200D01*
X190148200Y-129922200D02*
X190148200Y-118642200D01*
X190268200Y-129922200D02*
X190268200Y-118642200D01*
X190388200Y-129922200D02*
X190388200Y-118642200D01*
X190508200Y-129922200D02*
X190508200Y-118642200D01*
X190628200Y-129922200D02*
X190628200Y-118642200D01*
X190658200Y-133052200D02*
X191438200Y-133052200D01*
X190748200Y-129922200D02*
X190748200Y-118642200D01*
X190868200Y-129922200D02*
X190868200Y-118642200D01*
X190988200Y-118642200D02*
X189068200Y-118642200D01*
X190988200Y-129922200D02*
X189068200Y-129922200D01*
X190988200Y-129922200D02*
X190988200Y-118642200D01*
X191438200Y-115512200D02*
X190658200Y-115512200D01*
X191438200Y-133052200D02*
X191438200Y-115512200D01*
X180535000Y-96667064D02*
X180535000Y-92312936D01*
X183955000Y-96667064D02*
X183955000Y-92312936D01*
X124080600Y-122964752D02*
X124080600Y-122442248D01*
X125550600Y-122964752D02*
X125550600Y-122442248D01*
X175464800Y-123026448D02*
X175464800Y-123548952D01*
X176934800Y-123026448D02*
X176934800Y-123548952D01*
X121074548Y-114657200D02*
X121597052Y-114657200D01*
X121074548Y-116127200D02*
X121597052Y-116127200D01*
X113514200Y-109372936D02*
X113514200Y-109827064D01*
X114984200Y-109372936D02*
X114984200Y-109827064D01*
X99391964Y-94476900D02*
X98937836Y-94476900D01*
X99391964Y-95946900D02*
X98937836Y-95946900D01*
X159238400Y-113412000D02*
X159238400Y-115712000D01*
X159478400Y-98852000D02*
X174898400Y-98852000D01*
X159478400Y-117872000D02*
X159478400Y-98862000D01*
X159478400Y-117872000D02*
X165988400Y-117872000D01*
X161188400Y-110562000D02*
X161188400Y-112862000D01*
X161188400Y-110562000D02*
X165688400Y-110562000D01*
X163488400Y-107062000D02*
X167188400Y-107062000D01*
X163488400Y-113962000D02*
X163488400Y-107062000D01*
X163488400Y-113962000D02*
X167188400Y-113962000D01*
X165188400Y-102362000D02*
X162888400Y-102362000D01*
X165688400Y-108062000D02*
X168688400Y-108062000D01*
X165688400Y-113062000D02*
X165688400Y-108062000D01*
X167188400Y-105562000D02*
X167188400Y-107062000D01*
X167188400Y-114862000D02*
X167188400Y-113962000D01*
X168388400Y-117872000D02*
X174898400Y-117872000D01*
X168688400Y-108062000D02*
X168688400Y-113062000D01*
X168688400Y-110562000D02*
X173188400Y-110562000D01*
X168688400Y-113062000D02*
X165688400Y-108062000D01*
X168688400Y-113062000D02*
X165688400Y-113062000D01*
X169188400Y-102362000D02*
X171488400Y-102362000D01*
X169888400Y-101062000D02*
X167188400Y-105562000D01*
X173188400Y-112862000D02*
X173188400Y-110562000D01*
X174898400Y-98852000D02*
X174898400Y-117872000D01*
X189027400Y-101737800D02*
X189027400Y-111977800D01*
X189027400Y-101737800D02*
X193668400Y-101737800D01*
X189027400Y-111977800D02*
X193668400Y-111977800D01*
X192158400Y-101737800D02*
X192158400Y-111977800D01*
X192158400Y-105006800D02*
X193668400Y-105006800D01*
X192158400Y-108707800D02*
X193668400Y-108707800D01*
X193668400Y-101737800D02*
X193668400Y-111977800D01*
X181043336Y-129236800D02*
X181497464Y-129236800D01*
X181043336Y-130706800D02*
X181497464Y-130706800D01*
X184042936Y-105025000D02*
X184497064Y-105025000D01*
X184042936Y-106495000D02*
X184497064Y-106495000D01*
X98937836Y-92368700D02*
X99391964Y-92368700D01*
X98937836Y-93838700D02*
X99391964Y-93838700D01*
X177449800Y-121443200D02*
X177449800Y-123393200D01*
X177449800Y-125343200D02*
X177449800Y-123393200D01*
X182569800Y-121443200D02*
X182569800Y-123393200D01*
X182569800Y-125343200D02*
X182569800Y-123393200D01*
X177544800Y-120693200D02*
X177214800Y-120933200D01*
X177214800Y-120453200D01*
X177544800Y-120693200D01*
G36*
X177544800Y-120693200D02*
G01*
X177214800Y-120933200D01*
X177214800Y-120453200D01*
X177544800Y-120693200D01*
G37*
X185624800Y-122543848D02*
X185624800Y-123066352D01*
X187094800Y-122543848D02*
X187094800Y-123066352D01*
D13*
X116973350Y-118815100D02*
X116973350Y-123056900D01*
X122332750Y-123056900D02*
X122332750Y-118815100D01*
D12*
X117153050Y-118186000D02*
X116823050Y-118426000D01*
X116823050Y-117946000D01*
X117153050Y-118186000D01*
G36*
X117153050Y-118186000D02*
G01*
X116823050Y-118426000D01*
X116823050Y-117946000D01*
X117153050Y-118186000D01*
G37*
X107744864Y-122646600D02*
X107290736Y-122646600D01*
X107744864Y-124116600D02*
X107290736Y-124116600D01*
X99141036Y-112510900D02*
X99595164Y-112510900D01*
X99141036Y-113980900D02*
X99595164Y-113980900D01*
X176360336Y-129236800D02*
X176814464Y-129236800D01*
X176360336Y-130706800D02*
X176814464Y-130706800D01*
X183465800Y-122547136D02*
X183465800Y-123001264D01*
X184935800Y-122547136D02*
X184935800Y-123001264D01*
X117165000Y-109372936D02*
X117165000Y-109827064D01*
X118635000Y-109372936D02*
X118635000Y-109827064D01*
X107763664Y-120462200D02*
X107309536Y-120462200D01*
X107763664Y-121932200D02*
X107309536Y-121932200D01*
X180387064Y-105015000D02*
X179932936Y-105015000D01*
X180387064Y-106485000D02*
X179932936Y-106485000D01*
X109865000Y-109827064D02*
X109865000Y-109372936D01*
X111335000Y-109827064D02*
X111335000Y-109372936D01*
X101343000Y-90522600D02*
X111763000Y-90522600D01*
X101343000Y-98402600D02*
X101343000Y-90522600D01*
X103883000Y-90522600D02*
X103883000Y-85442600D01*
X103883000Y-98402600D02*
X103883000Y-103482600D01*
X103883000Y-103482600D02*
X142113000Y-103482600D01*
X106553000Y-85442600D02*
X106553000Y-88112600D01*
X106553000Y-88112600D02*
X144653000Y-88112600D01*
X106553000Y-100812600D02*
X142113000Y-100812600D01*
X106553000Y-103482600D02*
X106553000Y-100812600D01*
X111763000Y-90522600D02*
X111763000Y-98402600D01*
X111763000Y-98402600D02*
X101343000Y-98402600D01*
X142113000Y-103482600D02*
X142113000Y-100812600D01*
X144653000Y-85442600D02*
X144653000Y-88112600D01*
X144653000Y-100812600D02*
X142113000Y-100812600D01*
X144653000Y-103482600D02*
X144653000Y-100812600D01*
X144653000Y-103482600D02*
X147323000Y-103482600D01*
X147323000Y-85442600D02*
X103883000Y-85442600D01*
X147323000Y-103482600D02*
X147323000Y-85442600D01*
X184446600Y-96667064D02*
X184446600Y-92312936D01*
X187866600Y-96667064D02*
X187866600Y-92312936D01*
X99657200Y-117612400D02*
X97957200Y-117612400D01*
X99657200Y-126952400D02*
X97957200Y-126952400D01*
X185561464Y-125299800D02*
X185107336Y-125299800D01*
X185561464Y-126769800D02*
X185107336Y-126769800D01*
%LPC*%
D14*
X185140600Y-86106000D03*
D15*
X141351000Y-111306600D03*
D16*
X141351000Y-116306600D03*
X141351000Y-113806600D03*
D17*
X148851000Y-108206600D03*
X148851000Y-119406600D03*
D16*
X155851000Y-116306600D03*
X155851000Y-111306600D03*
D14*
X176911000Y-86106000D03*
D18*
X117957600Y-93434600D03*
X120497600Y-93434600D03*
X123037600Y-93434600D03*
X125577600Y-93434600D03*
D19*
X100836100Y-108596700D03*
X100836100Y-106596700D03*
X100836100Y-104596700D03*
X100836100Y-100596700D03*
X98336100Y-108596700D03*
X98336100Y-106596700D03*
X98336100Y-104596700D03*
X98336100Y-100596700D03*
D20*
X99586100Y-98446700D03*
X99586100Y-110746700D03*
D21*
X184327800Y-127965200D03*
X184327800Y-129965200D03*
D22*
X178333400Y-91440000D03*
X178333400Y-97540000D03*
D23*
X190068200Y-116782200D03*
X190068200Y-131782200D03*
D22*
X182245000Y-91440000D03*
X182245000Y-97540000D03*
D24*
X124815600Y-121666000D03*
X124815600Y-123741000D03*
D25*
X176199800Y-124325200D03*
X176199800Y-122250200D03*
D26*
X122373300Y-115392200D03*
X120298300Y-115392200D03*
D27*
X114249200Y-110600000D03*
X114249200Y-108600000D03*
D28*
X98164900Y-95211900D03*
X100164900Y-95211900D03*
D14*
X167188400Y-116562000D03*
X173188400Y-102362000D03*
X161188400Y-102362000D03*
D29*
X161188400Y-114562000D03*
D14*
X173188400Y-114562000D03*
D30*
X190398400Y-109397800D03*
D31*
X190398400Y-106857800D03*
X190398400Y-104317800D03*
D32*
X182270400Y-129971800D03*
X180270400Y-129971800D03*
X185270000Y-105760000D03*
X183270000Y-105760000D03*
X100164900Y-93103700D03*
X98164900Y-93103700D03*
D33*
X178104800Y-120768200D03*
X179374800Y-120768200D03*
X180644800Y-120768200D03*
X181914800Y-120768200D03*
X181914800Y-126018200D03*
X180644800Y-126018200D03*
X179374800Y-126018200D03*
X178104800Y-126018200D03*
D25*
X186359800Y-123842600D03*
X186359800Y-121767600D03*
D34*
X117748050Y-118110250D03*
X119018050Y-118110250D03*
X120288050Y-118110250D03*
X121558050Y-118110250D03*
X121558050Y-123761750D03*
X120288050Y-123761750D03*
X119018050Y-123761750D03*
X117748050Y-123761750D03*
D35*
X119653050Y-120936000D03*
D28*
X106517800Y-123381600D03*
X108517800Y-123381600D03*
D32*
X100368100Y-113245900D03*
X98368100Y-113245900D03*
X177587400Y-129971800D03*
X175587400Y-129971800D03*
D27*
X184200800Y-123774200D03*
X184200800Y-121774200D03*
X117900000Y-110600000D03*
X117900000Y-108600000D03*
D28*
X106536600Y-121197200D03*
X108536600Y-121197200D03*
X179160000Y-105750000D03*
X181160000Y-105750000D03*
D21*
X110600000Y-108600000D03*
X110600000Y-110600000D03*
D36*
X143383000Y-102082600D03*
D37*
X140843000Y-102082600D03*
X138303000Y-102082600D03*
X135763000Y-102082600D03*
X133223000Y-102082600D03*
X130683000Y-102082600D03*
X128143000Y-102082600D03*
X125603000Y-102082600D03*
X123063000Y-102082600D03*
X120523000Y-102082600D03*
X117983000Y-102082600D03*
X115443000Y-102082600D03*
X112903000Y-102082600D03*
X110363000Y-102082600D03*
X107823000Y-102082600D03*
X107823000Y-86842600D03*
X110363000Y-86842600D03*
X112903000Y-86842600D03*
X115443000Y-86842600D03*
X117983000Y-86842600D03*
X120523000Y-86842600D03*
X123063000Y-86842600D03*
X125603000Y-86842600D03*
X128143000Y-86842600D03*
X130683000Y-86842600D03*
X133223000Y-86842600D03*
X135763000Y-86842600D03*
X138303000Y-86842600D03*
X140843000Y-86842600D03*
X143383000Y-86842600D03*
D22*
X186156600Y-91440000D03*
X186156600Y-97540000D03*
D38*
X100787200Y-122782400D03*
D39*
X100787200Y-120762400D03*
D40*
X100787200Y-119532400D03*
D41*
X100787200Y-121782400D03*
D42*
X100787200Y-123802400D03*
D43*
X100787200Y-125032400D03*
D44*
X96907200Y-126602400D03*
X100707200Y-126602400D03*
X96907200Y-117962400D03*
X100707200Y-117962400D03*
D28*
X184334400Y-126034800D03*
X186334400Y-126034800D03*
D45*
X149860000Y-99822000D03*
X132207000Y-119989600D03*
X132207000Y-125958600D03*
X164731700Y-125938200D03*
X184200800Y-120472200D03*
X120243600Y-125476000D03*
X128778000Y-119964200D03*
X168656000Y-120040400D03*
X158699200Y-107899200D03*
X130710000Y-90340000D03*
X128140000Y-88870000D03*
X164312600Y-92193050D03*
X164312600Y-114858800D03*
X126078400Y-115390000D03*
X120500000Y-90500000D03*
X103040000Y-120760000D03*
X124920000Y-115390000D03*
X134112000Y-119507000D03*
X112699800Y-125857000D03*
X112690000Y-124690000D03*
X123750000Y-115390000D03*
X137591800Y-92176600D03*
X176199800Y-126009400D03*
X104216200Y-120751600D03*
X164309800Y-109890000D03*
X158490000Y-121690000D03*
X159660000Y-121690000D03*
X170820000Y-120820000D03*
X171710000Y-119920000D03*
X169930000Y-121710000D03*
X160820100Y-121691400D03*
X183890000Y-107950000D03*
X145872200Y-111683800D03*
X104279700Y-110985300D03*
X112877600Y-95783400D03*
X162064700Y-132491400D03*
X174142400Y-86055200D03*
X182219600Y-98810000D03*
X183550000Y-99230000D03*
X178430000Y-99240000D03*
X187370000Y-98810000D03*
X186120000Y-99240000D03*
X180950000Y-99230000D03*
X179679600Y-98810000D03*
X177200000Y-98810000D03*
X184886600Y-98810000D03*
X130352800Y-112903000D03*
X119030000Y-126740000D03*
X130352800Y-119964200D03*
X176428400Y-109397800D03*
X165989000Y-90017600D03*
X176428400Y-119100600D03*
X177469800Y-110566200D03*
X178485800Y-118694200D03*
X180644800Y-128346200D03*
X180644800Y-122123200D03*
X179374800Y-124790200D03*
%LPD*%
M02*
