M48
; DRILL file {KiCad 8.0.3} date 2024-06-12T20:13:05+0200
; FORMAT={-:-/ absolute / metric / decimal}
; #@! TF.CreationDate,2024-06-12T20:13:05+02:00
; #@! TF.GenerationSoftware,Kicad,Pcbnew,8.0.3
; #@! TF.FileFunction,Plated,1,2,PTH
FMAT,2
METRIC
; #@! TA.AperFunction,Plated,PTH,ComponentDrill
T1C0.200
; #@! TA.AperFunction,Plated,PTH,ComponentDrill
T2C0.600
; #@! TA.AperFunction,Plated,PTH,ViaDrill
T3C0.700
; #@! TA.AperFunction,Plated,PTH,ComponentDrill
T4C0.762
; #@! TA.AperFunction,Plated,PTH,ComponentDrill
T5C1.000
; #@! TA.AperFunction,Plated,PTH,ComponentDrill
T6C1.100
; #@! TA.AperFunction,Plated,PTH,ComponentDrill
T7C1.200
; #@! TA.AperFunction,Plated,PTH,ComponentDrill
T8C1.250
; #@! TA.AperFunction,Plated,PTH,ComponentDrill
T9C1.300
; #@! TA.AperFunction,Plated,PTH,ComponentDrill
T10C1.500
%
G90
G05
T1
X118.201Y-119.929
X118.201Y-121.943
X119.653Y-119.929
X119.653Y-121.943
X121.105Y-119.929
X121.105Y-121.943
T3
X103.04Y-120.76
X104.216Y-120.752
X104.28Y-110.985
X112.69Y-124.69
X112.7Y-125.857
X112.878Y-95.783
X119.03Y-126.74
X120.244Y-125.476
X120.5Y-90.5
X123.75Y-115.39
X124.92Y-115.39
X126.078Y-115.39
X128.14Y-88.87
X128.778Y-119.964
X130.353Y-112.903
X130.353Y-119.964
X130.71Y-90.34
X132.207Y-119.99
X132.207Y-125.959
X134.112Y-119.507
X137.592Y-92.177
X145.872Y-111.684
X149.86Y-99.822
X158.49Y-121.69
X158.699Y-107.899
X159.66Y-121.69
X160.82Y-121.691
X162.065Y-132.491
X164.31Y-109.89
X164.313Y-92.193
X164.313Y-114.859
X164.732Y-125.938
X165.989Y-90.018
X168.656Y-120.04
X169.93Y-121.71
X170.82Y-120.82
X171.71Y-119.92
X174.142Y-86.055
X176.2Y-126.009
X176.428Y-109.398
X176.428Y-119.101
X177.2Y-98.81
X177.47Y-110.566
X178.43Y-99.24
X178.486Y-118.694
X179.375Y-124.79
X179.68Y-98.81
X180.645Y-122.123
X180.645Y-128.346
X180.95Y-99.23
X182.22Y-98.81
X183.55Y-99.23
X183.89Y-107.95
X184.201Y-120.472
X184.887Y-98.81
X186.12Y-99.24
X187.37Y-98.81
T4
X98.336Y-100.597
X98.336Y-104.597
X98.336Y-106.597
X98.336Y-108.597
X100.836Y-100.597
X100.836Y-104.597
X100.836Y-106.597
X100.836Y-108.597
T5
X107.823Y-86.843
X107.823Y-102.083
X110.363Y-86.843
X110.363Y-102.083
X112.903Y-86.843
X112.903Y-102.083
X115.443Y-86.843
X115.443Y-102.083
X117.958Y-93.435
X117.983Y-86.843
X117.983Y-102.083
X120.498Y-93.435
X120.523Y-86.843
X120.523Y-102.083
X123.038Y-93.435
X123.063Y-86.843
X123.063Y-102.083
X125.578Y-93.435
X125.603Y-86.843
X125.603Y-102.083
X128.143Y-86.843
X128.143Y-102.083
X130.683Y-86.843
X130.683Y-102.083
X133.223Y-86.843
X133.223Y-102.083
X135.763Y-86.843
X135.763Y-102.083
X138.303Y-86.843
X138.303Y-102.083
X140.843Y-86.843
X140.843Y-102.083
X141.351Y-111.307
X141.351Y-113.807
X141.351Y-116.307
X143.383Y-86.843
X143.383Y-102.083
X155.851Y-111.307
X155.851Y-116.307
T6
X190.398Y-104.318
X190.398Y-106.858
X190.398Y-109.398
T7
X176.911Y-86.106
X185.141Y-86.106
T8
X190.068Y-116.782
X190.068Y-131.782
T9
X161.188Y-102.362
X161.188Y-114.562
X167.188Y-116.562
X173.188Y-102.362
X173.188Y-114.562
T2
X96.607Y-117.962G85X97.207Y-117.962
G05
X96.607Y-126.602G85X97.207Y-126.602
G05
X100.407Y-117.962G85X101.007Y-117.962
G05
X100.407Y-126.602G85X101.007Y-126.602
G05
T4
X99.967Y-98.447G85X99.205Y-98.447
G05
X99.967Y-110.747G85X99.205Y-110.747
G05
T10
X148.201Y-108.207G85X149.501Y-108.207
G05
X148.201Y-119.407G85X149.501Y-119.407
G05
M30
